<svg width="170" height="104" viewBox="0 0 170 104" fill="none" xmlns="http://www.w3.org/2000/svg"><path fill-rule="evenodd" clip-rule="evenodd" d="M81.388 91.272v12.499h2.491v-8.217l5.394 8.217h2.694V91.272h-2.492v8.376l-5.479-8.376h-2.608z" fill="#565F64"/><path fill-rule="evenodd" clip-rule="evenodd" d="M74.126 97.54c0-2.04-.59-3.632-1.767-4.777-1.178-1.145-2.749-1.717-4.713-1.716a7.763 7.763 0 00-2.872.498 5.255 5.255 0 00-1.72 1.128 5.85 5.85 0 00-1.239 1.716c-.406.868-.61 1.938-.611 3.212 0 1.991.584 3.556 1.753 4.695 1.17 1.138 2.744 1.706 4.726 1.704 1.955 0 3.517-.571 4.688-1.713 1.17-1.141 1.754-2.723 1.753-4.744l.002-.004zm-3.778-3.27c.668.704 1.002 1.773 1.002 3.208 0 1.452-.344 2.541-1.032 3.268a3.758 3.758 0 01-5.302-.009c-.697-.733-1.046-1.808-1.047-3.223 0-1.438.34-2.515 1.019-3.233.679-.716 1.573-1.073 2.683-1.07 1.114 0 2.004.353 2.672 1.059h.005zm-13.92 9.501V93.385h3.924v-2.113h-10.56v2.113h3.94v10.386h2.696zm-8.604-1.624a3.737 3.737 0 00.106-4.003 3.658 3.658 0 00-1.47-1.27c-.623-.31-1.586-.611-2.89-.9-1.305-.289-2.126-.571-2.464-.842a.943.943 0 01-.399-.76.902.902 0 01.424-.78c.432-.296 1.036-.444 1.812-.444.75 0 1.313.141 1.689.424.375.284.62.747.734 1.391l2.696-.088c-.044-1.16-.486-2.088-1.326-2.781-.84-.694-2.092-1.044-3.754-1.05a6.977 6.977 0 00-2.617.444 3.569 3.569 0 00-1.658 1.268 3.115 3.115 0 00-.568 1.786c0 .995.407 1.836 1.22 2.522.58.491 1.588.905 3.021 1.242 1.116.262 1.829.441 2.141.547.362.095.694.28.964.538.184.21.282.479.275.757 0 .459-.218.86-.656 1.205-.437.344-1.09.515-1.955.514-.815 0-1.463-.193-1.943-.579-.48-.387-.796-.996-.955-1.813l-2.613.246c.177 1.393.715 2.454 1.615 3.183.9.729 2.191 1.094 3.876 1.094 1.155 0 2.12-.152 2.897-.457a3.747 3.747 0 001.797-1.394h.001zm-19.19-.489v-3.386h6.656V96.16h-6.656v-2.775h7.157v-2.113h-9.852v12.499H36.05v-2.113h-7.417zm-5.544 2.113V91.272H20.6v8.376l-5.479-8.376h-2.608v12.499h2.491v-8.217l5.394 8.217h2.692zM9.948 96.04v-1.885H8.712l.718-3.32H7.308l-.699 3.32H4.657l.72-3.32H3.328l-.721 3.32H0v1.885h2.198l-.546 2.514H0v1.886h1.242l-.721 3.319H2.57l.721-3.319h2.004l-.696 3.319h2.046l.716-3.319h2.593v-1.886h-2.19l.542-2.514h1.642zm-5.701 0h1.967l-.526 2.514H3.7l.539-2.514h.007zm71.883-4.768v12.499h2.695V91.272h-2.696z" fill="#E7A24F"/><path fill-rule="evenodd" clip-rule="evenodd" d="M98.625 91.272l-5.177 12.499h2.85l1.106-2.845h5.344l1.149 2.845h2.904l-5.332-12.499h-2.844zm-.394 7.541l1.796-4.625 1.851 4.626h-3.647z" fill="#565F64"/><path fill-rule="evenodd" clip-rule="evenodd" d="M116.985 91.272l-2.357 8.524-2.387-8.524h-4.038v12.499h2.492l.008-9.84 2.614 9.84h2.59l2.623-9.84.01 9.84h2.492V91.272h-4.047zm6.742 0v12.499h10.114v-2.113h-7.417v-3.386h6.654V96.16h-6.654v-2.775h7.157v-2.113h-9.854zm13.417 5.792c.58.492 1.587.905 3.021 1.242 1.116.262 1.829.441 2.141.547.362.096.693.28.963.538.184.21.282.48.276.757 0 .459-.219.861-.656 1.205-.438.344-1.087.515-1.949.514-.815 0-1.462-.193-1.942-.579-.481-.387-.797-.996-.955-1.812l-2.622.244c.177 1.393.715 2.454 1.615 3.183.899.729 2.191 1.093 3.876 1.093 1.155 0 2.121-.152 2.897-.456a3.762 3.762 0 001.797-1.394 3.73 3.73 0 00.105-4.003 3.658 3.658 0 00-1.47-1.271c-.623-.309-1.586-.61-2.89-.9-1.304-.288-2.126-.57-2.463-.841a.933.933 0 01-.399-.76.898.898 0 01.424-.78c.436-.302 1.042-.453 1.818-.453.751 0 1.313.141 1.688.425.376.283.621.746.735 1.39l2.695-.088c-.043-1.16-.485-2.087-1.325-2.781-.841-.694-2.094-1.041-3.759-1.042a6.977 6.977 0 00-2.612.436 3.567 3.567 0 00-1.658 1.268 3.108 3.108 0 00-.573 1.793c0 .995.407 1.836 1.221 2.522l.001.003zm14.378-3.679v10.386h2.696V93.385h3.922v-2.113h-10.56v2.113h3.942zm8.363-2.113v12.499H170v-2.113h-7.419v-3.386h6.656V96.16h-6.656v-2.775h7.159v-2.113h-9.855z" fill="#43A2D9"/><path fill-rule="evenodd" clip-rule="evenodd" d="M104.647 30.888a4.26 4.26 0 01.219-2.472 4.286 4.286 0 011.563-1.936 4.328 4.328 0 014.78-.062 4.266 4.266 0 01.757 6.57 4.318 4.318 0 01-2.181 1.21 4.353 4.353 0 01-3.259-.598 4.304 4.304 0 01-1.879-2.712zm-6.645 17.887l16.378-7.966c1.054-.512 4.302-3.091 5.394-6.558 1.092-3.467 1.396-9.717-3.859-13.443-5.255-3.726-12.169-1.978-14.931.87-2.762 2.848-4.652 6.638-4.007 14.227A1130.4 1130.4 0 0198 48.774l.002.001zm10.624-36.696a3.323 3.323 0 001.758 3.226 3.357 3.357 0 003.675-.354 3.323 3.323 0 001.081-1.586 3.3 3.3 0 00-1.03-3.524 3.348 3.348 0 00-1.769-.763 3.398 3.398 0 00-2.482.736 3.36 3.36 0 00-1.233 2.265zm8.164 3.133a2.392 2.392 0 00-.127 2.667c.245.407.606.733 1.037.938a2.44 2.44 0 002.66-.377 2.398 2.398 0 00-1.002-4.125 2.469 2.469 0 00-1.856.263 2.441 2.441 0 00-.712.634zm4.784 5.063a1.815 1.815 0 00-.471 1.957c.123.337.342.63.632.843a1.843 1.843 0 002.742-.66 1.811 1.811 0 00-.256-1.997 1.882 1.882 0 00-2.647-.143zm2.784 4.939a1.61 1.61 0 00-.908.2 1.595 1.595 0 00-.803 1.58 1.59 1.59 0 001.161 1.34 1.61 1.61 0 001.69-.552 1.583 1.583 0 00-.047-2.019 1.603 1.603 0 00-1.093-.549zm-.388 5.143a1.051 1.051 0 00-1.616 1.088c.045.204.151.39.304.534a1.055 1.055 0 001.623-.223 1.01 1.01 0 00-.311-1.399zm-50.177-2.542c1.214-7.516-.386-11.44-2.926-14.485s-9.303-5.296-14.823-1.976c-5.521 3.319-5.686 9.574-4.858 13.11.828 3.537 3.872 6.355 4.891 6.944l15.729 9.17s.773-5.239 1.987-12.757v-.006zm-7.269-5.575a4.282 4.282 0 01-1.395 2.06 4.325 4.325 0 01-4.759.456 4.297 4.297 0 01-1.765-1.755 4.26 4.26 0 01.46-4.73 4.311 4.311 0 012.073-1.385 4.336 4.336 0 012.497-.011 4.325 4.325 0 012.563 2.088 4.28 4.28 0 01.326 3.277zm-5.76-15.517a3.395 3.395 0 002.339-1.108 3.36 3.36 0 00.866-2.427A3.314 3.314 0 0062.896.88a3.346 3.346 0 00-2.401-.877 3.351 3.351 0 00-2.322 1.066 3.31 3.31 0 00-.884 2.386 3.357 3.357 0 001.058 2.348c.651.613 1.52.944 2.417.92zm-5.856 2.361a2.444 2.444 0 00.474-3.782 2.477 2.477 0 00-2.693-.588 2.47 2.47 0 00-1.129.891 2.447 2.447 0 00-.035 2.74 2.462 2.462 0 003.383.739zm-4.413 3.946a1.9 1.9 0 00.49-2.073 1.904 1.904 0 00-.688-.88 1.922 1.922 0 00-2.863.813 1.891 1.891 0 00.41 2.09 1.88 1.88 0 002.65.05zm-1.598 3.68a1.6 1.6 0 00-1.914-1.56 1.589 1.589 0 00-1.167 2.17 1.608 1.608 0 002.959 0c.08-.193.122-.4.122-.61zm-.251 4.06a.986.986 0 00-.97-.484.99.99 0 00-.832.691.977.977 0 00.308 1.035.991.991 0 001.077.13 1.008 1.008 0 00.414-1.37l.003-.002z" fill="#E7A24F"/><path fill-rule="evenodd" clip-rule="evenodd" d="M66.312 3.982c11.43-1.711 15.958 2.49 15.958 2.49 6.432 5.569 5.52 13.057 5.52 13.057-3.119 1.067-10.268 3.292-10.268 3.292.055.332.055 1.262.055 1.262l10.158-3.265c-.248 7.792-3.65 16.596-3.65 16.596-.242-.083-1.097-.09-1.097-.09-2.54-.013-3.078 2.158-3.091 3.032 0 .554.117 1.1.346 1.605-5.052 3.716-11.897 6.008-14.133 6.914-2.236.906-2.954 2.194-2.954 3.485s1.571 5.943 13.461 10.854c11.89 4.91 18.812 5.5 18.812 5.974 0 .475.835 2.656 3.188 2.656 2.352 0 3.119-1.783 3.119-3.072 0-1.29-.787-3.129-3.106-3.142-2.32-.013-3.12 2.1-3.12 2.1-2.87-.439-5.135-.664-16.452-4.883C67.742 58.63 64.457 53.72 64.4 52.226c-.057-1.494 2.622-2.332 2.622-2.332 7.785-2.743 13.969-7.078 13.969-7.078s.334.63 2.004.63 2.83-1.697 2.83-1.697l.149.048c2.621.878 9.717 2.936 9.717 2.936l-.027-1.261c-4.302-1.043-9.528-2.799-9.528-2.799.167-1.536-1.104-2.73-1.104-2.73 3.754-9.052 3.864-17.556 3.864-17.556a6724.29 6724.29 0 0015.734-5.596l-.501-1.207c-5.963 2.47-15.1 5.323-15.1 5.323-.055-3.594-.744-8.725-5.934-13.388C77.905.855 66.34 2.61 66.34 2.61s-.029 1.207-.029 1.37zm14.744 36.365c.005-.379.123-.747.34-1.06a1.93 1.93 0 011.986-.792c.373.077.714.262.982.532a1.916 1.916 0 01.406 2.089 1.92 1.92 0 01-.712.857 1.94 1.94 0 01-1.07.322 1.954 1.954 0 01-1.373-.576 1.935 1.935 0 01-.56-1.372zm15.542 28.407a1.994 1.994 0 01.305-1.132 2.027 2.027 0 013.11-.38 1.994 1.994 0 01-.273 3.102 2.025 2.025 0 01-1.127.343 1.99 1.99 0 01-1.41-.552 1.964 1.964 0 01-.605-1.382zm25.862-20.822c-5.742.274-16.198-1.907-16.198-1.907l-1.574.769c5.105 1.631 16.19 2.489 16.977 2.345 9.607-.605 13.443-2.387 13.663-8.423.22-6.036-6.459-14.347-6.459-14.347l-1.049.878c2.263 2.689 5.906 8.12 6.294 13.717.387 5.596-5.907 6.693-11.649 6.97l-.005-.002zM36.666 24.611c.027-2.277 2.545-8.23 5.134-10.204l-.939-.905s-5.741 6.418-5.299 11.63c.443 5.213 6.18 6.141 16.148 5.323l-.855-1.152s-5.844.768-9.22.028c-3.374-.74-4.997-2.443-4.969-4.72z" fill="#565F64"/></svg>