<svg width="230" height="145" viewBox="0 0 230 145" fill="none" xmlns="http://www.w3.org/2000/svg">
<path d="M109.814 124.59C109.262 124.59 108.814 125.037 108.814 125.59V142.249C108.814 142.801 109.262 143.249 109.814 143.249H113.115C113.667 143.249 114.115 142.801 114.115 142.249V134.66L119.422 142.795C119.607 143.078 119.922 143.249 120.26 143.249H123.828C124.38 143.249 124.828 142.801 124.828 142.249V125.59C124.828 125.037 124.38 124.59 123.828 124.59H120.528C119.975 124.59 119.528 125.037 119.528 125.59V133.381L114.108 125.045C113.923 124.761 113.608 124.59 113.27 124.59H109.814Z" fill="#565F64" stroke="white" stroke-width="2" stroke-linejoin="round"/>
<path d="M101.191 134.01C101.193 133.988 101.194 133.965 101.194 133.942C101.194 131.025 100.35 128.62 98.5527 126.861C96.7721 125.119 94.4245 124.289 91.6191 124.289C90.1962 124.265 88.7818 124.512 87.4512 125.017L87.4294 125.026C86.4579 125.421 85.5739 126.004 84.8285 126.741C84.062 127.481 83.4362 128.354 82.9817 129.317L82.9817 129.317L82.9795 129.322C82.363 130.646 82.078 132.226 82.0764 134.023V134.024C82.0764 136.883 82.9173 139.25 84.6992 140.997L85.3991 140.282C86.9476 141.8 89.0344 142.557 91.6594 142.554V143.554C91.6598 143.554 91.6602 143.554 91.6606 143.554C94.4579 143.554 96.7976 142.725 98.5695 140.985C100.342 139.245 101.181 136.876 101.191 134.01ZM91.6409 129.173H91.6439C92.8858 129.173 93.7865 129.559 94.4549 130.27C94.4748 130.291 94.4956 130.311 94.5172 130.33C95.1272 131.016 95.5172 132.133 95.5172 133.861C95.5172 135.646 95.0978 136.805 94.4322 137.52C94.066 137.883 93.6325 138.171 93.156 138.367C92.6745 138.566 92.1586 138.668 91.6377 138.667C91.1168 138.666 90.6012 138.563 90.1204 138.363C89.6436 138.164 89.2104 137.874 88.8449 137.509C88.1619 136.78 87.741 135.635 87.7397 133.908C87.7398 132.13 88.1584 130.985 88.8172 130.285C89.5033 129.557 90.4106 129.17 91.6409 129.173Z" fill="#E7A24F" stroke="white" stroke-width="2" stroke-linejoin="round"/>
<path d="M76.7499 143.249C77.3022 143.249 77.7499 142.801 77.7499 142.249V129.406H81.9484C82.5007 129.406 82.9484 128.958 82.9484 128.406V125.59C82.9484 125.037 82.5007 124.59 81.9484 124.59H67.959C67.4067 124.59 66.959 125.037 66.959 125.59V128.406C66.959 128.958 67.4067 129.406 67.959 129.406H72.1796V142.249C72.1796 142.801 72.6273 143.249 73.1796 143.249H76.7499Z" fill="#E7A24F" stroke="white" stroke-width="2" stroke-linejoin="round"/>
<path d="M66.1391 140.703C66.155 140.683 66.1701 140.662 66.1845 140.641C66.8137 139.698 67.1634 138.597 67.193 137.464C67.2225 136.331 66.9309 135.213 66.3517 134.239C66.3434 134.225 66.3347 134.211 66.3256 134.197C65.7433 133.319 64.9346 132.614 63.9849 132.157C63.5266 131.929 62.9642 131.711 62.3042 131.503L65.6997 131.391C65.9656 131.383 66.217 131.268 66.3983 131.074C66.5797 130.879 66.6761 130.62 66.6662 130.355C66.599 128.546 65.8982 127.035 64.5494 125.915C63.1869 124.784 61.2648 124.295 58.9511 124.286C57.6436 124.257 56.3426 124.479 55.1191 124.941C54.0482 125.343 53.122 126.055 52.4595 126.988L52.4595 126.988L52.455 126.994C51.8501 127.859 51.5247 128.889 51.5225 129.945V129.947C51.5225 131.589 52.207 132.981 53.4919 134.072C54.4483 134.886 55.9765 135.481 57.9111 135.937C59.4084 136.292 60.2968 136.518 60.6534 136.64C60.6759 136.648 60.6986 136.655 60.7216 136.661C61.0202 136.74 61.295 136.89 61.5232 137.097C61.5875 137.183 61.6214 137.289 61.6189 137.397L61.6186 137.42C61.6186 137.662 61.5239 137.929 61.1287 138.242C60.8004 138.501 60.1995 138.713 59.1602 138.711H59.1589C58.2347 138.711 57.6231 138.492 57.2155 138.162L57.2151 138.162C56.8219 137.844 56.4856 137.281 56.3027 136.334C56.2051 135.829 55.7394 135.48 55.2267 135.528L51.7647 135.856C51.4953 135.881 51.2477 136.015 51.0785 136.226C50.9092 136.437 50.8329 136.708 50.8668 136.977C51.126 139.029 51.934 140.701 53.366 141.869C54.8012 143.04 56.7718 143.552 59.1323 143.552C60.7393 143.552 62.1492 143.341 63.3277 142.878C64.4639 142.454 65.4443 141.696 66.1391 140.703ZM61.1119 130.683C61.1513 130.906 61.2623 131.1 61.4184 131.244C60.9594 131.119 60.464 130.998 59.9338 130.88C59.0897 130.692 58.4253 130.511 57.93 130.341C57.4091 130.162 57.1634 130.023 57.0814 129.956C57.0653 129.943 57.0488 129.931 57.0319 129.919C56.999 129.896 56.9722 129.865 56.9536 129.829C56.9349 129.794 56.925 129.754 56.9247 129.714H56.9248L56.9246 129.706C56.9241 129.67 56.9327 129.635 56.9496 129.604C56.9665 129.572 56.9912 129.546 57.0213 129.527C57.0327 129.52 57.0439 129.512 57.055 129.505C57.3978 129.268 57.97 129.089 58.8868 129.089C59.7826 129.089 60.2715 129.264 60.5183 129.452C60.7474 129.626 60.9864 129.974 61.1119 130.683Z" fill="#E7A24F" stroke="white" stroke-width="2" stroke-linejoin="round"/>
<path d="M49.7574 138.433H40.9312V135.92H48.7487C49.301 135.92 49.7487 135.473 49.7487 134.92V132.104C49.7487 131.552 49.301 131.104 48.7487 131.104H40.9312V129.406H49.4123C49.9646 129.406 50.4123 128.958 50.4123 128.406V125.59C50.4123 125.037 49.9646 124.59 49.4123 124.59H36.3608C35.8086 124.59 35.3608 125.037 35.3608 125.59V142.249C35.3608 142.801 35.8086 143.249 36.3608 143.249H49.7574C50.3097 143.249 50.7574 142.801 50.7574 142.249V139.433C50.7574 138.881 50.3097 138.433 49.7574 138.433Z" fill="#E7A24F" stroke="white" stroke-width="2" stroke-linejoin="round"/>
<path d="M32.587 143.249C33.1393 143.249 33.587 142.801 33.587 142.249V125.59C33.587 125.037 33.1393 124.59 32.587 124.59H29.2887C28.7364 124.59 28.2887 125.037 28.2887 125.59V133.381L22.8692 125.045C22.6847 124.761 22.3692 124.59 22.0308 124.59H18.5754C18.0232 124.59 17.5754 125.037 17.5754 125.59V142.249C17.5754 142.801 18.0232 143.249 18.5754 143.249H21.8759C22.4282 143.249 22.8759 142.801 22.8759 142.249V134.66L28.1835 142.795C28.3682 143.078 28.6832 143.249 29.0211 143.249H32.587Z" fill="#E7A24F" stroke="white" stroke-width="2" stroke-linejoin="round"/>
<path d="M15.1776 132.945C15.7299 132.945 16.1776 132.497 16.1776 131.945V129.432C16.1776 128.88 15.7299 128.432 15.1776 128.432H14.7785L15.4695 125.218C15.533 124.923 15.4596 124.614 15.2697 124.379C15.0799 124.144 14.7939 124.008 14.4918 124.008H11.6802C11.2068 124.008 10.7982 124.34 10.7014 124.803L9.94296 128.432H9.40806L10.1006 125.218C10.1642 124.923 10.0909 124.615 9.90105 124.38C9.7112 124.144 9.42522 124.008 9.12302 124.008H6.40875C5.93783 124.008 5.53072 124.336 5.43129 124.797L4.64605 128.432H2C1.44772 128.432 1 128.88 1 129.432V131.945C1 132.497 1.44772 132.945 2 132.945H3.67228L3.3806 134.296H2C1.44772 134.296 1 134.744 1 135.296V137.809C1 138.362 1.44772 138.809 2 138.809H2.40675L1.71272 142.022C1.6489 142.318 1.72216 142.626 1.912 142.862C2.10184 143.097 2.3879 143.234 2.69018 143.234H5.40445C5.87538 143.234 6.28248 142.905 6.38191 142.445L7.16715 138.809H7.78463L7.11323 142.029C7.05179 142.324 7.12637 142.631 7.31626 142.864C7.50615 143.098 7.79116 143.234 8.09218 143.234H10.802C11.2735 143.234 11.6809 142.904 11.7798 142.443L12.5593 138.809H15.1864C15.7387 138.809 16.1864 138.362 16.1864 137.809V135.296C16.1864 134.744 15.7387 134.296 15.1864 134.296H13.5214L13.8113 132.945H15.1776ZM8.72101 134.296H8.13773L8.42584 132.945H9.00198L8.72101 134.296Z" fill="#E7A24F" stroke="white" stroke-width="2" stroke-linejoin="round"/>
<path d="M102.848 124.59C102.296 124.59 101.848 125.037 101.848 125.59V142.249C101.848 142.801 102.296 143.249 102.848 143.249H106.419C106.971 143.249 107.419 142.801 107.419 142.249V125.59C107.419 125.037 106.971 124.59 106.419 124.59H102.848Z" fill="#E7A24F" stroke="white" stroke-width="2" stroke-linejoin="round"/>
<path d="M132.648 124.59C132.242 124.59 131.877 124.834 131.723 125.209L124.865 141.868C124.738 142.177 124.774 142.528 124.959 142.806C125.145 143.083 125.456 143.249 125.79 143.249H129.566C129.979 143.249 130.35 142.995 130.499 142.609L131.716 139.457H137.433L138.703 142.622C138.855 143.001 139.223 143.249 139.631 143.249H143.478C143.814 143.249 144.127 143.081 144.312 142.801C144.497 142.521 144.53 142.168 144.399 141.859L137.336 125.199C137.179 124.83 136.816 124.59 136.415 124.59H132.648ZM135.483 134.641H133.584L134.519 132.217L135.483 134.641Z" fill="#565F64" stroke="white" stroke-width="2" stroke-linejoin="round"/>
<path d="M156.97 124.59C156.52 124.59 156.125 124.89 156.006 125.325L153.841 133.2L151.649 125.322C151.528 124.889 151.134 124.59 150.685 124.59H145.336C144.784 124.59 144.336 125.037 144.336 125.59V142.249C144.336 142.801 144.784 143.249 145.336 143.249H148.637C149.189 143.249 149.636 142.802 149.637 142.25L149.642 136.816L151.143 142.504C151.259 142.943 151.656 143.249 152.11 143.249H155.541C155.995 143.249 156.391 142.944 156.508 142.505L158.024 136.782L158.029 142.25C158.03 142.802 158.478 143.249 159.029 143.249H162.33C162.882 143.249 163.33 142.801 163.33 142.249V125.59C163.33 125.037 162.882 124.59 162.33 124.59H156.97Z" fill="#43A2D9" stroke="white" stroke-width="2" stroke-linejoin="round"/>
<path d="M165.9 124.59C165.348 124.59 164.9 125.037 164.9 125.59V142.249C164.9 142.801 165.348 143.249 165.9 143.249H179.299C179.851 143.249 180.299 142.801 180.299 142.249V139.433C180.299 138.881 179.851 138.433 179.299 138.433H170.473V135.92H178.288C178.841 135.92 179.288 135.473 179.288 134.92V132.104C179.288 131.552 178.841 131.104 178.288 131.104H170.473V129.406H178.954C179.506 129.406 179.954 128.958 179.954 128.406V125.59C179.954 125.037 179.506 124.59 178.954 124.59H165.9Z" fill="#43A2D9" stroke="white" stroke-width="2" stroke-linejoin="round"/>
<path d="M182.978 134.028C181.723 132.944 181.055 131.565 181.055 129.943V129.941C181.058 128.881 181.386 127.846 181.996 126.979L181.999 126.975L181.999 126.975C182.662 126.042 183.588 125.329 184.66 124.928L182.978 134.028ZM182.978 134.028C182.994 134.043 183.01 134.057 183.026 134.071C183.982 134.886 185.511 135.481 187.446 135.938C188.943 136.292 189.832 136.519 190.188 136.641C190.211 136.649 190.234 136.655 190.257 136.661C190.555 136.74 190.83 136.89 191.058 137.097C191.122 137.183 191.156 137.289 191.154 137.397L191.154 137.42C191.154 137.662 191.059 137.929 190.664 138.242C190.335 138.502 189.736 138.713 188.704 138.712H188.703C187.778 138.712 187.167 138.493 186.759 138.163L186.759 138.162C186.366 137.844 186.029 137.282 185.846 136.335C185.749 135.829 185.284 135.481 184.771 135.529L181.298 135.854C181.029 135.879 180.781 136.013 180.611 136.224C180.442 136.435 180.366 136.706 180.399 136.975C180.659 139.028 181.467 140.699 182.899 141.867C184.334 143.038 186.304 143.55 188.665 143.55C190.272 143.55 191.682 143.339 192.86 142.876C194.017 142.445 195.012 141.667 195.709 140.648L195.709 140.648L195.715 140.639C196.344 139.696 196.694 138.595 196.723 137.462C196.753 136.329 196.461 135.211 195.882 134.237C195.874 134.223 195.865 134.209 195.856 134.195C195.274 133.317 194.465 132.612 193.515 132.155C193.05 131.924 192.477 131.703 191.804 131.491L195.239 131.378C195.505 131.37 195.756 131.255 195.938 131.061C196.119 130.866 196.215 130.608 196.206 130.342C196.138 128.533 195.438 127.022 194.089 125.902C192.725 124.77 190.8 124.286 188.483 124.282C187.179 124.251 185.881 124.47 184.66 124.928L182.978 134.028ZM190.651 130.67C190.692 130.903 190.812 131.105 190.979 131.25C190.512 131.123 190.006 130.999 189.464 130.878C188.62 130.69 187.956 130.509 187.461 130.339C186.94 130.16 186.694 130.021 186.612 129.955C186.596 129.942 186.579 129.929 186.562 129.917C186.53 129.894 186.503 129.863 186.484 129.827C186.465 129.792 186.456 129.752 186.455 129.712H186.455L186.455 129.704C186.455 129.668 186.463 129.633 186.48 129.602L185.654 129.155L186.48 129.602C186.497 129.571 186.522 129.544 186.552 129.525C186.564 129.517 186.577 129.509 186.589 129.501C186.938 129.257 187.513 129.076 188.426 129.076C189.322 129.076 189.811 129.251 190.058 129.439C190.287 129.613 190.526 129.961 190.651 130.67Z" fill="#43A2D9" stroke="white" stroke-width="2" stroke-linejoin="round"/>
<path d="M197.498 129.406H201.721V142.249C201.721 142.801 202.169 143.249 202.721 143.249H206.291C206.843 143.249 207.291 142.801 207.291 142.249V129.406H211.487C212.04 129.406 212.487 128.958 212.487 128.406V125.59C212.487 125.037 212.04 124.59 211.487 124.59H197.498C196.946 124.59 196.498 125.037 196.498 125.59V128.406C196.498 128.958 196.946 129.406 197.498 129.406Z" fill="#43A2D9" stroke="white" stroke-width="2" stroke-linejoin="round"/>
<path d="M213.799 124.59C213.247 124.59 212.799 125.037 212.799 125.59V142.249C212.799 142.801 213.247 143.249 213.799 143.249H227.198C227.75 143.249 228.198 142.801 228.198 142.249V139.433C228.198 138.881 227.75 138.433 227.198 138.433H218.37V135.92H226.187C226.739 135.92 227.187 135.473 227.187 134.92V132.104C227.187 131.552 226.739 131.104 226.187 131.104H218.37V129.406H226.853C227.405 129.406 227.853 128.958 227.853 128.406V125.59C227.853 125.037 227.405 124.59 226.853 124.59H213.799Z" fill="#43A2D9" stroke="white" stroke-width="2" stroke-linejoin="round"/>
<path d="M122.003 67.7209C122.305 68.0233 122.766 68.1002 123.15 67.9123L144.847 57.2942L144.847 57.2941C145.688 56.8819 147.208 55.7626 148.689 54.1863C150.183 52.5973 151.723 50.4549 152.506 47.9524C154.003 43.171 154.51 34.2641 147.021 28.9214C143.302 26.2685 139.011 25.5761 135.192 26.0365C131.398 26.4939 127.963 28.1033 125.941 30.2007C124.029 32.1846 122.396 34.5236 121.364 37.6975C120.335 40.8596 119.921 44.7922 120.356 49.9433C120.782 54.9983 121.121 59.284 121.353 62.3056C121.469 63.8164 121.559 65.0112 121.619 65.828C121.649 66.2365 121.672 66.5504 121.688 66.7622L121.705 67.0022L121.709 67.0629L121.71 67.0781L121.711 67.0819L121.711 67.0828L121.711 67.083L122.708 67.0119L121.711 67.0831C121.728 67.3229 121.831 67.5486 122.001 67.7187L122.003 67.7209ZM132.491 42.9652C132.301 42.0559 132.385 41.1109 132.731 40.249C133.078 39.3864 133.672 38.6457 134.439 38.1201C135.206 37.5946 136.111 37.3077 137.041 37.2957C137.97 37.2837 138.882 37.5471 139.663 38.0526C140.443 38.5582 141.056 39.2833 141.425 40.1367C141.793 40.99 141.901 41.9334 141.735 42.848C141.568 43.7626 141.135 44.6075 140.489 45.2762C139.844 45.9444 139.015 46.4069 138.108 46.6054C136.881 46.8667 135.6 46.6302 134.546 45.9477C133.493 45.2651 132.754 44.1924 132.491 42.9652Z" fill="#E7A24F" stroke="white" stroke-width="2" stroke-linejoin="round"/>
<path d="M135.79 17.9968L135.789 17.9968L135.788 18.0109C135.693 19.0731 135.913 20.1398 136.421 21.0776C136.929 22.0154 137.702 22.7827 138.643 23.2835C139.585 23.7844 140.653 23.9965 141.715 23.8935C142.776 23.7905 143.784 23.3769 144.612 22.7043C145.439 22.0318 146.05 21.1301 146.368 20.1122C146.686 19.0942 146.697 18.0051 146.4 16.981C146.102 15.9569 145.509 15.0432 144.695 14.3543C143.881 13.6653 142.882 13.2316 141.823 13.1073L141.823 13.1072L141.809 13.1058C140.362 12.9568 138.915 13.3882 137.787 14.3054C136.658 15.2225 135.94 16.5503 135.79 17.9968Z" fill="#E7A24F" stroke="white" stroke-width="2" stroke-linejoin="round"/>
<path d="M146.8 21.6766L146.8 21.6766L146.794 21.6844C146.302 22.3531 146.019 23.1521 145.98 23.9812C145.941 24.8102 146.147 25.6324 146.573 26.3446C146.999 27.0568 147.626 27.6273 148.376 27.9845L148.806 27.0819L148.376 27.9845C149.125 28.3418 149.963 28.4698 150.784 28.3526C151.606 28.2354 152.375 27.8781 152.994 27.3257C153.614 26.7732 154.056 26.0502 154.266 25.2472C154.476 24.4443 154.445 23.5971 154.175 22.8121C153.906 22.0271 153.41 21.3392 152.751 20.8346L152.751 20.8345L152.744 20.8287C152.298 20.4941 151.79 20.2506 151.25 20.1121C150.71 19.9736 150.148 19.9428 149.596 20.0215C149.044 20.1003 148.513 20.287 148.033 20.5709C147.553 20.8549 147.134 21.2306 146.8 21.6766Z" fill="#E7A24F" stroke="white" stroke-width="2" stroke-linejoin="round"/>
<path d="M153.27 28.281L153.255 28.2953C152.763 28.7549 152.417 29.3489 152.26 30.0034C152.104 30.658 152.143 31.3441 152.373 31.9766C152.603 32.6091 153.014 33.1601 153.554 33.561C154.095 33.9619 154.741 34.1951 155.413 34.2315C156.085 34.268 156.753 34.1061 157.334 33.7661C157.915 33.426 158.383 32.9227 158.68 32.3188C158.977 31.7149 159.09 31.037 159.005 30.3694C158.92 29.7018 158.641 29.0738 158.202 28.5637L158.188 28.5478C157.571 27.8608 156.706 27.4468 155.784 27.3967C154.862 27.3467 153.958 27.6648 153.27 28.281Z" fill="#E7A24F" stroke="white" stroke-width="2" stroke-linejoin="round"/>
<path d="M157.7 34.6119C157.084 34.5654 156.468 34.7024 155.931 35.0058C155.393 35.3092 154.957 35.7653 154.679 36.3163C154.4 36.8673 154.291 37.4886 154.366 38.1015C154.44 38.7144 154.695 39.2915 155.098 39.7596C155.5 40.2278 156.033 40.566 156.628 40.7316C157.222 40.8971 157.853 40.8825 158.439 40.6897C159.026 40.4968 159.542 40.1343 159.923 39.6481C160.303 39.1618 160.531 38.5736 160.577 37.9579C160.639 37.1327 160.371 36.3167 159.831 35.6893C159.292 35.0618 158.525 34.6743 157.7 34.6119Z" fill="#E7A24F" stroke="white" stroke-width="2" stroke-linejoin="round"/>
<path d="M157.662 41.6296C157.269 41.3653 156.806 41.2239 156.331 41.2234C155.852 41.2229 155.384 41.3662 154.988 41.6348C154.591 41.9033 154.285 42.2848 154.107 42.7296C153.93 43.1745 153.89 43.6624 153.994 44.1301C154.097 44.5977 154.338 45.0236 154.686 45.3526C155.034 45.6816 155.473 45.8985 155.946 45.9753C156.418 46.0521 156.903 45.9851 157.337 45.7832C157.767 45.5832 158.128 45.2599 158.374 44.8546C158.703 44.3315 158.813 43.6999 158.679 43.0962C158.546 42.4925 158.181 41.9657 157.662 41.6296Z" fill="#E7A24F" stroke="white" stroke-width="2" stroke-linejoin="round"/>
<path d="M88.009 56.0888L88.9984 56.2338L88.9985 56.2336L88.9986 56.2327L88.9991 56.229L89.0014 56.2139L89.0102 56.1536L89.0454 55.9155C89.0765 55.7054 89.1227 55.3939 89.1832 54.9887C89.3042 54.1783 89.4823 52.9932 89.7107 51.4951C90.1675 48.4986 90.8252 44.2501 91.6288 39.2427C91.6316 39.2252 91.6339 39.2076 91.6358 39.1899C92.447 34.1095 92.3268 30.1708 91.5398 26.9496C90.7476 23.7071 89.2942 21.2514 87.5357 19.1299C85.6764 16.8868 82.371 15.0271 78.6214 14.2883C74.8482 13.5449 70.5176 13.9146 66.6112 16.2778C58.7424 21.0381 58.5846 29.9587 59.7198 34.8358C60.314 37.3885 61.6896 39.641 63.061 41.3386C64.42 43.0208 65.8529 44.2528 66.6682 44.7278C66.6688 44.7282 66.6694 44.7286 66.6701 44.7289L87.503 56.9513C87.7899 57.1196 88.1416 57.1343 88.4415 56.9904C88.7414 56.8465 88.9501 56.563 88.9984 56.2339L88.009 56.0888ZM80.0556 31.3532C79.7818 32.2406 79.2518 33.0273 78.5321 33.6144C77.8118 34.202 76.9337 34.5632 76.0084 34.6527C75.0831 34.7421 74.152 34.5557 73.3324 34.1169C72.5129 33.6781 71.8415 33.0066 71.403 32.187C70.9644 31.3674 70.7782 30.4363 70.8678 29.511C70.9574 28.5857 71.3189 27.7076 71.9066 26.9874C72.4944 26.2672 73.2821 25.737 74.1707 25.4637C75.0584 25.1906 76.007 25.1862 76.8973 25.4508C78.0984 25.8153 79.1057 26.6416 79.6979 27.7483C80.2901 28.8551 80.4188 30.1517 80.0556 31.3532Z" fill="#E7A24F" stroke="white" stroke-width="2" stroke-linejoin="round"/>
<path d="M73.4097 11.9612C73.4183 11.961 73.4269 11.9606 73.4355 11.9602C74.8879 11.884 76.2505 11.2342 77.2239 10.1537C78.1961 9.07467 78.7006 7.65422 78.6271 6.20386C78.5678 4.76758 77.9412 3.41339 76.8845 2.43852C76.3606 1.95518 75.7467 1.57976 75.0777 1.33369C74.4088 1.08762 73.6979 0.975725 72.9857 1.00439C71.5473 1.06229 70.1908 1.68921 69.2146 2.74723C68.2398 3.80385 67.724 5.204 67.7803 6.64037C67.8235 8.0906 68.4394 9.46475 69.4934 10.462C70.5488 11.4606 71.9572 11.9998 73.4097 11.9612Z" fill="#E7A24F" stroke="white" stroke-width="2" stroke-linejoin="round"/>
<path d="M66.16 14.9541C66.8778 14.5034 67.4455 13.8495 67.791 13.0754C68.137 12.2999 68.2444 11.4389 68.0993 10.6022C67.9542 9.76544 67.5632 8.99085 66.9762 8.37713C66.3893 7.76342 65.6328 7.33839 64.8034 7.1562C63.9739 6.97402 63.109 7.04293 62.3189 7.35416C61.5287 7.6654 60.8491 8.20485 60.3667 8.90377C59.8843 9.60268 59.621 10.4294 59.6102 11.2786C59.5995 12.1262 59.8409 12.9578 60.3037 13.6678C60.9106 14.6138 61.868 15.2805 62.9659 15.5217C64.0638 15.7628 65.2125 15.5587 66.16 14.9541Z" fill="#E7A24F" stroke="white" stroke-width="2" stroke-linejoin="round"/>
<path d="M56.1341 14.5399L56.6781 15.379L56.1341 14.5399C55.5423 14.9236 55.0788 15.4756 54.8032 16.1249C54.5276 16.7741 54.4526 17.491 54.5877 18.1832C54.7222 18.8722 55.0587 19.5055 55.5544 20.0025C56.1946 20.6629 57.0702 21.0434 57.9901 21.0608C58.91 21.0782 59.7994 20.731 60.4641 20.0953C60.9782 19.6174 61.3384 18.9973 61.4989 18.3139C61.66 17.6272 61.6121 16.908 61.3613 16.2488C61.1104 15.5896 60.6681 15.0205 60.0913 14.6147C59.5144 14.2089 58.8293 13.9849 58.1241 13.9716C57.4189 13.9582 56.7259 14.1562 56.1341 14.5399Z" fill="#E7A24F" stroke="white" stroke-width="2" stroke-linejoin="round"/>
<path d="M58.6615 24.2743C58.6615 23.6569 58.4785 23.0534 58.1355 22.5401C57.7925 22.0268 57.305 21.6267 56.7346 21.3904C56.1643 21.1542 55.5367 21.0924 54.9312 21.2128C54.3257 21.3333 53.7695 21.6305 53.3329 22.0671C52.8964 22.5036 52.5991 23.0598 52.4787 23.6653C52.3582 24.2708 52.4201 24.8984 52.6563 25.4688C52.8926 26.0391 53.2926 26.5266 53.806 26.8696C54.3193 27.2126 54.9228 27.3957 55.5401 27.3957C55.95 27.3957 56.3559 27.3149 56.7346 27.1581C57.1133 27.0012 57.4574 26.7713 57.7473 26.4814C58.0372 26.1916 58.2671 25.8475 58.4239 25.4688C58.5808 25.0901 58.6615 24.6842 58.6615 24.2743Z" fill="#E7A24F" stroke="white" stroke-width="2" stroke-linejoin="round"/>
<path d="M58.2649 29.3322C58.2458 29.2814 58.2224 29.232 58.1949 29.1844C57.9694 28.7945 57.6348 28.479 57.2324 28.2768C56.8299 28.0746 56.3771 27.9945 55.9297 28.0464C55.4823 28.0982 55.0598 28.2798 54.7142 28.5686C54.3687 28.8575 54.1151 29.2411 53.9848 29.6723C53.8545 30.1034 53.853 30.5632 53.9807 30.9952C54.1083 31.4271 54.3595 31.8123 54.7033 32.1033C55.047 32.3943 55.4684 32.5785 55.9155 32.6331L56.0367 31.6405L55.9155 32.6331C56.3625 32.6877 56.8158 32.6104 57.2196 32.4107C57.2304 32.4054 57.2411 32.3998 57.2518 32.3941C57.799 32.0982 58.2068 31.5975 58.3857 31.0017C58.552 30.4478 58.5079 29.8536 58.2649 29.3322Z" fill="#E7A24F" stroke="white" stroke-width="2" stroke-linejoin="round"/>
<path d="M80.0794 8.0651C79.8586 7.87513 79.7317 7.59838 79.7317 7.30716C79.7317 7.18344 79.7415 6.7106 79.7507 6.28954C79.7554 6.0744 79.7601 5.86618 79.7637 5.71179L79.7679 5.52633L79.7691 5.47479L79.7695 5.46124L79.7695 5.45776L79.7696 5.45688L79.7696 5.45665L79.7696 5.45659L80.7693 5.47995M80.0794 8.0651L81.9735 69.4588C81.9844 69.4554 81.9952 69.4517 82.006 69.4479C87.2354 67.5937 91.9169 65.2058 95.2865 63.2856C96.9729 62.3246 98.3347 61.4785 99.2769 60.8712C99.6092 60.657 99.8895 60.4724 100.113 60.323C100.14 60.3387 100.168 60.3544 100.197 60.3699C100.763 60.6773 101.6 60.9113 102.831 60.9113C104.279 60.9113 105.442 60.1761 106.185 59.5395C106.484 59.284 106.732 59.0299 106.924 58.815C108.747 59.4137 111.679 60.3039 114.229 61.066C115.623 61.4826 116.908 61.8624 117.844 62.1381C118.312 62.276 118.693 62.3878 118.958 62.4652L119.262 62.5544L119.342 62.5777L119.362 62.5836L119.368 62.5851L119.369 62.5855L119.369 62.5856C119.369 62.5857 119.369 62.5857 119.649 61.6257L119.369 62.5857C119.675 62.6749 120.005 62.6131 120.258 62.4194C120.511 62.2256 120.656 61.9231 120.649 61.6047L120.614 59.9234C120.604 59.4703 120.291 59.0803 119.851 58.9729C117.031 58.2855 113.898 57.3601 111.463 56.6037C110.246 56.2261 109.208 55.8916 108.473 55.6517C108.297 55.5941 108.138 55.542 107.999 55.496C107.926 54.5288 107.557 53.704 107.2 53.1118C107.025 52.8202 106.845 52.5726 106.69 52.3771C109.061 46.4556 110.297 40.7569 110.942 36.4996C111.276 34.2997 111.452 32.4798 111.545 31.2064C111.585 30.6635 111.609 30.2197 111.625 29.8878C116.269 28.2332 121.2 26.4685 125.027 25.0966C127.029 24.3789 128.73 23.7687 129.93 23.338L131.329 22.8353L131.701 22.7018L131.797 22.6674L131.821 22.6587L131.827 22.6565L131.829 22.6559L131.829 22.6558C131.829 22.6558 131.829 22.6557 131.491 21.7147L131.829 22.6557C132.086 22.5633 132.294 22.3697 132.405 22.1199C132.516 21.8701 132.52 21.5858 132.415 21.3332L131.752 19.725C131.65 19.4793 131.455 19.2841 131.21 19.1824C130.964 19.0808 130.688 19.0812 130.443 19.1834C126.525 20.8158 121.551 22.5806 117.543 23.941C115.541 24.6203 113.786 25.197 112.531 25.6039C112.257 25.693 112.006 25.7739 111.782 25.846C111.537 21.0084 110.172 14.525 103.634 8.61381C99.9167 5.25284 94.0502 4.28079 89.329 4.08758C86.9342 3.98957 84.763 4.08999 83.1913 4.21451C82.4046 4.27683 81.7659 4.34538 81.3219 4.39864C81.0998 4.42528 80.9263 4.44811 80.8071 4.46446C80.7475 4.47264 80.7015 4.4792 80.6698 4.4838L80.633 4.4892L80.6229 4.49072L80.6199 4.49118L80.6189 4.49132C80.6185 4.49138 80.6183 4.49142 80.7693 5.47995M80.0794 8.0651C80.3001 8.25507 80.5927 8.33938 80.8806 8.296M80.0794 8.0651L80.8806 8.296M80.7693 5.47995L79.7696 5.45657C79.7809 4.97158 80.1387 4.56469 80.6183 4.49142L80.7693 5.47995ZM102.822 51.7508L102.83 50.7508L102.827 50.7508C100.802 50.7402 99.4789 51.6309 98.6976 52.7581C97.9558 53.8284 97.7384 55.0514 97.7274 55.7772L97.7273 55.792C97.727 56.3941 97.8143 56.9915 97.985 57.5658C92.5053 61.4477 85.6297 64.0843 81.8408 65.5372C81.1414 65.8054 80.5473 66.0333 80.0864 66.2212C78.4912 66.8717 77.3474 67.6955 76.6022 68.67C75.8477 69.6568 75.5508 70.7351 75.5508 71.7926C75.5508 72.9934 76.2374 75.2094 78.8402 77.9108C81.4538 80.6234 86.0428 83.8768 93.9989 87.1833C101.926 90.4777 108.202 92.3246 112.5 93.4276C114.053 93.8262 115.356 94.1296 116.369 94.3654C116.752 94.4545 117.093 94.5339 117.39 94.6052C117.838 94.7124 118.17 94.7972 118.404 94.867C118.456 95.0552 118.524 95.2475 118.602 95.4319C118.788 95.8722 119.072 96.3809 119.474 96.8676C120.291 97.8554 121.612 98.7629 123.525 98.7629C125.371 98.7629 126.699 98.0435 127.543 96.9827C128.357 95.9596 128.657 94.701 128.657 93.6682C128.657 92.6318 128.348 91.361 127.542 90.3231C126.706 89.2473 125.387 88.4913 123.549 88.4807C121.665 88.4699 120.38 89.3404 119.59 90.1943C119.266 90.5444 119.023 90.8933 118.849 91.1823C115.415 90.6612 111.948 90.0785 97.968 84.8347C90.5581 82.0553 85.8331 79.0687 82.9709 76.576C81.5391 75.3289 80.5833 74.2142 79.989 73.3208C79.3726 72.3942 79.2065 71.7988 79.1981 71.5757C79.1915 71.3999 79.2581 71.1907 79.4765 70.9298C79.7001 70.6628 80.034 70.4036 80.4227 70.1696C80.8045 69.9399 81.1964 69.7599 81.4978 69.6364C81.647 69.5752 81.7703 69.5294 81.8544 69.4995C81.8964 69.4846 81.9284 69.4737 81.9486 69.467L81.9699 69.46L81.9721 69.4592L102.822 51.7508ZM102.822 51.7508C102.83 50.7508 102.83 50.7508 102.83 50.7508H102.83L102.83 50.7509L102.831 50.7509L102.834 50.7509L102.846 50.751L102.886 50.7515C102.92 50.752 102.968 50.7528 103.027 50.7542C103.144 50.7569 103.305 50.7617 103.478 50.7703C103.521 50.7724 103.566 50.7749 103.611 50.7776L102.822 51.7508ZM80.8806 8.296C88.3084 7.17723 93.4344 7.99868 96.6672 9.06101M80.8806 8.296L96.6672 9.06101M96.6672 9.06101C98.2861 9.59299 99.4387 10.1881 100.175 10.6389M96.6672 9.06101L100.175 10.6389M100.175 10.6389C100.543 10.8644 100.807 11.0542 100.974 11.1823M100.175 10.6389L100.974 11.1823M100.974 11.1823C101.058 11.2464 101.117 11.2951 101.152 11.3252M100.974 11.1823L101.152 11.3252M101.152 11.3252C101.17 11.3402 101.182 11.3506 101.188 11.3559M101.152 11.3252L101.188 11.3559M101.188 11.3559L101.191 11.3592M101.188 11.3559L101.191 11.3592M101.191 11.3592L101.19 11.358M101.191 11.3592L101.19 11.358M101.19 11.358L101.189 11.3572M101.19 11.358L101.189 11.3572M101.189 11.3572C101.189 11.3568 101.188 11.3563 101.871 10.6253L101.189 11.3572ZM121.85 93.6255L121.85 93.6091C121.838 93.2766 121.926 92.9482 122.103 92.666C122.279 92.3838 122.536 92.1608 122.84 92.0254C123.144 91.89 123.481 91.8486 123.809 91.9063C124.136 91.964 124.439 92.1183 124.679 92.3494C124.918 92.5805 125.083 92.8778 125.152 93.2032C125.222 93.5287 125.192 93.8674 125.068 94.1759C124.943 94.4845 124.729 94.7488 124.454 94.935L125.013 95.7638L124.454 94.935C124.178 95.1212 123.853 95.2208 123.52 95.221L123.504 95.2212C123.073 95.2285 122.657 95.0646 122.347 94.7654C122.037 94.4662 121.858 94.0562 121.85 93.6255ZM101.378 56.3916C101.301 56.2006 101.261 55.9963 101.262 55.7903C101.268 55.4841 101.363 55.1862 101.536 54.9337C101.71 54.6803 101.955 54.484 102.241 54.3695L101.868 53.4415L102.241 54.3695C102.526 54.255 102.839 54.2273 103.14 54.2901C103.441 54.3528 103.717 54.5031 103.932 54.7221C104.148 54.9411 104.294 55.2189 104.353 55.5208C104.411 55.8226 104.379 56.135 104.26 56.4186C104.141 56.7022 103.942 56.9444 103.686 57.1148C103.431 57.2845 103.132 57.3754 102.825 57.3761C102.619 57.3742 102.416 57.332 102.226 57.2518C102.035 57.1712 101.862 57.0537 101.716 56.9061C101.571 56.7585 101.456 56.5837 101.378 56.3916Z" fill="#565F64" stroke="white" stroke-width="2" stroke-linejoin="round"/>
<path d="M165.465 62.9948C162.696 64.2472 158.905 64.7044 155.132 64.8907C155.108 64.8902 155.085 64.8905 155.061 64.8916C151.369 65.0688 146.093 64.449 141.681 63.7682C139.488 63.4297 137.53 63.0798 136.12 62.8145C135.415 62.6819 134.848 62.5705 134.458 62.4924C134.263 62.4533 134.112 62.4226 134.01 62.4017L133.895 62.378L133.866 62.372L133.859 62.3705L133.857 62.3701L133.857 62.3701L133.652 63.3488L133.857 62.3701C133.639 62.3242 133.411 62.3528 133.211 62.4513L131.127 63.4755C130.761 63.6553 130.541 64.0392 130.571 64.4458C130.6 64.8523 130.874 65.2002 131.262 65.325C134.746 66.4453 140.195 67.283 144.843 67.8169C147.18 68.0853 149.34 68.2796 150.984 68.3948C151.805 68.4524 152.504 68.4906 153.035 68.5083C153.3 68.5171 153.53 68.521 153.716 68.5191C153.854 68.5178 154.018 68.5134 154.163 68.4939C160.502 68.0906 165.159 67.2916 168.275 65.463C169.868 64.5285 171.068 63.3209 171.88 61.7715C172.686 60.2341 173.079 58.419 173.155 56.3085C173.312 51.9793 171.037 46.9823 168.853 43.194C167.746 41.2725 166.631 39.6095 165.793 38.427C165.374 37.8352 165.023 37.3624 164.776 37.0363C164.653 36.8732 164.555 36.7467 164.488 36.6603C164.454 36.617 164.428 36.5838 164.41 36.561L164.389 36.5347L164.383 36.5275L164.382 36.5254L164.381 36.5248C164.381 36.5245 164.381 36.5244 163.599 37.1484L164.381 36.5244C164.212 36.3136 163.966 36.1798 163.698 36.1533C163.429 36.1268 163.161 36.2098 162.955 36.3836L161.566 37.5538C161.145 37.9088 161.09 38.5376 161.443 38.9602C164.401 42.4969 169.059 49.5335 169.55 56.6704C169.664 58.3344 169.286 59.5931 168.602 60.5777C167.907 61.5776 166.842 62.3717 165.465 62.9948Z" fill="#565F64" stroke="white" stroke-width="2" stroke-linejoin="round"/>
<path d="M42.4597 34.8183L42.4597 34.8176C42.4669 34.2012 42.6495 33.2437 43.0112 32.0633C43.3671 30.9015 43.8767 29.5872 44.4921 28.2797C45.7436 25.6204 47.3517 23.1616 48.8688 21.9968C49.0993 21.8199 49.2414 21.5514 49.2582 21.2613C49.2749 20.9711 49.1646 20.6881 48.956 20.4858L47.7128 19.2802C47.517 19.0903 47.2522 18.9886 46.9796 18.9987C46.7071 19.0088 46.4505 19.1298 46.2693 19.3336L47.0166 19.998C46.2693 19.3336 46.2691 19.3338 46.2689 19.334L46.2683 19.3346L46.2667 19.3365L46.2614 19.3425L46.2428 19.3637C46.2268 19.3819 46.2039 19.4082 46.1744 19.4423C46.1156 19.5105 46.0307 19.6099 45.9236 19.7379C45.7096 19.994 45.4068 20.3652 45.0463 20.8316C44.3261 21.7632 43.371 23.0809 42.4328 24.6243C40.5877 27.6593 38.6795 31.7722 39.0011 35.5846C39.1637 37.5117 39.8233 39.1124 40.998 40.3749C42.1604 41.6242 43.7598 42.4703 45.6844 43.0234C49.4991 44.1196 54.8619 44.1372 61.471 43.5914C61.8324 43.5616 62.1492 43.3385 62.2992 43.0084C62.4492 42.6783 62.4087 42.2929 62.1934 42.0012L61.0608 40.4659C60.8446 40.1728 60.4861 40.0205 60.125 40.0683L60.1244 40.0683L60.1209 40.0688L60.1058 40.0707L60.0435 40.0787C59.9879 40.0857 59.905 40.0959 59.7972 40.1086C59.5818 40.1341 59.2675 40.1696 58.8757 40.2093C58.0917 40.2887 57.0006 40.3845 55.773 40.4498C53.2882 40.582 50.3517 40.5827 48.2585 40.1207C46.1355 39.6522 44.6751 38.9019 43.7608 38.0056C42.8698 37.1322 42.4442 36.071 42.4597 34.8183Z" fill="#565F64" stroke="white" stroke-width="2" stroke-linejoin="round"/>
</svg>
