<svg width="230" height="145" viewBox="0 0 230 145" fill="none" xmlns="http://www.w3.org/2000/svg"><path d="M109.814 124.59a1 1 0 00-1 1v16.659a1 1 0 001 1h3.301a1 1 0 001-1v-7.589l5.307 8.135c.185.283.5.454.838.454h3.568a1 1 0 001-1V125.59a1 1 0 00-1-1h-3.3a1 1 0 00-1 1v7.791l-5.42-8.336a1 1 0 00-.838-.455h-3.456z" fill="#565F64" stroke="#fff" stroke-width="2" stroke-linejoin="round"/><path d="M101.191 134.01a.757.757 0 00.003-.068c0-2.917-.844-5.322-2.641-7.081-1.78-1.742-4.129-2.572-6.934-2.572a11.213 11.213 0 00-4.168.728l-.022.009a7.968 7.968 0 00-2.6 1.715 8.804 8.804 0 00-1.847 2.576h0l-.002.005c-.617 1.324-.902 2.904-.904 4.701v.001c0 2.859.841 5.226 2.623 6.973l.7-.715c1.549 1.518 3.635 2.275 6.26 2.272v1h.002c2.797 0 5.137-.829 6.909-2.569 1.772-1.74 2.611-4.109 2.621-6.975zm-9.55-4.837h.003c1.242 0 2.142.386 2.81 1.097.02.021.042.041.063.06.61.686 1 1.803 1 3.531 0 1.785-.42 2.944-1.085 3.659a3.955 3.955 0 01-4.312.843 3.967 3.967 0 01-1.275-.854c-.683-.729-1.104-1.874-1.105-3.601 0-1.778.418-2.923 1.077-3.623.686-.728 1.594-1.115 2.824-1.112zM76.75 143.249a1 1 0 001-1v-12.843h4.198a1 1 0 001-1v-2.816a1 1 0 00-1-1H67.96a1 1 0 00-1 1v2.816a1 1 0 001 1h4.22v12.843a1 1 0 001 1h3.57zm-10.61-2.546l.044-.062a6.006 6.006 0 00.142-6.444 5.856 5.856 0 00-2.341-2.04 11.763 11.763 0 00-1.68-.654l3.395-.112a.998.998 0 00.966-1.036c-.067-1.809-.768-3.32-2.117-4.44-1.362-1.131-3.284-1.62-5.598-1.629a10.207 10.207 0 00-3.832.655 5.73 5.73 0 00-2.66 2.047h0l-.004.006a5.168 5.168 0 00-.932 2.951v.002c0 1.642.684 3.034 1.969 4.125.956.814 2.485 1.409 4.42 1.865 1.496.355 2.385.581 2.741.703a.825.825 0 00.069.021c.298.079.573.229.801.436a.483.483 0 01.096.3v.023c0 .242-.095.509-.49.822-.329.259-.93.471-1.969.469h-.001c-.924 0-1.536-.219-1.944-.549h0c-.393-.318-.73-.881-.912-1.828a1.001 1.001 0 00-1.076-.806l-3.462.328a.999.999 0 00-.898 1.121c.259 2.052 1.067 3.724 2.499 4.892 1.435 1.171 3.406 1.683 5.766 1.683 1.607 0 3.017-.211 4.196-.674a5.983 5.983 0 002.811-2.175zm-5.028-10.02a1 1 0 00.306.561 32.757 32.757 0 00-1.484-.364 19.317 19.317 0 01-2.004-.539c-.52-.179-.767-.318-.849-.385a.995.995 0 00-.05-.037.25.25 0 01-.077-.09.25.25 0 01-.03-.115h0v-.008a.207.207 0 01.097-.179l.034-.022c.343-.237.915-.416 1.832-.416.896 0 1.385.175 1.631.363.23.174.468.522.594 1.231zm-11.355 7.75h-8.826v-2.513h7.818a1 1 0 001-1v-2.816a1 1 0 00-1-1H40.93v-1.698h8.481a1 1 0 001-1v-2.816a1 1 0 00-1-1h-13.05a1 1 0 00-1 1v16.659a1 1 0 001 1h13.396a1 1 0 001-1v-2.816a1 1 0 00-1-1zm-17.17 4.816a1 1 0 001-1V125.59a1 1 0 00-1-1h-3.298a1 1 0 00-1 1v7.791l-5.42-8.336a1 1 0 00-.838-.455h-3.456a1 1 0 00-1 1v16.659a1 1 0 001 1h3.3a1 1 0 001-1v-7.589l5.308 8.135a1 1 0 00.838.454h3.566zm-17.409-10.304a1 1 0 001-1v-2.513a1 1 0 00-1-1h-.4l.691-3.214a1.001 1.001 0 00-.977-1.21H11.68a1 1 0 00-.979.795l-.758 3.629h-.535l.693-3.214a.999.999 0 00-.978-1.21H6.409a1 1 0 00-.978.789l-.785 3.635H2a1 1 0 00-1 1v2.513a1 1 0 001 1h1.672l-.291 1.351H2a1 1 0 00-1 1v2.513a1 1 0 001 1h.407l-.694 3.213a1.002 1.002 0 00.977 1.212h2.714a1 1 0 00.978-.789l.785-3.636h.618l-.672 3.22a1 1 0 00.98 1.205h2.709a1 1 0 00.978-.791l.78-3.634h2.626a1 1 0 001-1v-2.513a1 1 0 00-1-1h-1.665l.29-1.351h1.367zm-6.457 1.351h-.583l.288-1.351h.576l-.281 1.351zm94.127-9.706a1 1 0 00-1 1v16.659a1 1 0 001 1h3.571a1 1 0 001-1V125.59a1 1 0 00-1-1h-3.571z" fill="#E7A24F" stroke="#fff" stroke-width="2" stroke-linejoin="round"/><path d="M132.648 124.59a.999.999 0 00-.925.619l-6.858 16.659a1 1 0 00.925 1.381h3.776a1 1 0 00.933-.64l1.217-3.152h5.717l1.27 3.165a1 1 0 00.928.627h3.847a.999.999 0 00.921-1.39l-7.063-16.66a1.002 1.002 0 00-.921-.609h-3.767zm2.835 10.051h-1.899l.935-2.424.964 2.424z" fill="#565F64" stroke="#fff" stroke-width="2" stroke-linejoin="round"/><path d="M156.97 124.59c-.45 0-.845.3-.964.735l-2.165 7.875-2.192-7.878a1 1 0 00-.964-.732h-5.349a1 1 0 00-1 1v16.659a1 1 0 001 1h3.301a1 1 0 001-.999l.005-5.434 1.501 5.688a1 1 0 00.967.745h3.431a1 1 0 00.967-.744l1.516-5.723.005 5.468a1 1 0 001 .999h3.301a1 1 0 001-1V125.59a1 1 0 00-1-1h-5.36zm8.93 0a1 1 0 00-1 1v16.659a1 1 0 001 1h13.399a1 1 0 001-1v-2.816a1 1 0 00-1-1h-8.826v-2.513h7.815a1 1 0 001-1v-2.816a1 1 0 00-1-1h-7.815v-1.698h8.481a1 1 0 001-1v-2.816a1 1 0 00-1-1H165.9zm17.078 9.438c-1.255-1.084-1.923-2.463-1.923-4.085v-.002a5.174 5.174 0 01.941-2.962l.003-.004h0a5.725 5.725 0 012.661-2.047l-1.682 9.1zm0 0l.048.043c.956.815 2.485 1.41 4.42 1.867 1.497.354 2.386.581 2.742.703a.896.896 0 00.069.02c.298.079.573.229.801.436a.488.488 0 01.096.3v.023c0 .242-.095.509-.49.822-.329.26-.928.471-1.96.47h-.001c-.925 0-1.536-.219-1.944-.549v-.001c-.393-.318-.73-.88-.913-1.827a.998.998 0 00-1.075-.806l-3.473.325a1.003 1.003 0 00-.899 1.121c.26 2.053 1.068 3.724 2.5 4.892 1.435 1.171 3.405 1.683 5.766 1.683 1.607 0 3.017-.211 4.195-.674a5.98 5.98 0 002.849-2.228h0l.006-.009a6.002 6.002 0 00.141-6.444 5.853 5.853 0 00-2.341-2.04 12.025 12.025 0 00-1.711-.664l3.435-.113a1 1 0 00.967-1.036c-.068-1.809-.768-3.32-2.117-4.44-1.364-1.132-3.289-1.616-5.606-1.62a10.196 10.196 0 00-3.823.646l-1.682 9.1zm7.673-3.358a.996.996 0 00.328.58 34.176 34.176 0 00-1.515-.372 19.28 19.28 0 01-2.003-.539c-.521-.179-.767-.318-.849-.384a.938.938 0 00-.05-.038.261.261 0 01-.107-.205h0v-.008c0-.036.008-.071.025-.102l-.826-.447.826.447a.213.213 0 01.072-.077l.037-.024c.349-.244.924-.425 1.837-.425.896 0 1.385.175 1.632.363.229.174.468.522.593 1.231zm6.847-1.264h4.223v12.843a1 1 0 001 1h3.57a1 1 0 001-1v-12.843h4.196a1 1 0 001-1v-2.816a1 1 0 00-1-1h-13.989a1 1 0 00-1 1v2.816a1 1 0 001 1zm16.301-4.816a1 1 0 00-1 1v16.659a1 1 0 001 1h13.399a1 1 0 001-1v-2.816a1 1 0 00-1-1h-8.828v-2.513h7.817a1 1 0 001-1v-2.816a1 1 0 00-1-1h-7.817v-1.698h8.483a1 1 0 001-1v-2.816a1 1 0 00-1-1h-13.054z" fill="#43A2D9" stroke="#fff" stroke-width="2" stroke-linejoin="round"/><path d="M122.003 67.72a1 1 0 001.147.192l21.697-10.618h0c.841-.412 2.361-1.531 3.842-3.108 1.494-1.589 3.034-3.731 3.817-6.234 1.497-4.781 2.004-13.688-5.485-19.03-3.719-2.654-8.01-3.346-11.829-2.886-3.794.458-7.229 2.067-9.251 4.165-1.912 1.984-3.545 4.323-4.577 7.496-1.029 3.163-1.443 7.095-1.008 12.246a1687.98 1687.98 0 011.263 15.885l.069.934.017.24.004.06.001.016.001.004h0v.001l.997-.071-.997.071a1 1 0 00.29.636l.002.002zm10.488-24.755a4.707 4.707 0 014.55-5.67 4.713 4.713 0 014.384 2.842 4.712 4.712 0 01-3.317 6.469 4.738 4.738 0 01-5.617-3.64zm3.299-24.968h-.001l-.001.014a5.424 5.424 0 106.035-4.904h0l-.014-.001a5.485 5.485 0 00-6.019 4.89zm11.01 3.68h0l-.006.007a4.209 4.209 0 00-.221 4.66 4.21 4.21 0 001.803 1.64l.43-.902-.43.902a4.211 4.211 0 005.89-2.737 4.21 4.21 0 00-1.515-4.412h0l-.007-.006a4.25 4.25 0 00-4.711-.258c-.48.284-.899.66-1.233 1.106zm6.47 6.604l-.015.014a3.433 3.433 0 104.947.269l-.014-.016a3.486 3.486 0 00-4.918-.267zm4.43 6.331a3.12 3.12 0 00-3.334 3.49 3.119 3.119 0 005.557 1.547 3.124 3.124 0 00-2.223-5.037zm-.038 7.018a2.389 2.389 0 00-2.674.005 2.394 2.394 0 00-.994 2.495 2.39 2.39 0 004.38.725 2.349 2.349 0 00-.712-3.225zM88.009 56.089l.99.145h0v-.005l.002-.015.01-.06.034-.239.138-.926a1597.128 1597.128 0 012.453-15.799c.811-5.08.69-9.02-.096-12.24-.792-3.243-2.246-5.699-4.004-7.82-1.86-2.243-5.165-4.103-8.915-4.842-3.773-.743-8.103-.373-12.01 1.99-7.869 4.76-8.026 13.68-6.891 18.558.594 2.553 1.97 4.805 3.341 6.503 1.359 1.682 2.792 2.914 3.607 3.389h.002l20.833 12.223a1 1 0 001.495-.717l-.989-.145zm-7.953-24.736a4.71 4.71 0 11-3.159-5.902 4.736 4.736 0 013.159 5.902zM73.41 11.961h.026a5.486 5.486 0 005.191-5.757 5.428 5.428 0 00-10.847.436 5.486 5.486 0 005.63 5.321zm-7.25 2.993a4.276 4.276 0 10-5.856-1.286 4.245 4.245 0 005.856 1.286zm-10.026-.414l.544.839-.544-.84a3.535 3.535 0 00-.58 5.464 3.484 3.484 0 004.91.092 3.536 3.536 0 00-4.33-5.555z" fill="#E7A24F" stroke="#fff" stroke-width="2" stroke-linejoin="round"/><path d="M58.661 24.274a3.121 3.121 0 10-6.242 0 3.121 3.121 0 006.242 0zm-.396 5.058a.996.996 0 00-.07-.148 2.31 2.31 0 10-2.28 3.45l.122-.994-.121.993a2.31 2.31 0 001.336-.239 2.352 2.352 0 001.013-3.062z" fill="#E7A24F" stroke="#fff" stroke-width="2" stroke-linejoin="round"/><path d="M80.08 8.065a1 1 0 01-.348-.758 414.538 414.538 0 01.032-1.595l.004-.186.001-.051v-.018h0l1 .023m-.69 2.585l1.895 61.394a.953.953 0 00.032-.011c5.23-1.854 9.91-4.242 13.28-6.162a86.24 86.24 0 003.99-2.415c.333-.214.614-.399.837-.548l.084.047c.566.307 1.403.541 2.634.541 1.448 0 2.611-.735 3.354-1.372a7.74 7.74 0 00.739-.724c1.823.599 4.755 1.489 7.305 2.251a965.949 965.949 0 004.729 1.4l.304.088.08.024.02.006.006.001h.001l.28-.96-.28.96a1.001 1.001 0 001.28-.98l-.035-1.682a1.001 1.001 0 00-.763-.95c-2.82-.688-5.953-1.613-8.388-2.37a215.342 215.342 0 01-3.464-1.107c-.073-.967-.442-1.792-.799-2.384a6.916 6.916 0 00-.51-.735c2.371-5.921 3.607-11.62 4.252-15.877.334-2.2.51-4.02.603-5.294.04-.543.064-.986.08-1.318a7631.72 7631.72 0 0018.305-6.55l1.399-.503.372-.133.096-.035.024-.008.006-.002.002-.001h0l-.338-.941.338.94a1.001 1.001 0 00.586-1.322l-.663-1.608a1 1 0 00-1.309-.542c-3.918 1.633-8.892 3.398-12.9 4.758a393.716 393.716 0 01-5.761 1.905c-.245-4.838-1.61-11.321-8.148-17.232-3.717-3.361-9.584-4.333-14.305-4.526a51.974 51.974 0 00-8.007.31 30.874 30.874 0 00-.652.086l-.037.005-.01.002h-.004l.15.989m-.69 2.585a1 1 0 00.802.231m-.802-.23l.802.23m-.112-2.816l-1-.023a1 1 0 01.85-.966l.15.989zm22.053 46.27l.008-1h-.003c-2.025-.01-3.348.88-4.13 2.008-.741 1.07-.959 2.293-.97 3.02v.014c0 .602.087 1.2.258 1.774-5.48 3.882-12.355 6.518-16.144 7.971a99 99 0 00-1.755.684c-1.595.65-2.739 1.474-3.484 2.449a5.037 5.037 0 00-1.051 3.123c0 1.2.686 3.416 3.29 6.118 2.613 2.712 7.202 5.966 15.158 9.272 7.927 3.295 14.203 5.142 18.501 6.245 1.553.398 2.856.702 3.869.937.383.09.724.169 1.021.24.448.107.78.192 1.014.262.052.188.12.38.198.565.186.44.47.949.872 1.436.817.987 2.138 1.895 4.051 1.895 1.846 0 3.174-.72 4.018-1.78.814-1.023 1.114-2.282 1.114-3.315 0-1.036-.309-2.307-1.115-3.345-.836-1.076-2.155-1.832-3.993-1.842-1.884-.011-3.169.86-3.959 1.713-.324.35-.567.7-.741.988-3.434-.52-6.901-1.103-20.881-6.347-7.41-2.78-12.135-5.766-14.997-8.259-1.432-1.247-2.388-2.362-2.982-3.255-.616-.927-.782-1.522-.79-1.745-.007-.176.06-.385.278-.646.223-.267.557-.526.946-.76a8.045 8.045 0 011.526-.703l.02-.007h.003l20.85-17.71zm0 0l.008-1h.004l.012.001h.04a15.461 15.461 0 01.725.027l-.789.973zM80.881 8.297c7.427-1.119 12.553-.297 15.786.765m-15.786-.765l15.786.765m0 0c1.62.532 2.772 1.127 3.508 1.578m-3.508-1.58l3.508 1.578m0 0c.368.225.632.415.799.543m-.799-.543l.799.543m0 0c.084.064.143.113.178.143m-.178-.143l.178.143m0 0l.036.03m-.036-.03l.036.03m0 0l.003.004m-.003-.003l.003.003m0 0l-.001-.001m.001.001l-.001-.001m0 0h-.001m.001 0h-.001m0 0c0-.001-.001-.002.682-.733l-.682.732zm20.661 82.267v-.016a1.668 1.668 0 013.302-.406 1.668 1.668 0 01-.698 1.732l.559.829-.559-.829a1.671 1.671 0 01-.934.286h-.016a1.626 1.626 0 01-1.654-1.596zm-20.472-37.233a1.589 1.589 0 01-.116-.602 1.557 1.557 0 01.979-1.42l-.373-.928.373.928a1.558 1.558 0 11.584 3.006 1.576 1.576 0 01-1.447-.984zm64.087 6.604c-2.769 1.252-6.56 1.71-10.333 1.896h-.071c-3.692.178-8.968-.442-13.38-1.123a174.355 174.355 0 01-7.671-1.366l-.115-.024-.029-.006-.007-.002h-.002 0l-.205.979.205-.979a.998.998 0 00-.646.081l-2.084 1.024a1 1 0 00.135 1.85c3.484 1.12 8.933 1.958 13.581 2.492 2.337.268 4.497.463 6.141.578.821.057 1.52.096 2.051.113.265.01.495.013.681.011.138-.001.302-.006.447-.025 6.339-.403 10.996-1.202 14.112-3.031 1.593-.934 2.793-2.142 3.605-3.691.806-1.538 1.199-3.353 1.275-5.463.157-4.33-2.118-9.327-4.302-13.115a61.282 61.282 0 00-4.077-6.158 33.49 33.49 0 00-.288-.376l-.078-.099-.021-.026-.006-.007-.001-.003h-.001l-.782.623.782-.624a1.002 1.002 0 00-1.426-.14l-1.389 1.17a1 1 0 00-.123 1.406c2.958 3.537 7.616 10.573 8.107 17.71.114 1.664-.264 2.923-.948 3.908-.695 1-1.76 1.794-3.137 2.417zM42.46 34.818h0c.007-.617.19-1.574.551-2.755a29.169 29.169 0 011.481-3.783c1.252-2.66 2.86-5.118 4.377-6.283a1 1 0 00.087-1.511l-1.243-1.206a1 1 0 00-1.444.054l.748.664-.748-.664h0l-.002.003-.006.006-.018.02a13.93 13.93 0 00-.32.375 41.776 41.776 0 00-3.49 4.886c-1.845 3.035-3.754 7.148-3.432 10.96.163 1.928.822 3.528 1.997 4.79 1.162 1.25 2.762 2.096 4.686 2.65 3.815 1.096 9.178 1.113 15.787.567a1 1 0 00.722-1.59l-1.132-1.535a1 1 0 00-.936-.398h0-.004l-.015.003-.063.008-.246.03a66.036 66.036 0 01-4.024.341c-2.485.132-5.421.133-7.514-.33-2.123-.468-3.584-1.218-4.498-2.114-.891-.874-1.317-1.935-1.301-3.188z" fill="#565F64" stroke="#fff" stroke-width="2" stroke-linejoin="round"/></svg>