<?xml version="1.0" encoding="utf-8"?><svg width="113" height="113" fill="none" xmlns="http://www.w3.org/2000/svg" viewBox="0 0 113 113"><circle cx="56.5" cy="56.5" r="41.5" fill="#C4C4C4"/><circle cx="56.5" cy="56.5" r="41.5" fill="url(#aa)"/><circle cx="56.5" cy="56.5" r="56.5" fill="url(#ab)" fill-opacity=".23"/><circle cx="56.5" cy="56.5" r="47" stroke="#EF7F1A" stroke-width="3"/><path fill="#fff" d="M82.5 72.242c0 2.132 1.22 3.979 3 4.883v.748a11.13 11.13 0 0 1-9.621-3.376 15.084 15.084 0 0 1-3.88.503c-7.457 0-13.5-5.373-13.5-12s6.043-12 13.5-12c7.456 0 13.5 5.373 13.5 12 0 2.595-.927 4.997-2.501 6.96-.32.695-.5 1.469-.5 2.283zM55.5 30c13.053 0 23.672 8.466 23.992 19.008A18.394 18.394 0 0 0 72 47.438c-4.479 0-8.71 1.567-11.913 4.414-3.321 2.952-5.15 6.91-5.15 11.148 0 2.094.448 4.12 1.301 5.99a29.49 29.49 0 0 1-4.48-.227c-5.156 5.155-11.309 6.08-17.258 6.216v-1.262c3.213-1.573 6-4.441 6-7.717 0-.458-.036-.906-.102-1.346C34.969 61.08 31.5 55.618 31.5 49.5c0-10.77 10.745-19.5 24-19.5z"/><defs><linearGradient id="aa" x1="56.5" y1="15" x2="56.5" y2="98" gradientUnits="userSpaceOnUse"><stop stop-color="#EF7F1A"/><stop offset="1" stop-color="#E7734F"/></linearGradient><linearGradient id="ab" x1="56.5" y1="0" x2="56.5" y2="113" gradientUnits="userSpaceOnUse"><stop stop-color="#EF7F1A"/><stop offset="1" stop-color="#E7734F"/></linearGradient></defs></svg>