<?xml version="1.0" encoding="utf-8"?><svg width="242" height="64" fill="none" xmlns="http://www.w3.org/2000/svg" viewBox="0 0 242 64"><path fill-rule="evenodd" clip-rule="evenodd" d="M164.263 25.113v10.97h2.173v-7.212l4.705 7.212h2.35v-10.97h-2.174v7.352l-4.779-7.352h-2.275Z" fill="#565F64"/><path fill-rule="evenodd" clip-rule="evenodd" d="M157.928 30.613c0-1.79-.514-3.187-1.541-4.192-1.028-1.005-2.398-1.507-4.111-1.506a6.739 6.739 0 0 0-2.506.437c-.56.228-1.07.564-1.5.99a5.13 5.13 0 0 0-1.081 1.507c-.354.761-.532 1.7-.533 2.818 0 1.748.51 3.122 1.53 4.121 1.019 1 2.393 1.498 4.122 1.496 1.705 0 3.068-.5 4.089-1.503 1.02-1.002 1.53-2.39 1.529-4.165l.002-.003Zm-3.295-2.87c.582.618.874 1.557.874 2.817 0 1.274-.3 2.23-.901 2.868a3.255 3.255 0 0 1-2.313.955 3.271 3.271 0 0 1-2.311-.963c-.608-.643-.913-1.586-.914-2.828 0-1.263.296-2.209.889-2.838.592-.63 1.372-.943 2.341-.94.971 0 1.748.31 2.33.93h.005ZM142.49 36.083v-9.116h3.423v-1.854h-9.212v1.854h3.438v9.116h2.351ZM134.985 34.659a3.295 3.295 0 0 0 .092-3.514 3.199 3.199 0 0 0-1.282-1.116c-.543-.27-1.384-.536-2.522-.79-1.137-.253-1.854-.5-2.148-.738a.83.83 0 0 1-.348-.667.794.794 0 0 1 .37-.684c.377-.26.903-.39 1.58-.39.655 0 1.146.123 1.473.372.327.249.541.655.641 1.22l2.351-.076c-.038-1.02-.424-1.833-1.157-2.442-.733-.609-1.824-.916-3.274-.92a6.057 6.057 0 0 0-2.283.388 3.116 3.116 0 0 0-1.446 1.113 2.747 2.747 0 0 0-.496 1.568c0 .874.355 1.612 1.065 2.214.506.431 1.385.794 2.635 1.09.973.23 1.595.387 1.868.48.315.084.605.246.84.472a.98.98 0 0 1 .241.664c0 .403-.191.756-.573 1.058-.382.302-.95.452-1.706.451-.71 0-1.275-.169-1.694-.508-.419-.34-.695-.874-.833-1.59l-2.28.215c.155 1.223.624 2.154 1.409 2.794.785.64 1.912.96 3.381.96 1.008 0 1.85-.134 2.527-.4a3.282 3.282 0 0 0 1.568-1.224h.001ZM118.245 34.229v-2.972h5.806v-1.854h-5.806v-2.436h6.243v-1.854h-8.594v10.97h8.822V34.23h-6.471ZM113.409 36.083v-10.97h-2.172v7.352l-4.779-7.352h-2.276v10.97h2.174v-7.212l4.705 7.212h2.348ZM101.945 29.298v-1.655h-1.078l.626-2.913h-1.851l-.609 2.913H97.33l.628-2.913h-1.787l-.63 2.913h-2.273v1.655h1.917l-.477 2.207h-1.44v1.655h1.083l-.629 2.913h1.787l.63-2.913h1.748l-.608 2.913h1.785l.625-2.913h2.262v-1.655h-1.911l.473-2.207h1.432Zm-4.973 0h1.716l-.459 2.207h-1.733l.47-2.207h.006ZM159.676 25.113v10.97h2.351v-10.97h-2.351Z" fill="#E7A24F"/><path fill-rule="evenodd" clip-rule="evenodd" d="m179.298 25.113-4.515 10.97h2.486l.965-2.496h4.661l1.002 2.496h2.533l-4.651-10.97h-2.481Zm-.343 6.62 1.567-4.06 1.614 4.06h-3.181Z" fill="#565F64"/><path fill-rule="evenodd" clip-rule="evenodd" d="m195.314 25.113-2.056 7.481-2.082-7.48h-3.522v10.97h2.173l.007-8.637 2.28 8.636h2.259l2.289-8.636.009 8.636h2.173v-10.97h-3.53ZM201.195 25.113v10.97h8.823V34.23h-6.47v-2.972h5.804v-1.854h-5.804v-2.436h6.243v-1.854h-8.596ZM212.899 30.197c.506.431 1.385.794 2.635 1.09.973.23 1.595.387 1.868.48.316.084.605.246.84.472.161.184.246.42.241.664 0 .403-.191.756-.573 1.058-.381.302-.948.452-1.7.451-.711 0-1.275-.169-1.694-.508-.419-.34-.695-.874-.833-1.59l-2.287.214c.154 1.222.624 2.153 1.409 2.793.784.64 1.911.96 3.381.96 1.008 0 1.85-.133 2.527-.4a3.28 3.28 0 0 0 1.567-1.224 3.297 3.297 0 0 0 .092-3.513 3.199 3.199 0 0 0-1.282-1.116c-.543-.271-1.384-.536-2.521-.79-1.138-.253-1.855-.5-2.149-.738a.82.82 0 0 1-.253-1.058.8.8 0 0 1 .275-.294c.381-.265.909-.398 1.586-.398.655 0 1.146.125 1.473.373.327.249.541.656.641 1.221l2.351-.077c-.038-1.019-.424-1.833-1.157-2.442-.733-.608-1.826-.913-3.279-.914-.777-.02-1.55.11-2.278.383a3.116 3.116 0 0 0-1.446 1.113 2.744 2.744 0 0 0-.5 1.573c0 .874.355 1.612 1.065 2.214l.001.003ZM225.441 26.967v9.116h2.351v-9.116h3.422v-1.854h-9.212v1.854h3.439ZM232.736 25.113v10.97h8.823V34.23h-6.472v-2.972h5.807v-1.854h-5.807v-2.436h6.245v-1.854h-8.596Z" fill="#43A2D9"/><path fill-rule="evenodd" clip-rule="evenodd" d="M60.284 27.112a3.759 3.759 0 1 1 4.482 2.904 3.777 3.777 0 0 1-4.482-2.904Zm-5.797 15.7 14.288-6.992c.919-.45 3.752-2.714 4.704-5.757.953-3.043 1.218-8.529-3.366-11.8-4.584-3.27-10.615-1.736-13.024.764-2.41 2.5-4.058 5.827-3.496 12.488.562 6.661.893 11.295.893 11.295l.002.002ZM63.755 10.602a2.913 2.913 0 1 0 3.24-2.634 2.954 2.954 0 0 0-3.24 2.634ZM70.876 13.352a2.115 2.115 0 1 0 2.992-.427 2.137 2.137 0 0 0-2.992.427ZM75.05 17.796a1.602 1.602 0 1 0 2.309.126 1.635 1.635 0 0 0-2.31-.126ZM77.478 22.131a1.398 1.398 0 1 0-.21 2.788 1.398 1.398 0 0 0 .21-2.788ZM77.14 26.645a.916.916 0 1 0 .271 1.229.89.89 0 0 0-.27-1.229ZM33.37 24.414c1.06-6.597-.336-10.04-2.552-12.714-2.215-2.673-8.115-4.648-12.93-1.735-4.816 2.914-4.96 8.404-4.238 11.508.722 3.104 3.378 5.578 4.266 6.095l13.72 8.05s.675-4.6 1.734-11.198v-.006Zm-6.34-4.893a3.76 3.76 0 1 1-2.52-4.71 3.777 3.777 0 0 1 2.52 4.71ZM22.005 5.901a2.954 2.954 0 0 0 2.796-3.103 2.916 2.916 0 0 0-5.827.235 2.954 2.954 0 0 0 3.031 2.868ZM16.897 7.974a2.157 2.157 0 1 0-2.951-.648 2.137 2.137 0 0 0 2.95.648ZM13.047 11.437a1.67 1.67 0 1 0-2.312-.044 1.636 1.636 0 0 0 2.312.043ZM11.653 14.667a1.397 1.397 0 1 0-2.794 0 1.397 1.397 0 0 0 2.794 0ZM11.434 18.23a.862.862 0 1 0-.364 1.205.89.89 0 0 0 .361-1.203l.003-.002Z" fill="#E7A24F"/><path fill-rule="evenodd" clip-rule="evenodd" d="M26.844 3.495c9.971-1.502 13.92 2.185 13.92 2.185 5.611 4.888 4.816 11.46 4.816 11.46-2.721.937-8.957 2.89-8.957 2.89.048.292.048 1.108.048 1.108l8.861-2.865c-.217 6.839-3.184 14.566-3.184 14.566-.212-.073-.957-.078-.957-.078-2.216-.012-2.685 1.893-2.697 2.661 0 .486.103.966.302 1.409-4.407 3.261-10.377 5.273-12.328 6.068-1.95.795-2.577 1.926-2.577 3.059 0 1.133 1.371 5.216 11.742 9.527 10.372 4.31 16.41 4.827 16.41 5.244 0 .416.728 2.33 2.78 2.33 2.053 0 2.722-1.564 2.722-2.696 0-1.132-.686-2.746-2.71-2.758-2.023-.011-2.72 1.843-2.72 1.843-2.505-.384-4.48-.582-14.352-4.285-9.872-3.703-12.737-8.012-12.787-9.323-.049-1.311 2.288-2.047 2.288-2.047 6.79-2.407 12.184-6.212 12.184-6.212s.292.553 1.748.553c1.457 0 2.47-1.49 2.47-1.49l.13.042c2.286.77 8.476 2.577 8.476 2.577l-.024-1.107c-3.752-.915-8.312-2.456-8.312-2.456.146-1.349-.962-2.396-.962-2.396 3.274-7.946 3.37-15.41 3.37-15.41 6.357-2.264 13.725-4.912 13.725-4.912l-.437-1.059c-5.202 2.168-13.171 4.671-13.171 4.671-.048-3.153-.65-7.657-5.177-11.75C36.957.75 26.869 2.29 26.869 2.29s-.025 1.06-.025 1.204Zm12.861 31.918a1.686 1.686 0 1 1 1.686 1.71 1.696 1.696 0 0 1-1.686-1.71Zm13.558 24.934a1.758 1.758 0 1 1 1.758 1.697 1.729 1.729 0 0 1-1.758-1.697ZM75.822 42.072c-5.008.24-14.13-1.674-14.13-1.674l-1.372.674c4.453 1.432 14.122 2.185 14.809 2.059 8.38-.53 11.726-2.095 11.918-7.393.192-5.298-5.634-12.593-5.634-12.593l-.915.77c1.974 2.36 5.152 7.128 5.49 12.04.338 4.912-5.152 5.875-10.162 6.118l-.004-.001ZM.984 21.602c.023-1.998 2.22-7.223 4.478-8.957l-.819-.793S-.365 17.485.021 22.06c.386 4.575 5.39 5.39 14.086 4.671l-.746-1.01s-5.098.674-8.042.024S.96 23.601.984 21.602Z" fill="#565F64"/></svg>