<?xml version="1.0" encoding="utf-8"?><svg width="242" height="64" fill="none" xmlns="http://www.w3.org/2000/svg" viewBox="0 0 242 64"><path fill-rule="evenodd" clip-rule="evenodd" d="M164.263 25.113v10.97h2.173v-7.212l4.705 7.212h2.35v-10.97h-2.174v7.352l-4.779-7.352h-2.275Z" fill="#565F64"/><path fill-rule="evenodd" clip-rule="evenodd" d="M157.928 30.613c0-1.79-.514-3.187-1.541-4.192-1.028-1.005-2.398-1.507-4.111-1.506a6.739 6.739 0 0 0-2.506.437c-.56.228-1.07.564-1.5.99a5.13 5.13 0 0 0-1.081 1.507c-.354.761-.532 1.7-.533 2.818 0 1.748.51 3.122 1.53 4.121 1.019 1 2.393 1.498 4.122 1.496 1.705 0 3.068-.5 4.089-1.503 1.02-1.002 1.53-2.39 1.529-4.165l.002-.003Zm-3.295-2.87c.582.618.874 1.557.874 2.817 0 1.274-.3 2.23-.901 2.868a3.255 3.255 0 0 1-2.313.955 3.271 3.271 0 0 1-2.311-.963c-.608-.643-.913-1.586-.914-2.828 0-1.263.296-2.209.889-2.838.592-.63 1.372-.943 2.341-.94.971 0 1.748.31 2.33.93h.005ZM142.49 36.083v-9.116h3.423v-1.854h-9.212v1.854h3.438v9.116h2.351ZM134.985 34.659a3.295 3.295 0 0 0 .092-3.514 3.199 3.199 0 0 0-1.282-1.116c-.543-.27-1.384-.536-2.522-.79-1.137-.253-1.854-.5-2.148-.738a.83.83 0 0 1-.348-.667.794.794 0 0 1 .37-.684c.377-.26.903-.39 1.58-.39.655 0 1.146.123 1.473.372.327.249.541.655.641 1.22l2.351-.076c-.038-1.02-.424-1.833-1.157-2.442-.733-.609-1.824-.916-3.274-.92a6.057 6.057 0 0 0-2.283.388 3.116 3.116 0 0 0-1.446 1.113 2.747 2.747 0 0 0-.496 1.568c0 .874.355 1.612 1.065 2.214.506.431 1.385.794 2.635 1.09.973.23 1.595.387 1.868.48.315.084.605.246.84.472a.98.98 0 0 1 .241.664c0 .403-.191.756-.573 1.058-.382.302-.95.452-1.706.451-.71 0-1.275-.169-1.694-.508-.419-.34-.695-.874-.833-1.59l-2.28.215c.155 1.223.624 2.154 1.409 2.794.785.64 1.912.96 3.381.96 1.008 0 1.85-.134 2.527-.4a3.282 3.282 0 0 0 1.568-1.224h.001ZM118.245 34.229v-2.972h5.806v-1.854h-5.806v-2.436h6.243v-1.854h-8.594v10.97h8.822V34.23h-6.471ZM113.409 36.083v-10.97h-2.172v7.352l-4.779-7.352h-2.276v10.97h2.174v-7.212l4.705 7.212h2.348ZM101.945 29.298v-1.655h-1.078l.626-2.913h-1.851l-.609 2.913H97.33l.628-2.913h-1.787l-.63 2.913h-2.273v1.655h1.917l-.477 2.207h-1.44v1.655h1.083l-.629 2.913h1.787l.63-2.913h1.748l-.608 2.913h1.785l.625-2.913h2.262v-1.655h-1.911l.473-2.207h1.432Zm-4.973 0h1.716l-.459 2.207h-1.733l.47-2.207h.006ZM159.676 25.113v10.97h2.351v-10.97h-2.351Z" fill="#E7A24F"/><path fill-rule="evenodd" clip-rule="evenodd" d="m179.298 25.113-4.515 10.97h2.486l.965-2.496h4.661l1.002 2.496h2.533l-4.651-10.97h-2.481Zm-.343 6.62 1.567-4.06 1.614 4.06h-3.181Z" fill="#565F64"/><path fill-rule="evenodd" clip-rule="evenodd" d="m195.314 25.113-2.056 7.481-2.082-7.48h-3.522v10.97h2.173l.007-8.637 2.28 8.636h2.259l2.289-8.636.009 8.636h2.173v-10.97h-3.53ZM201.195 25.113v10.97h8.823V34.23h-6.47v-2.972h5.804v-1.854h-5.804v-2.436h6.243v-1.854h-8.596ZM212.899 30.197c.506.431 1.385.794 2.635 1.09.973.23 1.595.387 1.868.48.316.084.605.246.84.472.161.184.246.42.241.664 0 .403-.191.756-.573 1.058-.381.302-.948.452-1.7.451-.711 0-1.275-.169-1.694-.508-.419-.34-.695-.874-.833-1.59l-2.287.214c.154 1.222.624 2.153 1.409 2.793.784.64 1.911.96 3.381.96 1.008 0 1.85-.133 2.527-.4a3.28 3.28 0 0 0 1.567-1.224 3.297 3.297 0 0 0 .092-3.513 3.199 3.199 0 0 0-1.282-1.116c-.543-.271-1.384-.536-2.521-.79-1.138-.253-1.855-.5-2.149-.738a.82.82 0 0 1-.253-1.058.8.8 0 0 1 .275-.294c.381-.265.909-.398 1.586-.398.655 0 1.146.125 1.473.373.327.249.541.656.641 1.221l2.351-.077c-.038-1.019-.424-1.833-1.157-2.442-.733-.608-1.826-.913-3.279-.914-.777-.02-1.55.11-2.278.383a3.116 3.116 0 0 0-1.446 1.113 2.744 2.744 0 0 0-.5 1.573c0 .874.355 1.612 1.065 2.214l.001.003ZM225.441 26.967v9.116h2.351v-9.116h3.422v-1.854h-9.212v1.854h3.439ZM232.736 25.113v10.97h8.823V34.23h-6.472v-2.972h5.807v-1.854h-5.807v-2.436h6.245v-1.854h-8.596Z" fill="#43A2D9"/></svg>