<?xml version="1.0" encoding="utf-8"?><svg width="28" height="28" fill="none" xmlns="http://www.w3.org/2000/svg" viewBox="0 0 28 28"><path d="M27.5 14c0 7.456-6.044 13.5-13.5 13.5S.5 21.456.5 14 6.544.5 14 .5 27.5 6.544 27.5 14Z" stroke="#fff"/><path d="M13.748 7.994h.033c1.59 0 3.082.615 4.2 1.734a5.904 5.904 0 0 1 1.738 4.234c-.002.36.29.654.65.656h.003c.36 0 .651-.29.653-.65a7.2 7.2 0 0 0-2.12-5.163 7.193 7.193 0 0 0-5.124-2.117h-.036a.653.653 0 0 0 .003 1.306ZM21.711 19.467a2.472 2.472 0 0 0-.758-1.699c-.912-.88-1.675-1.387-2.404-1.597-1.004-.29-1.933-.026-2.763.784l-.003.004-.884.876c-.549-.308-1.616-.986-2.782-2.153l-.086-.086c-1.16-1.159-1.842-2.232-2.153-2.783l.876-.883c.002 0 .003-.002.004-.003.81-.83 1.074-1.76.784-2.763-.21-.728-.718-1.492-1.597-2.404a2.472 2.472 0 0 0-1.699-.758 2.473 2.473 0 0 0-1.749.634l-.019.016a.637.637 0 0 0-.025.025c-.958.958-1.46 2.3-1.453 3.88.013 2.683 1.489 5.753 3.946 8.21a14.58 14.58 0 0 1 .917-.93c-2.216-2.218-3.546-4.942-3.557-7.287-.006-1.217.36-2.232 1.058-2.938l.005-.005a1.174 1.174 0 0 1 1.636.06c1.69 1.752 1.568 2.58.821 3.345l-1.21 1.22a.653.653 0 0 0-.133.725c.03.07.774 1.712 2.625 3.563l.086.085c1.85 1.851 3.493 2.594 3.562 2.625.246.11.534.057.725-.133l1.22-1.21c.765-.747 1.593-.87 3.346.82.459.444.485 1.162.059 1.636l-.005.006c-.7.693-1.705 1.058-2.908 1.058h-.03c-.962-.005-2.076-.268-3.221-.762a.653.653 0 0 0-.518 1.198c1.325.572 2.58.864 3.733.87h.036c1.564 0 2.892-.502 3.843-1.453a.643.643 0 0 0 .024-.025l.018-.02a2.473 2.473 0 0 0 .633-1.748Z" fill="#fff"/><path d="M17.06 10.653c-.7-.7-1.372-.886-1.695-.975a.653.653 0 1 0-.348 1.258c.264.073.663.184 1.12.64.44.44.556.837.634 1.1l.01.032a.653.653 0 1 0 1.251-.37l-.009-.03c-.1-.343-.288-.98-.963-1.655Z" fill="#fff"/></svg>