<svg width="242" height="64" viewBox="0 0 242 64" fill="none" xmlns="http://www.w3.org/2000/svg">
<path fill-rule="evenodd" clip-rule="evenodd" d="M164.263 25.1131V36.0833H166.436V28.8713L171.141 36.0833H173.491V25.1131H171.317V32.4649L166.538 25.1131H164.263Z" fill="#565F64"/>
<path fill-rule="evenodd" clip-rule="evenodd" d="M157.928 30.6134C157.928 28.8237 157.414 27.4262 156.387 26.4211C155.359 25.416 153.989 24.914 152.276 24.9149C151.42 24.9002 150.57 25.0485 149.77 25.3519C149.21 25.5798 148.7 25.9164 148.27 26.3425C147.821 26.7748 147.455 27.2852 147.189 27.8487C146.835 28.61 146.657 29.5496 146.656 30.6673C146.656 32.4153 147.166 33.789 148.186 34.7882C149.205 35.7875 150.579 36.2862 152.308 36.2842C154.013 36.2842 155.376 35.7831 156.397 34.781C157.417 33.7788 157.927 32.3906 157.926 30.6163L157.928 30.6134ZM154.633 27.7438C155.215 28.3614 155.507 29.3 155.507 30.5595C155.507 31.8336 155.207 32.7897 154.606 33.4277C154.303 33.7313 153.942 33.9719 153.545 34.1359C153.148 34.2998 152.722 34.3839 152.293 34.3832C151.863 34.3825 151.438 34.2971 151.041 34.1319C150.645 33.9667 150.285 33.7249 149.982 33.4204C149.374 32.7766 149.069 31.8336 149.068 30.5916C149.068 29.3291 149.364 28.3833 149.957 27.754C150.549 27.1247 151.329 26.8115 152.298 26.8144C153.269 26.8144 154.046 27.1242 154.628 27.7438H154.633Z" fill="#E7A24F"/>
<path fill-rule="evenodd" clip-rule="evenodd" d="M142.49 36.0833V26.9674H145.913V25.1131H136.701V26.9674H140.139V36.0833H142.49Z" fill="#E7A24F"/>
<path fill-rule="evenodd" clip-rule="evenodd" d="M134.985 34.6586C135.33 34.1413 135.522 33.5369 135.538 32.9151C135.555 32.2934 135.395 31.6797 135.077 31.1451C134.758 30.6643 134.315 30.2787 133.795 30.0293C133.252 29.7584 132.411 29.4933 131.273 29.2398C130.136 28.9863 129.419 28.7387 129.125 28.5013C129.018 28.4256 128.931 28.3256 128.87 28.2096C128.81 28.0937 128.778 27.9649 128.777 27.8341C128.775 27.6979 128.807 27.5633 128.872 27.4435C128.937 27.3236 129.032 27.2223 129.147 27.1495C129.524 26.8892 130.05 26.7591 130.727 26.7591C131.382 26.7591 131.873 26.8834 132.2 27.132C132.527 27.3806 132.741 27.7875 132.841 28.3527L135.192 28.2755C135.154 27.2568 134.768 26.443 134.035 25.8341C133.302 25.2252 132.211 24.9184 130.761 24.9135C129.982 24.8951 129.207 25.0271 128.478 25.3024C127.896 25.5207 127.392 25.9083 127.032 26.4153C126.71 26.8749 126.538 27.4219 126.536 27.9827C126.536 28.8567 126.891 29.5947 127.601 30.1968C128.107 30.628 128.986 30.9912 130.236 31.2864C131.209 31.5166 131.831 31.6739 132.104 31.7671C132.419 31.8506 132.709 32.013 132.944 32.2391C133.104 32.4227 133.19 32.6597 133.185 32.9033C133.185 33.3063 132.994 33.6588 132.612 33.9609C132.23 34.2629 131.662 34.4134 130.906 34.4124C130.196 34.4124 129.631 34.243 129.212 33.9041C128.793 33.5646 128.517 33.0301 128.379 32.3134L126.099 32.529C126.254 33.7516 126.723 34.6829 127.508 35.3228C128.293 35.9628 129.42 36.2828 130.889 36.2828C131.897 36.2828 132.739 36.1493 133.416 35.8822C134.053 35.6464 134.6 35.2189 134.984 34.6586H134.985Z" fill="#E7A24F"/>
<path fill-rule="evenodd" clip-rule="evenodd" d="M118.245 34.2289V31.2573H124.051V29.403H118.245V26.9674H124.488V25.1131H115.894V36.0833H124.716V34.2289H118.245Z" fill="#E7A24F"/>
<path fill-rule="evenodd" clip-rule="evenodd" d="M113.409 36.0833V25.1131H111.237V32.4649L106.458 25.1131H104.182V36.0833H106.356V28.8713L111.061 36.0833H113.409Z" fill="#E7A24F"/>
<path fill-rule="evenodd" clip-rule="evenodd" d="M101.945 29.2981V27.6434H100.867L101.493 24.73H99.642L99.0331 27.6434H97.3302L97.9581 24.73H96.1707L95.5414 27.6434H93.2676V29.2981H95.1846L94.7082 31.505H93.2676V33.1598H94.3513L93.7221 36.0731H95.5094L96.1387 33.1598H97.8867L97.2792 36.0731H99.0637L99.6886 33.1598H101.951V31.505H100.04L100.513 29.2981H101.945ZM96.9719 29.2981H98.6878L98.229 31.505H96.4956L96.9661 29.2981H96.9719Z" fill="#E7A24F"/>
<path fill-rule="evenodd" clip-rule="evenodd" d="M159.676 25.1131V36.0833H162.027V25.1131H159.676Z" fill="#E7A24F"/>
<path fill-rule="evenodd" clip-rule="evenodd" d="M179.298 25.1131L174.783 36.0833H177.269L178.234 33.5865H182.895L183.897 36.0833H186.43L181.779 25.1131H179.298ZM178.955 31.7322L180.522 27.6725L182.136 31.7322H178.955Z" fill="#565F64"/>
<path fill-rule="evenodd" clip-rule="evenodd" d="M195.314 25.1131L193.258 32.5945L191.176 25.1131H187.654V36.0833H189.827L189.834 27.4467L192.114 36.0833H194.373L196.662 27.4467L196.671 36.0833H198.844V25.1131H195.314Z" fill="#43A2D9"/>
<path fill-rule="evenodd" clip-rule="evenodd" d="M201.195 25.1131V36.0833H210.018V34.2289H203.548V31.2573H209.352V29.403H203.548V26.9674H209.791V25.1131H201.195Z" fill="#43A2D9"/>
<path fill-rule="evenodd" clip-rule="evenodd" d="M212.899 30.1968C213.405 30.628 214.284 30.9912 215.534 31.2864C216.507 31.5166 217.129 31.6739 217.402 31.7671C217.718 31.8506 218.007 32.013 218.242 32.2391C218.403 32.4227 218.488 32.6597 218.483 32.9033C218.483 33.3063 218.292 33.6588 217.91 33.9609C217.529 34.2629 216.962 34.4134 216.21 34.4124C215.499 34.4124 214.935 34.243 214.516 33.9041C214.097 33.5647 213.821 33.0301 213.683 32.3134L211.396 32.5275C211.55 33.7501 212.02 34.6814 212.805 35.3214C213.589 35.9614 214.716 36.2813 216.186 36.2813C217.194 36.2813 218.036 36.1478 218.713 35.8808C219.349 35.6449 219.897 35.2174 220.28 34.6572C220.626 34.1399 220.817 33.5354 220.834 32.9137C220.85 32.2919 220.69 31.6783 220.372 31.1437C220.053 30.6629 219.61 30.2773 219.09 30.0279C218.547 29.7569 217.706 29.4918 216.569 29.2383C215.431 28.9849 214.714 28.7373 214.42 28.4998C214.313 28.4241 214.226 28.3242 214.166 28.2082C214.105 28.0922 214.073 27.9635 214.072 27.8327C214.07 27.6964 214.103 27.5619 214.167 27.442C214.232 27.3221 214.327 27.2209 214.442 27.148C214.823 26.8829 215.351 26.7504 216.028 26.7504C216.683 26.7504 217.174 26.8747 217.501 27.1233C217.828 27.3719 218.042 27.7788 218.142 28.344L220.493 28.2668C220.455 27.2481 220.069 26.4343 219.336 25.8254C218.603 25.2165 217.51 24.9116 216.057 24.9106C215.28 24.8908 214.507 25.0209 213.779 25.2937C213.197 25.512 212.693 25.8996 212.333 26.4066C212.009 26.8673 211.834 27.4166 211.833 27.9798C211.833 28.8538 212.188 29.5918 212.898 30.1939L212.899 30.1968Z" fill="#43A2D9"/>
<path fill-rule="evenodd" clip-rule="evenodd" d="M225.441 26.9674V36.0833H227.792V26.9674H231.214V25.1131H222.002V26.9674H225.441Z" fill="#43A2D9"/>
<path fill-rule="evenodd" clip-rule="evenodd" d="M232.736 25.1131V36.0833H241.559V34.2289H235.087V31.2573H240.894V29.403H235.087V26.9674H241.332V25.1131H232.736Z" fill="#43A2D9"/>
</svg>
