<svg aria-hidden="true" style="position: absolute; width: 0; height: 0; overflow: hidden;" version="1.1"
     xmlns="http://www.w3.org/2000/svg">
    <defs>
        <symbol id="burger-menu" viewBox="0 0 32 32">
            <path d="M2.286 3.429h27.429v3.429h-27.429v-3.429z"></path>
            <path d="M2.286 13.714h27.429v3.429h-27.429v-3.429z"></path>
            <path d="M2.286 24h27.429v3.429h-27.429v-3.429z"></path>
        </symbol>
        <symbol id="phone" viewBox="0 0 28 28" fill="none">
            <path
                d="M27.5 14C27.5 21.4558 21.4558 27.5 14 27.5C6.54416 27.5 0.5 21.4558 0.5 14C0.5 6.54416 6.54416 0.5 14 0.5C21.4558 0.5 27.5 6.54416 27.5 14Z"
                stroke="white"/>
            <path
                d="M13.7483 7.99407C13.7593 7.99407 13.77 7.99401 13.7809 7.99401C15.3719 7.99401 16.8628 8.60914 17.9816 9.72795C19.1097 10.856 19.7267 12.3596 19.7191 13.9617C19.7174 14.3222 20.0083 14.6159 20.3688 14.6177C20.3699 14.6177 20.3709 14.6177 20.372 14.6177C20.7311 14.6177 21.023 14.3274 21.0248 13.9679C21.0341 12.0146 20.2812 10.181 18.9049 8.80464C17.5393 7.43901 15.721 6.68828 13.7811 6.68828C13.7692 6.68828 13.7572 6.68831 13.7452 6.68834C13.3847 6.69007 13.0938 6.98377 13.0955 7.34431C13.0972 7.70381 13.3892 7.99407 13.7483 7.99407Z"
                fill="white"/>
            <path
                d="M21.7114 19.4668C21.6881 18.8203 21.4188 18.217 20.9531 17.768C20.0414 16.8888 19.2775 16.3813 18.5491 16.1708C17.5454 15.8807 16.6158 16.1446 15.7862 16.9548C15.785 16.956 15.7837 16.9572 15.7825 16.9585L14.8989 17.8354C14.3502 17.5271 13.2834 16.8487 12.1167 15.682L12.0308 15.5961C10.8717 14.4371 10.189 13.3642 9.87834 12.8132L10.7544 11.9305C10.7557 11.9293 10.7569 11.928 10.7581 11.9268C11.5683 11.0972 11.8321 10.1676 11.5421 9.1639C11.3316 8.43554 10.8241 7.67164 9.9449 6.7599C9.4959 6.29425 8.8926 6.02495 8.24618 6.00164C7.59988 5.97837 6.9786 6.2034 6.49715 6.63559L6.47841 6.65244C6.4697 6.66024 6.46121 6.6683 6.45295 6.67656C5.49456 7.63488 4.99219 8.97656 5.00009 10.5565C5.01348 13.2404 6.48856 16.3097 8.9459 18.767C8.94796 18.7691 8.94998 18.7711 8.95204 18.7731C9.414 19.2344 9.9385 19.6909 10.5111 20.13C10.7972 20.3494 11.207 20.2952 11.4265 20.0091C11.6458 19.723 11.5918 19.3132 11.3056 19.0938C10.7756 18.6875 10.2923 18.2669 9.8692 17.8437C9.86718 17.8417 9.86515 17.8397 9.8631 17.8377C7.64715 15.6192 6.31748 12.8954 6.30577 10.5499C6.29969 9.33315 6.66572 8.31754 7.3644 7.61164L7.36939 7.60714C7.84395 7.18122 8.56242 7.20713 9.00505 7.66615C10.6953 9.419 10.5729 10.2465 9.82605 11.0124L8.61585 12.2317C8.42607 12.4229 8.37322 12.7111 8.48283 12.9572C8.51355 13.0262 9.25676 14.6686 11.1078 16.5196L11.1937 16.6054C13.0445 18.4562 14.6868 19.1994 14.7558 19.2301C15.0019 19.3398 15.2901 19.2869 15.4813 19.0971L16.7004 17.8871C17.4664 17.1401 18.2939 17.0176 20.0469 18.7079C20.5059 19.1505 20.5318 19.869 20.1059 20.3435L20.1013 20.3486C19.4012 21.0416 18.3964 21.4073 17.1928 21.4073C17.1829 21.4073 17.173 21.4073 17.163 21.4072C16.201 21.4024 15.087 21.1387 13.9416 20.6446C13.6105 20.5018 13.2263 20.6544 13.0835 20.9855C12.9407 21.3166 13.0933 21.7007 13.4244 21.8435C14.7485 22.4147 16.0041 22.7071 17.1565 22.7129C17.1688 22.713 17.1809 22.713 17.1931 22.713C18.7572 22.713 20.0855 22.211 21.0364 21.2601C21.0447 21.2518 21.0527 21.2433 21.0605 21.2346L21.0775 21.2158C21.5095 20.7344 21.7347 20.1133 21.7114 19.4668Z"
                fill="white"/>
            <path
                d="M17.0601 10.6531C16.3598 9.95276 15.6877 9.76692 15.3646 9.67757C15.017 9.58144 14.6575 9.78526 14.5614 10.1328C14.4653 10.4803 14.6691 10.84 15.0166 10.9361C15.2808 11.0091 15.6799 11.1195 16.1368 11.5764C16.5766 12.0162 16.6934 12.4132 16.7708 12.676L16.7802 12.7079C16.8642 12.9918 17.1242 13.1757 17.4059 13.1757C17.4673 13.1757 17.5297 13.1669 17.5916 13.1486C17.9373 13.0463 18.1346 12.683 18.0322 12.3373L18.0234 12.3073C17.9227 11.9652 17.7353 11.3282 17.0601 10.6531Z"
                fill="white"/>
        </symbol>
        <symbol id="telegram" width="28" height="28" viewBox="0 0 28 28" fill="none">
            <path
                d="M27.5 14C27.5 21.4558 21.4558 27.5 14 27.5C6.54416 27.5 0.5 21.4558 0.5 14C0.5 6.54416 6.54416 0.5 14 0.5C21.4558 0.5 27.5 6.54416 27.5 14Z"
                stroke="white"/>
            <path
                d="M6.70872 12.541L20.207 7.067C20.8335 6.82894 21.3807 7.22774 21.1777 8.22413L21.1789 8.22291L18.8805 19.6114C18.7102 20.4189 18.254 20.6152 17.6159 20.2348L14.1159 17.5217L12.4277 19.2323C12.241 19.4286 12.0835 19.5943 11.7219 19.5943L11.9704 15.848L18.457 9.68436C18.7394 9.42299 18.394 9.27574 18.0219 9.53588L10.0057 14.8442L6.55005 13.7104C5.79989 13.4601 5.78355 12.9214 6.70872 12.541Z"
                fill="white"/>
        </symbol>
        <symbol id="telegram-des" viewBox="0 0 25 24">
            <path
                d="M12.5 23.9513C19.4036 23.9513 25 18.5896 25 11.9756C25 5.36168 19.4036 0 12.5 0C5.59644 0 0 5.36168 0 11.9756C0 18.5896 5.59644 23.9513 12.5 23.9513Z"
                fill="#039BE5"/>
            <path
                d="M5.63278 11.3762L17.6848 6.92424C18.2442 6.73063 18.7327 7.05497 18.5515 7.86533L18.5525 7.86433L16.5004 17.1265C16.3484 17.7832 15.9411 17.9428 15.3713 17.6335L12.2463 15.427L10.739 16.8181C10.5723 16.9778 10.4317 17.1125 10.1088 17.1125L10.3307 14.0657L16.1223 9.05291C16.3744 8.84034 16.0661 8.72059 15.7338 8.93216L8.57652 13.2494L5.49112 12.3273C4.82133 12.1237 4.80674 11.6856 5.63278 11.3762Z"
                fill="white"/>
        </symbol>
        <symbol id="logo" viewBox="0 0 242 64" width="242" height="64">
            <path fill-rule="evenodd" clip-rule="evenodd" d="M164.263 25.1131V36.0833H166.436V28.8713L171.141 36.0833H173.491V25.1131H171.317V32.4649L166.538 25.1131H164.263Z" fill="#565F64"/>
            <path fill-rule="evenodd" clip-rule="evenodd" d="M157.928 30.6134C157.928 28.8237 157.414 27.4262 156.387 26.4211C155.359 25.416 153.989 24.914 152.276 24.9149C151.42 24.9002 150.57 25.0485 149.77 25.3519C149.21 25.5798 148.7 25.9164 148.27 26.3425C147.821 26.7748 147.455 27.2852 147.189 27.8487C146.835 28.61 146.657 29.5496 146.656 30.6673C146.656 32.4153 147.166 33.789 148.186 34.7882C149.205 35.7875 150.579 36.2862 152.308 36.2842C154.013 36.2842 155.376 35.7831 156.397 34.781C157.417 33.7788 157.927 32.3906 157.926 30.6163L157.928 30.6134ZM154.633 27.7438C155.215 28.3614 155.507 29.3 155.507 30.5595C155.507 31.8336 155.207 32.7897 154.606 33.4277C154.303 33.7313 153.942 33.9719 153.545 34.1359C153.148 34.2998 152.722 34.3839 152.293 34.3832C151.863 34.3825 151.438 34.2971 151.041 34.1319C150.645 33.9667 150.285 33.7249 149.982 33.4204C149.374 32.7766 149.069 31.8336 149.068 30.5916C149.068 29.3291 149.364 28.3833 149.957 27.754C150.549 27.1247 151.329 26.8115 152.298 26.8144C153.269 26.8144 154.046 27.1242 154.628 27.7438H154.633Z" fill="#E7A24F"/>
            <path fill-rule="evenodd" clip-rule="evenodd" d="M142.49 36.0833V26.9674H145.913V25.1131H136.701V26.9674H140.139V36.0833H142.49Z" fill="#E7A24F"/>
            <path fill-rule="evenodd" clip-rule="evenodd" d="M134.985 34.6586C135.33 34.1413 135.522 33.5369 135.538 32.9151C135.555 32.2934 135.395 31.6797 135.077 31.1451C134.758 30.6643 134.315 30.2787 133.795 30.0293C133.252 29.7584 132.411 29.4933 131.273 29.2398C130.136 28.9863 129.419 28.7387 129.125 28.5013C129.018 28.4256 128.931 28.3256 128.87 28.2096C128.81 28.0937 128.778 27.9649 128.777 27.8341C128.775 27.6979 128.807 27.5633 128.872 27.4435C128.937 27.3236 129.032 27.2223 129.147 27.1495C129.524 26.8892 130.05 26.7591 130.727 26.7591C131.382 26.7591 131.873 26.8834 132.2 27.132C132.527 27.3806 132.741 27.7875 132.841 28.3527L135.192 28.2755C135.154 27.2568 134.768 26.443 134.035 25.8341C133.302 25.2252 132.211 24.9184 130.761 24.9135C129.982 24.8951 129.207 25.0271 128.478 25.3024C127.896 25.5207 127.392 25.9083 127.032 26.4153C126.71 26.8749 126.538 27.4219 126.536 27.9827C126.536 28.8567 126.891 29.5947 127.601 30.1968C128.107 30.628 128.986 30.9912 130.236 31.2864C131.209 31.5166 131.831 31.6739 132.104 31.7671C132.419 31.8506 132.709 32.013 132.944 32.2391C133.104 32.4227 133.19 32.6597 133.185 32.9033C133.185 33.3063 132.994 33.6588 132.612 33.9609C132.23 34.2629 131.662 34.4134 130.906 34.4124C130.196 34.4124 129.631 34.243 129.212 33.9041C128.793 33.5646 128.517 33.0301 128.379 32.3134L126.099 32.529C126.254 33.7516 126.723 34.6829 127.508 35.3228C128.293 35.9628 129.42 36.2828 130.889 36.2828C131.897 36.2828 132.739 36.1493 133.416 35.8822C134.053 35.6464 134.6 35.2189 134.984 34.6586H134.985Z" fill="#E7A24F"/>
            <path fill-rule="evenodd" clip-rule="evenodd" d="M118.245 34.2289V31.2573H124.051V29.403H118.245V26.9674H124.488V25.1131H115.894V36.0833H124.716V34.2289H118.245Z" fill="#E7A24F"/>
            <path fill-rule="evenodd" clip-rule="evenodd" d="M113.409 36.0833V25.1131H111.237V32.4649L106.458 25.1131H104.182V36.0833H106.356V28.8713L111.061 36.0833H113.409Z" fill="#E7A24F"/>
            <path fill-rule="evenodd" clip-rule="evenodd" d="M101.945 29.2981V27.6434H100.867L101.493 24.73H99.642L99.0331 27.6434H97.3302L97.9581 24.73H96.1707L95.5414 27.6434H93.2676V29.2981H95.1846L94.7082 31.505H93.2676V33.1598H94.3513L93.7221 36.0731H95.5094L96.1387 33.1598H97.8867L97.2792 36.0731H99.0637L99.6886 33.1598H101.951V31.505H100.04L100.513 29.2981H101.945ZM96.9719 29.2981H98.6878L98.229 31.505H96.4956L96.9661 29.2981H96.9719Z" fill="#E7A24F"/>
            <path fill-rule="evenodd" clip-rule="evenodd" d="M159.676 25.1131V36.0833H162.027V25.1131H159.676Z" fill="#E7A24F"/>
            <path fill-rule="evenodd" clip-rule="evenodd" d="M179.298 25.1131L174.783 36.0833H177.269L178.234 33.5865H182.895L183.897 36.0833H186.43L181.779 25.1131H179.298ZM178.955 31.7322L180.522 27.6725L182.136 31.7322H178.955Z" fill="#565F64"/>
            <path fill-rule="evenodd" clip-rule="evenodd" d="M195.314 25.1131L193.258 32.5945L191.176 25.1131H187.654V36.0833H189.827L189.834 27.4467L192.114 36.0833H194.373L196.662 27.4467L196.671 36.0833H198.844V25.1131H195.314Z" fill="#43A2D9"/>
            <path fill-rule="evenodd" clip-rule="evenodd" d="M201.195 25.1131V36.0833H210.018V34.2289H203.548V31.2573H209.352V29.403H203.548V26.9674H209.791V25.1131H201.195Z" fill="#43A2D9"/>
            <path fill-rule="evenodd" clip-rule="evenodd" d="M212.899 30.1968C213.405 30.628 214.284 30.9912 215.534 31.2864C216.507 31.5166 217.129 31.6739 217.402 31.7671C217.718 31.8506 218.007 32.013 218.242 32.2391C218.403 32.4227 218.488 32.6597 218.483 32.9033C218.483 33.3063 218.292 33.6588 217.91 33.9609C217.529 34.2629 216.962 34.4134 216.21 34.4124C215.499 34.4124 214.935 34.243 214.516 33.9041C214.097 33.5647 213.821 33.0301 213.683 32.3134L211.396 32.5275C211.55 33.7501 212.02 34.6814 212.805 35.3214C213.589 35.9614 214.716 36.2813 216.186 36.2813C217.194 36.2813 218.036 36.1478 218.713 35.8808C219.349 35.6449 219.897 35.2174 220.28 34.6572C220.626 34.1399 220.817 33.5354 220.834 32.9137C220.85 32.2919 220.69 31.6783 220.372 31.1437C220.053 30.6629 219.61 30.2773 219.09 30.0279C218.547 29.7569 217.706 29.4918 216.569 29.2383C215.431 28.9849 214.714 28.7373 214.42 28.4998C214.313 28.4241 214.226 28.3242 214.166 28.2082C214.105 28.0922 214.073 27.9635 214.072 27.8327C214.07 27.6964 214.103 27.5619 214.167 27.442C214.232 27.3221 214.327 27.2209 214.442 27.148C214.823 26.8829 215.351 26.7504 216.028 26.7504C216.683 26.7504 217.174 26.8747 217.501 27.1233C217.828 27.3719 218.042 27.7788 218.142 28.344L220.493 28.2668C220.455 27.2481 220.069 26.4343 219.336 25.8254C218.603 25.2165 217.51 24.9116 216.057 24.9106C215.28 24.8908 214.507 25.0209 213.779 25.2937C213.197 25.512 212.693 25.8996 212.333 26.4066C212.009 26.8673 211.834 27.4166 211.833 27.9798C211.833 28.8538 212.188 29.5918 212.898 30.1939L212.899 30.1968Z" fill="#43A2D9"/>
            <path fill-rule="evenodd" clip-rule="evenodd" d="M225.441 26.9674V36.0833H227.792V26.9674H231.214V25.1131H222.002V26.9674H225.441Z" fill="#43A2D9"/>
            <path fill-rule="evenodd" clip-rule="evenodd" d="M232.736 25.1131V36.0833H241.559V34.2289H235.087V31.2573H240.894V29.403H235.087V26.9674H241.332V25.1131H232.736Z" fill="#43A2D9"/>

        </symbol>

    </defs>
</svg>
