<svg aria-hidden="true" style="position:absolute;width:0;height:0" xmlns="http://www.w3.org/2000/svg" overflow="hidden"><defs><symbol id="icon-b-day" viewBox="0 0 32 32"><path fill="var(--color1, #7bb83e)" d="M11.656 19.377c-.008-.042-.02-.083-.036-.122s-.035-.077-.057-.113a.61.61 0 00-1.094.114.6.6 0 00-.048.249.683.683 0 00.182.46.572.572 0 00.203.141.611.611 0 00.238.049.62.62 0 00.576-.401.683.683 0 00.036-.376z"/><path fill="var(--color1, #7bb83e)" d="M31.28 30.603h-1.291V20.8c0-1.073-.837-1.946-1.865-1.946H27.06v-6.412c0-1.073-.837-1.946-1.865-1.946h-1.913V8.609a2.49 2.49 0 001.166-.691c.767-.8.96-2.02.48-3.035l-1.71-3.614c-.105-.222-.322-.362-.559-.362s-.454.14-.559.362l-1.71 3.614a2.725 2.725 0 00.48 3.035c.334.348.738.578 1.166.691v1.887h-5.461V7.702a2.5 2.5 0 001.166-.691c.767-.8.96-2.02.48-3.035L16.511.362C16.406.14 16.189 0 15.952 0s-.454.14-.559.362l-1.71 3.614a2.725 2.725 0 00.48 3.035c.334.348.738.578 1.166.691v2.794H9.868V8.611a2.487 2.487 0 001.166-.693c.767-.8.96-2.02.48-3.035l-1.71-3.614c-.105-.222-.322-.362-.559-.362s-.454.14-.559.362l-1.71 3.614a2.725 2.725 0 00.48 3.035 2.49 2.49 0 001.166.693v1.885H6.709c-1.029 0-1.865.873-1.865 1.946v6.412H3.78c-1.028 0-1.865.873-1.865 1.946v9.803H.624c-.344 0-.623.291-.623.65s.279.65.623.65h30.657c.344 0 .623-.291.623-.65s-.279-.65-.623-.65zM21.751 6.999a1.382 1.382 0 01-.243-1.54l1.151-2.433 1.151 2.433a1.382 1.382 0 01-.243 1.54 1.28 1.28 0 01-.285.223 1.24 1.24 0 01-1.246 0 1.273 1.273 0 01-.285-.223zm-6.707-.907a1.382 1.382 0 01-.243-1.54l1.151-2.433 1.151 2.433a1.382 1.382 0 01-.243 1.54 1.28 1.28 0 01-.285.223 1.24 1.24 0 01-1.246 0 1.303 1.303 0 01-.285-.223zm-6.708.907a1.382 1.382 0 01-.243-1.54l1.151-2.433 1.151 2.433a1.382 1.382 0 01-.243 1.54 1.28 1.28 0 01-.285.223 1.24 1.24 0 01-1.246 0 1.273 1.273 0 01-.285-.223zm-1.628 4.797h18.486c.341 0 .619.29.619.646v2.041c-.275.09-.57.131-.919.131-.929 0-1.353-.295-1.89-.668-.598-.416-1.275-.887-2.582-.887s-1.984.471-2.581.887c-.537.373-.961.668-1.89.668s-1.353-.295-1.89-.668c-.598-.416-1.275-.887-2.581-.887s-1.984.471-2.581.887c-.537.373-.961.668-1.89.668-.349 0-.645-.041-.919-.131v-2.041c0-.356.278-.646.619-.646zm22.035 18.807H3.16v-6.248c.53.102.867.336 1.267.614.598.416 1.275.887 2.581.887s1.984-.471 2.581-.887c.537-.373.961-.668 1.89-.668s1.353.295 1.89.668c.598.416 1.275.887 2.581.887s1.984-.471 2.581-.887c.537-.373.961-.668 1.89-.668s1.353.295 1.89.668c.598.416 1.275.887 2.582.887s1.984-.471 2.582-.887c.4-.278.737-.512 1.267-.614v6.248zm0-7.563c-.915.122-1.464.503-1.958.847-.537.373-.961.668-1.89.668s-1.353-.295-1.89-.668c-.598-.416-1.275-.887-2.581-.887s-1.984.471-2.581.887c-.537.373-.961.668-1.89.668s-1.353-.295-1.89-.668c-.598-.416-1.275-.887-2.581-.887s-1.984.471-2.581.887c-.537.373-.961.668-1.89.668s-1.353-.295-1.89-.668c-.494-.344-1.043-.726-1.958-.847V20.8c0-.356.278-.646.619-.646h4.782c.344 0 .623-.291.623-.65s-.279-.65-.623-.65H6.092v-3.031c.287.061.59.092.919.092 1.306 0 1.984-.471 2.581-.887.537-.373.961-.668 1.89-.668s1.353.295 1.89.668c.598.416 1.275.887 2.581.887s1.984-.471 2.581-.887c.537-.373.961-.668 1.89-.668s1.353.295 1.89.668c.598.416 1.275.887 2.582.887.33 0 .633-.031.919-.092v3.031H13.531c-.344 0-.623.291-.623.65s.279.65.623.65h14.595c.341 0 .619.29.619.646v2.24z"/><path fill="var(--color1, #7bb83e)" d="M6.077 28.988a.712.712 0 00-.092-.234.616.616 0 00-.397-.277.618.618 0 00-.697.388.715.715 0 00-.048.249.69.69 0 00.105.361.615.615 0 00.64.276.59.59 0 00.224-.097.68.68 0 00.23-.292.632.632 0 00.047-.249.675.675 0 00-.012-.127zm6.697-1.944a.634.634 0 00-.093-.234.68.68 0 00-.173-.18.664.664 0 00-.224-.097.59.59 0 00-.469.097.608.608 0 00-.172.18.694.694 0 00-.105.361.675.675 0 00.182.46.572.572 0 00.203.141.611.611 0 00.478 0 .667.667 0 00.28-.24.694.694 0 00.105-.361.683.683 0 00-.012-.127zm7.204 1.944a.634.634 0 00-.093-.234c-.022-.035-.049-.068-.077-.099s-.06-.057-.095-.081a.633.633 0 00-.224-.097.59.59 0 00-.467.097.667.667 0 00-.173.18.694.694 0 00-.104.361.683.683 0 00.182.46.616.616 0 00.44.191.62.62 0 00.575-.401.715.715 0 00.048-.249.675.675 0 00-.012-.127zm7.07-1.555a.712.712 0 00-.092-.234.615.615 0 00-.518-.289.62.62 0 00-.575.401.632.632 0 00-.047.249.675.675 0 00.181.46.667.667 0 00.203.141.602.602 0 00.756-.24.655.655 0 00.104-.361.683.683 0 00-.012-.127zm-6.2-10.626a.68.68 0 00-.171-.333.616.616 0 00-.562-.178.58.58 0 00-.224.097.667.667 0 00-.172.18.655.655 0 00-.104.361.683.683 0 00.181.46.572.572 0 00.203.141.625.625 0 00.238.05.624.624 0 00.345-.11.608.608 0 00.173-.18.655.655 0 00.093-.234.683.683 0 000-.254zm-8.136-.886c-.008-.042-.02-.083-.036-.122s-.035-.077-.057-.113a.673.673 0 00-.172-.18.633.633 0 00-.225-.097.59.59 0 00-.469.097.657.657 0 00-.172.18.665.665 0 00-.093.235.683.683 0 00.093.488.565.565 0 00.172.18.633.633 0 00.347.11.606.606 0 00.441-.191.673.673 0 00.17-.587z"/></symbol><symbol id="icon-cafe" viewBox="0 0 31 32"><path fill="var(--color2, #fff)" d="M25.71 14.227a.329.329 0 00-.094-.234l-2.646-2.646a.33.33 0 00-.234-.097h-3.307v-.661h1.653a.33.33 0 00.331-.331V4.967a.33.33 0 00-.331-.331H9.839a.33.33 0 00-.331.331v5.291c0 .182.148.331.331.331h1.653v.661H8.185a.33.33 0 00-.234.097l-2.646 2.646a.329.329 0 00-.094.234h-.003v1.653c0 .586.257 1.111.661 1.475v7.454a.33.33 0 00.331.331h18.519a.33.33 0 00.331-.331v-7.454c.405-.363.661-.889.661-1.475v-1.653h-.003zm-6.942-2.977h-.661v-.661h.661v.661zm-1.323-.661v.661h-3.968v-.661h3.968zM10.17 5.298h10.582v4.63H10.17v-4.63zm1.984 5.291h.661v.661h-.661v-.661zm-3.831 1.323H22.6l1.984 1.984H6.339l1.984-1.984zM5.871 15.88v-1.323h2.646v1.323a1.324 1.324 0 01-2.646 0zm3.307-1.323h2.646v1.323a1.324 1.324 0 01-2.646 0v-1.323zm3.307 0h2.646v1.323a1.324 1.324 0 01-2.646 0v-1.323zm3.307 0h2.646v1.323a1.324 1.324 0 01-2.646 0v-1.323zm3.307 0h2.646v1.323a1.324 1.324 0 01-2.646 0v-1.323zm-5.953 9.921h-1.984v-4.63h1.984v4.63zm-2.645 0H8.517v-4.63h1.984v4.63zm11.905 0h-1.984v-4.63h1.984v4.63zm-2.646 0h-1.984v-4.63h1.984v4.63zm4.63 0h-1.323v-4.96a.33.33 0 00-.331-.331h-5.291a.33.33 0 00-.331.331v4.96h-3.307v-4.96a.33.33 0 00-.331-.331H8.185a.33.33 0 00-.331.331v4.96H6.531v-6.73a1.98 1.98 0 002.314-.774 1.982 1.982 0 003.306 0 1.982 1.982 0 003.306 0 1.982 1.982 0 003.306 0 1.982 1.982 0 003.306 0c.356.536.964.89 1.653.89.232 0 .454-.042.661-.116v6.73zm-.661-7.275c-.73 0-1.323-.593-1.323-1.323v-1.323h2.646v1.323c0 .73-.593 1.323-1.323 1.323z"/><path fill="var(--color2, #fff)" d="M10.832 6.951v1.323c0 .547.445.992.992.992h.992v-.661h-.992a.331.331 0 01-.331-.331V6.951c0-.182.148-.331.331-.331h.992v-.661h-.992a.993.993 0 00-.992.992zm5.291-.33v2.646h.661V7.944h.992v-.661h-.992v-.661h.992v-.661h-.992a.662.662 0 00-.661.661zm2.314 0v1.984c0 .365.297.661.661.661h.992v-.661h-.992v-.661h.992v-.661h-.992v-.661h.992v-.661h-.992a.662.662 0 00-.661.661zm-3.968-.662a.993.993 0 00-.992.992v2.315h.661v-.661h.661v.661h.661V6.951a.993.993 0 00-.992-.992zm-.331 1.984v-.992a.331.331 0 01.662 0v.992h-.661z"/><path fill="none" stroke="var(--color2, #fff)" stroke-width=".552" d="M30.815 15.98c0 8.433-6.836 15.269-15.269 15.269S.277 24.413.277 15.98 7.113.711 15.546.711 30.815 7.547 30.815 15.98z"/></symbol><symbol id="icon-catering" viewBox="0 0 32 32"><path fill="var(--color1, #7bb83e)" d="M31.371 17.547h-3.722v-1.47l.86-1.721h1.267v-1.063h-1.095a4.789 4.789 0 00-4.754-4.253v-.532a.531.531 0 00-1.064 0v.532a4.789 4.789 0 00-4.754 4.253h-1.095v1.063h1.267l.86 1.721v1.47h-6.38v-1.47l.86-1.721h1.267v-1.063h-1.095A4.789 4.789 0 009.039 9.04v-.532a.531.531 0 00-1.064 0v.532a4.789 4.789 0 00-4.754 4.253H2.126v1.063h1.267l.86 1.721v1.47H.531a.531.531 0 00-.532.532v11.698a.531.531 0 00.532.532c.297-.001.59.058.863.175s.519.287.724.501a3.251 3.251 0 004.532 0 2.2 2.2 0 013.176 0 3.251 3.251 0 004.532 0 2.21 2.21 0 011.588-.676 2.19 2.19 0 011.588.676 3.255 3.255 0 004.534 0 2.2 2.2 0 013.176 0 3.255 3.255 0 004.536 0 2.178 2.178 0 011.589-.676.531.531 0 00.532-.532V18.079a.531.531 0 00-.532-.532zM19.47 14.356h7.85l-.532 1.063h-6.787l-.532-1.063zm3.394-4.253h1.063a3.728 3.728 0 013.685 3.19H19.18a3.733 3.733 0 013.685-3.19zm-2.659 6.38h6.38v1.063h-6.38v-1.063zM4.582 14.356h7.85l-.532 1.063H5.113l-.532-1.063zm3.394-4.253h1.063a3.728 3.728 0 013.685 3.19H4.292a3.733 3.733 0 013.685-3.19zm-2.659 6.38h6.38v1.063h-6.38v-1.063zm25.522 12.801a3.374 3.374 0 00-1.736.88c-.266.252-.58.448-.922.578v-4.688h-1.063v4.751a2.383 2.383 0 01-1.193-.642 3.562 3.562 0 00-1.465-.824v-5.412h-1.063v5.331a3.297 3.297 0 00-2.005.904 2.2 2.2 0 01-3.176 0 3.406 3.406 0 00-1.734-.875l.004-2.702h-1.063l-.004 2.703a3.39 3.39 0 00-1.735.875 2.781 2.781 0 01-.919.576v-7.877h-1.063v7.942a2.383 2.383 0 01-1.193-.642 3.558 3.558 0 00-1.465-.825v-4.88H7.981v4.8a3.294 3.294 0 00-2.003.904 2.2 2.2 0 01-3.176 0 3.37 3.37 0 00-1.734-.879V18.608h29.776v10.674z"/><path fill="var(--color1, #7bb83e)" d="M2.127 24.459H3.19v-3.722h1.595v-1.063H2.126v4.785zm24.459-3.722h2.127v2.127h1.063v-3.19h-3.19v1.063zM28.181 0H3.722a.531.531 0 00-.532.532v1.907L.156 5.473a.528.528 0 00-.115.579.532.532 0 00.491.329h30.839a.526.526 0 00.491-.329.53.53 0 00-.115-.579l-3.034-3.034V.532A.531.531 0 0028.181 0zM4.254 1.063h23.395v1.063H4.254V1.063zM1.816 5.317L3.943 3.19h24.018l2.127 2.127H1.816z"/></symbol><symbol id="icon-corp" viewBox="0 0 33 32"><path fill="var(--color2, #fff)" d="M15.607 12.154h.412a.306.306 0 100-.612h-.298v-.856a.306.306 0 10-.612 0v.971c0 .274.223.496.497.496zm-1.42-1.05v-.689a.306.306 0 10-.612 0v.689a.306.306 0 10.612 0zm.274-1.223a.307.307 0 00.432-.001.306.306 0 00-.001-.432 1.435 1.435 0 00-2.02 0 .305.305 0 10.431.433.824.824 0 011.158 0zm3.069.228a.306.306 0 00-.306.306v.689a.306.306 0 10.612 0v-.689a.306.306 0 00-.306-.306zm-.579-.228a.824.824 0 011.158 0 .308.308 0 00.433-.001.306.306 0 00-.001-.432 1.435 1.435 0 00-2.02 0 .305.305 0 10.431.433zm-.107 2.48H14.59a.57.57 0 00-.57.568c0 .931.761 1.688 1.697 1.688s1.696-.757 1.696-1.688a.57.57 0 00-.57-.568zm-1.127 1.645c-.584 0-1.062-.46-1.085-1.034h2.169a1.083 1.083 0 01-1.084 1.034z"/><path fill="var(--color2, #fff)" d="M26.564 15.487v-2.724c0-.3-.245-.545-.546-.545h-2.26a.546.546 0 00-.546.545v2.724c0 .816.592 1.496 1.37 1.639v1.472h-.281a.8.8 0 00-.589.259l-1.197-1.653a2.161 2.161 0 00-2.143-1.861h-1.25l-.407-.853a3.64 3.64 0 001.013-1.802h.318c.555 0 1.006-.45 1.006-1.002v-.843c0-.406-.244-.756-.592-.913v-.968a.306.306 0 10-.612 0v.879h-.04c-.064-.97-.48-1.794-1.215-2.393a3.608 3.608 0 00-.462-.32v-.465a2.38 2.38 0 00-.108-.71 1.25 1.25 0 01.358-.052h.201c.698 0 1.266.564 1.266 1.258v.337a.306.306 0 10.612 0v-.337a1.875 1.875 0 00-1.877-1.869h-.201c-.216 0-.424.037-.618.105a2.399 2.399 0 00-2.028-1.118h-2.365a2.394 2.394 0 00-2.396 2.386v3.268a1.002 1.002 0 00-.592.913v.843c0 .553.451 1.002 1.006 1.002h.318a3.64 3.64 0 001.013 1.802l-.407.853h-1.517a2.16 2.16 0 00-2.163 2.152v7.13c0 .283.23.513.513.513h12.878c.283 0 .513-.23.513-.513v-2.252l.599.828a1.516 1.516 0 002.107.341 1.495 1.495 0 00.627-1.288.8.8 0 00.487-.734v-.375a.306.306 0 10-.612 0v.375a.188.188 0 01-.189.187h-1.255a.188.188 0 01-.189-.187v-.203c0-.055.025-.108.068-.143a.305.305 0 000-.471.187.187 0 01-.068-.143v-.203c0-.055.025-.108.068-.143a.305.305 0 000-.471.187.187 0 01-.068-.143v-.203c0-.103.085-.187.189-.187h1.255c.104 0 .189.084.189.187v.322a.306.306 0 10.612 0v-.322a.8.8 0 00-.801-.798h-.362v-1.472a1.672 1.672 0 001.37-1.639zm-7.038 2.123l-.816.573a.555.555 0 00-.143.757l.917 1.376a.17.17 0 01.006.102.437.437 0 00-.017.038l-1.458 4.07h-.267v-9.359c.167-.081.328-.174.48-.278l1.297 2.721zm-2.388 2.346l-.295.425-.284-1.459.345-.506.234.16v1.38zm-2.841-1.404l.224-.15.355.52-.283 1.459-.295-.425v-1.404zm1.155.131l-.424-.622.687-.461.685.47-.418.613a.302.302 0 00-.047.23l.421 2.168-.639.921-.639-.921.421-2.168a.302.302 0 00-.047-.23zm1.686-.848l-1.207-.828a.373.373 0 00.032-.036l1.162-1.57.013-.003v2.438zm-1.421-1.56l-.553-.748.111.002h.884l.111-.002-.553.748zm-1.407-.874l1.162 1.57c.01.013.02.025.032.036l-1.207.809v-2.419l.013.004zm-.013 5.627l1.169 1.684a.306.306 0 00.502 0l1.169-1.684v3.499h-2.841v-3.499zm6.144-9.343a.393.393 0 01-.395.391h-.233c.003-.063.005-.126.005-.189v-1.436h.229c.218 0 .395.175.395.391v.843zm-7.07-6.799h2.365c.984 0 1.785.796 1.785 1.775v.173a5.06 5.06 0 00-1.804-.319c-1.12 0-2.142.33-2.877.93s-1.152 1.424-1.215 2.393h-.039V6.659c0-.979.801-1.775 1.785-1.775zm-1.983 7.19a.393.393 0 01-.394-.391v-.843c0-.216.177-.391.394-.391h.229v1.436c0 .063.002.127.005.189h-.233zm.84-.189v-1.784c0-1.481 1.079-2.976 3.489-2.976s3.489 1.495 3.489 2.976v1.784a3.043 3.043 0 01-3.047 3.031h-.884a3.043 3.043 0 01-3.047-3.031zm-2.985 5.608c0-.85.696-1.541 1.552-1.541h1.226l-.671 1.408a.598.598 0 00.191.737l.785.551-.885 1.328a.755.755 0 00-.05.7l.379 1.058a.306.306 0 00.576-.206l-.385-1.074a.412.412 0 00-.016-.037.161.161 0 01.005-.102l.918-1.377a.554.554 0 00-.142-.757l-.816-.573 1.298-2.721c.152.104.312.197.48.278v9.359h-.267l-.577-1.611a.305.305 0 10-.576.206l.503 1.405h-2.409V19.77a.306.306 0 10-.612 0v4.756h-.506v-7.031zm12.682 7.031h-3.259l1.379-3.848a.755.755 0 00-.05-.7l-.885-1.328.785-.551a.598.598 0 00.192-.735l-.672-1.41h.959c.856 0 1.552.691 1.552 1.541v7.031zm2.376-2.208h.958a.883.883 0 01-.373.727.9.9 0 01-1.256-.203l-1.095-1.511v-3.056l.965 1.332a.794.794 0 00.096.371.799.799 0 00-.096.379v.203c0 .134.034.264.096.379a.796.796 0 00-.096.379v.203a.8.8 0 00.8.798zm-.478-9.489h2.13v.751h-2.13v-.751zm1.065 3.714a1.062 1.062 0 01-1.065-1.056v-1.296h2.13v1.296c0 .582-.478 1.056-1.065 1.056z"/><path fill="none" stroke="var(--color2, #fff)" stroke-width=".561" d="M31.779 15.818c0 8.581-6.956 15.537-15.537 15.537S.705 24.399.705 15.818 7.661.281 16.242.281s15.537 6.956 15.537 15.537z"/></symbol><symbol id="icon-corp-2" viewBox="0 0 32 32"><path fill="var(--color1, #7bb83e)" d="M16.631 13.653a.54.54 0 00-.394.113.53.53 0 00-.196.36l-.085.813a.53.53 0 01-.351.441l-3.54 1.233a.53.53 0 00-.356.531v4.746c0 .07.013.139.039.204s.065.124.115.173l2.88 2.891c.091.095.144.22.149.351v4.783a.531.531 0 01-1.064 0V25.95c0-.07-.013-.139-.039-.204s-.065-.124-.115-.173l-3.077-3.098c-.05-.049-.109-.088-.173-.115s-.134-.04-.204-.039H9.045a.531.531 0 00-.532.532v4.252a.535.535 0 01-.239.442l-4.783 3.189c-.117.077-.26.104-.397.077s-.258-.109-.336-.225c-.077-.117-.104-.26-.077-.397s.109-.258.225-.336l4.305-2.875a.535.535 0 00.239-.442v-3.683a.531.531 0 00-1.064 0v3.396l-4.071 2.716a1.587 1.587 0 00-.645 1.789 1.6 1.6 0 001.527 1.134c.314 0 .621-.092.882-.266l4.783-3.189a1.596 1.596 0 00.712-1.329v-3.72h.42l2.769 2.785v4.124a1.593 1.593 0 103.188 0v-4.783a1.596 1.596 0 00-.462-1.127l-2.726-2.737v-4.151l3.189-1.111c.285-.099.535-.276.724-.511s.306-.519.339-.818l.09-.813a.528.528 0 00-.277-.529.528.528 0 00-.201-.061z"/><path fill="var(--color1, #7bb83e)" d="M5.795 20.195l.595-.478v1.01a.531.531 0 001.064 0v-2.126a.536.536 0 00-.302-.478.525.525 0 00-.532.059l-1.456 1.159a.527.527 0 01-.409.111l-3.189-.484h-.085a.53.53 0 01-.404-.59.531.531 0 01.213-.346.532.532 0 01.393-.101l2.737.415a.525.525 0 00.41-.107l2.732-2.174c.136-.058.279-.099.425-.122h.531a.531.531 0 00.532-.532v-.223a.527.527 0 00-.319-.489 2.121 2.121 0 01-1.23-2.383 2.126 2.126 0 112.932 2.383.531.531 0 00-.319.489v.223a.531.531 0 00.532.532h.329a.535.535 0 00.367-.149.529.529 0 01.191-.122l3.088-1.063a.529.529 0 00.356-.441l.452-4.129a.528.528 0 01.585-.467.535.535 0 00.586-.473.528.528 0 00-.467-.585 1.59 1.59 0 00-1.576.814 1.577 1.577 0 00-.188.594l-.42 3.784-1.557.531a3.192 3.192 0 00-1.57-4.432 3.188 3.188 0 00-3.489 5.202l-.26.101-.117.069-2.604 2.073-2.508-.377a1.591 1.591 0 00-1.767 1.212 1.593 1.593 0 001.289 1.941l3.189.484a1.587 1.587 0 001.249-.313zM31.336 4.629a1.588 1.588 0 00-1.296-.378 1.645 1.645 0 00-1.329 1.653v6.85h-1.345a3.223 3.223 0 00.765-2.657 3.183 3.183 0 00-3.878-2.542 3.186 3.186 0 00-2.079 4.594l-1.557-.531-.415-3.72a1.64 1.64 0 00-1.59-1.52 1.611 1.611 0 00-1.18.532 1.589 1.589 0 00-.415 1.239l.532 4.783a1.598 1.598 0 001.063 1.329l3.189 1.111v4.151l-2.726 2.737c-.297.3-.463.705-.462 1.127v4.725a1.644 1.644 0 001.329 1.653 1.586 1.586 0 001.303-.362 1.602 1.602 0 00.557-1.232v-4.124l2.769-2.785h.42v8.976a1.644 1.644 0 001.329 1.653c.088.008.177.008.266 0a1.593 1.593 0 001.594-1.594V17.542a.531.531 0 00-1.064 0v12.755a.54.54 0 01-.186.412.516.516 0 01-.204.108.515.515 0 01-.231.011.58.58 0 01-.441-.585V20.73a.531.531 0 00-.532-.532h-1.175c-.07 0-.139.013-.204.039s-.124.065-.173.115l-3.077 3.098c-.049.05-.088.109-.115.173s-.04.134-.039.204v4.342a.54.54 0 01-.186.412.53.53 0 01-.435.119.58.58 0 01-.441-.585v-4.73c0-.07.013-.139.039-.204s.065-.124.115-.173l2.88-2.891c.049-.05.088-.109.115-.173s.04-.134.039-.204v-4.746a.525.525 0 00-.356-.504l-3.539-1.233a.53.53 0 01-.351-.441l-.531-4.783a.536.536 0 01.128-.409.525.525 0 01.399-.18.588.588 0 01.531.531l.446 4.06a.532.532 0 00.356.441l3.088 1.063a.52.52 0 01.191.122c.099.095.23.148.367.149h.335a.531.531 0 00.532-.532v-.223a.527.527 0 00-.319-.489 2.121 2.121 0 01-1.23-2.383 2.126 2.126 0 112.932 2.383.531.531 0 00-.319.489v.234a.531.531 0 00.532.532h2.657a1.066 1.066 0 001.063-1.063v-6.85a.58.58 0 01.435-.584.528.528 0 01.441.122.534.534 0 01.186.404v6.909a2.125 2.125 0 01-2.126 2.126H27.65a.531.531 0 000 1.064h1.063a3.189 3.189 0 003.189-3.189V5.851a1.59 1.59 0 00-.564-1.217zM1.607 6.377a1.593 1.593 0 001.594-1.594V3.189H6.39v1.159a1.596 1.596 0 00-2.125 1.479 1.592 1.592 0 002.081 1.542 1.588 1.588 0 001.108-1.523V.532A.531.531 0 006.922 0H2.67a.531.531 0 00-.532.532v2.753a1.598 1.598 0 00-1.853.589 1.591 1.591 0 00-.229 1.331 1.591 1.591 0 001.55 1.174zm4.251 0a.526.526 0 01-.491-.329.529.529 0 01.387-.724.537.537 0 01.546.226.528.528 0 01-.066.671c-.1.1-.235.156-.376.156zM3.201 1.063H6.39v1.063H3.201V1.063zM1.607 4.252a.526.526 0 01.491.329.529.529 0 01-.387.724.524.524 0 01-.545-.226.531.531 0 01.442-.827z"/><path fill="var(--color1, #7bb83e)" d="M20.877 5.782c.254.166.552.255.856.255a1.653 1.653 0 001.35-.722l1.424-2.243 2.243 1.43a.532.532 0 00.733-.159l1.143-1.796a.53.53 0 00-.149-.755l-2.7-1.706a.53.53 0 00-.734.159l-1.116 1.791-.935 1.43a1.534 1.534 0 00-.399-.367 1.592 1.592 0 00-2.145.52 1.59 1.59 0 00.428 2.164zm4.783-4.517l1.791 1.143-.579.898-1.791-1.143.579-.898zm-4.39 2.891a.524.524 0 01.451-.244.57.57 0 01.287.08c.117.077.2.197.229.335a.533.533 0 01-.402.633.535.535 0 01-.635-.403.535.535 0 01.07-.401zm-10.629.802a1.59 1.59 0 001.897 1.217c.412-.091.771-.341.999-.696l1.717-2.689a.53.53 0 00-.893-.575l-.914 1.424a1.542 1.542 0 00-.393-.367 1.594 1.594 0 00-2.2.484 1.55 1.55 0 00-.213 1.201zm1.106-.627a.542.542 0 01.335-.233.382.382 0 01.117 0 .536.536 0 01.461.276.533.533 0 01-.16.688.537.537 0 01-.74-.131.527.527 0 01-.014-.589v-.011zm6.335-.079a.531.531 0 00.532-.532V1.594a.531.531 0 00-1.064 0V3.72a.531.531 0 00.532.532zM1.607 10.629v1.594a.531.531 0 001.064 0v-1.594a.531.531 0 00-1.064 0zm11.16-1.594a.531.531 0 100-1.063.531.531 0 000 1.063zM10.11 1.594a.53.53 0 100-1.061.53.53 0 000 1.061z"/></symbol><symbol id="icon-event" viewBox="0 0 32 32"><path fill="var(--color1, #7bb83e)" d="M.88 11.016c.242.117.516.175.81.175.168 0 .342-.019.521-.058 1.071-.234 1.675-1.057 1.469-2.002L2.502 3.729l4.954-1.081.873 4.003a2.328 2.328 0 00-.931.028c-1.095.239-1.694 1.029-1.49 1.965.172.789.822 1.266 1.656 1.266.165 0 .337-.019.514-.057 1.071-.234 1.676-1.057 1.469-2.002L7.977.652a.831.831 0 00-.988-.634L1.83 1.143a.826.826 0 00-.634.987l1.265 5.801a2.328 2.328 0 00-.931.028c-.489.107-.891.325-1.161.631-.32.363-.437.837-.329 1.334.108.494.406.882.84 1.091zm6.998-2.075c-.213.046-.917.148-1.057-.494-.124-.568.433-.778.776-.853a1.72 1.72 0 01.359-.043c.306 0 .593.113.678.499.14.642-.543.843-.755.89zM7.086.955l.17.781-4.954 1.081-.17-.781L7.086.955zM1.07 9.21c.136-.154.37-.273.659-.336a1.72 1.72 0 01.359-.043c.306 0 .593.113.678.499.14.642-.543.844-.756.89-.279.061-.537.044-.725-.046-.176-.085-.285-.232-.332-.448-.046-.21-.009-.374.116-.516zm30.762 14.171a.82.82 0 00-.459-.439l-4.922-1.913a.83.83 0 00-1.074.473l-2.151 5.538a2.323 2.323 0 00-.79-.496c-.467-.181-.922-.221-1.317-.115-.468.126-.826.456-1.011.93-.183.472-.149.959.097 1.373.216.363.577.652 1.044.833.281.109.557.162.817.162.686 0 1.26-.365 1.514-1.019l2.002-5.154 4.726 1.836-1.486 3.824a2.306 2.306 0 00-.79-.495c-1.045-.406-1.98-.078-2.327.815-.183.472-.149.959.097 1.373.216.363.577.651 1.044.833.281.109.557.162.818.162.686 0 1.26-.365 1.514-1.019l2.668-6.868a.827.827 0 00-.014-.635zm-10.244 5.314c-.267-.103-.472-.259-.579-.439-.1-.169-.11-.351-.029-.557.078-.201.199-.317.382-.366a.822.822 0 01.21-.026c.158 0 .338.037.525.11.273.106.481.257.586.426.097.157.106.324.026.528-.238.613-.918.403-1.121.324zm4.333-6.011l.289-.745 4.727 1.836-.289.745-4.727-1.836zm1.264 8.186c-.267-.104-.472-.259-.579-.439-.1-.168-.11-.351-.03-.557.118-.303.351-.395.591-.395.189 0 .382.057.526.113.273.106.481.257.586.426.097.157.106.324.026.528-.238.613-.918.403-1.121.324zm-13.46-1.104c-2.874 2.088-7.247 1.405-10.173-1.589-1.706-1.746-2.66-4.038-2.616-6.288.035-1.797.718-3.415 1.922-4.554a6.223 6.223 0 013.163-1.581 7.564 7.564 0 004.215-2.299.467.467 0 00-.685-.635 6.64 6.64 0 01-3.7 2.015 7.162 7.162 0 00-3.635 1.821C.828 17.969.042 19.821.002 21.871c-.049 2.498 1.002 5.035 2.882 6.959 1.967 2.013 4.537 3.073 6.98 3.073 1.592 0 3.13-.451 4.41-1.381a.467.467 0 10-.55-.756z"/><path fill="var(--color1, #7bb83e)" d="M21.795 20.368c.977-.977 1.444-2.236 1.349-3.64-.074-1.114-.497-2.299-1.226-3.445l2.982-2.982a.467.467 0 10-.661-.661l-8.269 8.269c-.178-.441-.444-.846-.79-1.192s-.751-.613-1.192-.79l9.734-9.734 1.983 1.983-.055.055a.467.467 0 10.661.661l.118-.118a.78.78 0 00.231.036h.024a.775.775 0 00.556-.262l.496-.563.532.532a.467.467 0 00.662-.661l-.574-.574.781-.886.555.555a.467.467 0 00.662-.661l-.598-.597.775-.88.402.403a.467.467 0 00.662-.661l-.445-.444.561-.637a.776.776 0 00-.033-1.059L29.492.229a.776.776 0 00-1.059-.034l-.637.561-.445-.445a.468.468 0 00-.661.661l.403.402-.879.774-.603-.603a.467.467 0 10-.661.661l.561.561-.887.781-.574-.574a.467.467 0 10-.661.661l.532.532-.564.496a.776.776 0 00-.229.803L18.62 9.974c-2.627-1.688-5.273-1.698-6.971 0a6.157 6.157 0 00-1.023 1.302.468.468 0 00.812.464c.21-.367.495-.728.873-1.105 1.858-1.858 4.403-.723 5.631.018l-5.025 5.025a3.557 3.557 0 00-2.801 1.039 3.563 3.563 0 00-1.05 2.534c0 .957.373 1.857 1.05 2.534s1.576 1.05 2.533 1.05a3.56 3.56 0 002.534-1.05 3.558 3.558 0 001.038-2.802l5.019-5.019c.733 1.235 1.839 3.801-.104 5.744a4.51 4.51 0 01-1.039.778c-2.125 1.162-3.53 3.075-3.958 5.386a6.245 6.245 0 01-1.106 2.593.468.468 0 00.754.554 7.18 7.18 0 001.272-2.977c.375-2.029 1.613-3.711 3.487-4.736a5.505 5.505 0 001.251-.938zM28.936.994l1.972 1.972L26.652 7.8l-2.549-2.55L28.936.994zM14.52 21.122c-.5.5-1.165.776-1.872.776s-1.372-.276-1.872-.776S10 19.957 10 19.25s.275-1.373.776-1.873c.5-.5 1.165-.776 1.872-.776s1.372.276 1.872.776.775 1.165.775 1.873-.275 1.372-.775 1.872zm-10.544-.26a1.62 1.62 0 000 2.288l4.772 4.772c.315.315.73.473 1.144.473s.829-.158 1.144-.473a1.62 1.62 0 000-2.288l-4.772-4.772c-.306-.305-.712-.474-1.144-.474s-.838.168-1.144.474zm6.398 5.433a.684.684 0 01-.966.966l-4.772-4.772a.684.684 0 01.483-1.166c.183 0 .354.071.483.2l4.772 4.772z"/><path fill="var(--color1, #7bb83e)" d="M23.491 9.866a.469.469 0 00.331-.798l-.997-.997a.468.468 0 00-.661.661l.997.997a.467.467 0 00.331.137zm-1.382 1.381a.469.469 0 00.331-.798l-.997-.997a.468.468 0 00-.661.661l.997.997a.467.467 0 00.33.137zm-1.381 1.381a.467.467 0 00.33-.798l-.997-.997a.468.468 0 00-.661.661l.997.997a.467.467 0 00.331.137zm-1.381 1.382a.469.469 0 00.331-.798l-.997-.997a.467.467 0 10-.661.661l.997.997a.467.467 0 00.33.137zm-2.709-.414a.467.467 0 000 .661l.997.997a.467.467 0 10.661-.661l-.997-.997a.468.468 0 00-.661 0z"/></symbol><symbol id="icon-family" viewBox="0 0 29 32"><path fill="var(--color1, #7bb83e)" d="M14.635 21.79c1.123 0 2.037-.914 2.037-2.037s-.914-2.037-2.037-2.037c-1.123 0-2.037.914-2.037 2.037s.914 2.037 2.037 2.037zm0-3.139a1.103 1.103 0 11-.002 2.206 1.103 1.103 0 01.002-2.206zm9.035-11.9c1.861 0 3.376-1.514 3.376-3.376S25.532-.001 23.67-.001c-1.861 0-3.375 1.514-3.375 3.376s1.514 3.376 3.375 3.376zm0-5.816c1.346 0 2.441 1.095 2.441 2.441s-1.095 2.441-2.441 2.441c-1.346 0-2.441-1.095-2.441-2.441S22.324.935 23.67.935zm5.002 11.012a.467.467 0 00-.467.467v6.395a.302.302 0 01-.302.302h-1.14v-8.249a.467.467 0 10-.934 0v19.805a.302.302 0 01-.302.302h-1.086a.302.302 0 01-.302-.302v-7.435a.467.467 0 10-.934 0v7.435a.302.302 0 01-.302.302h-1.086a.302.302 0 01-.302-.302V10.862a.467.467 0 10-.934 0v8.249h-1.14a.302.302 0 01-.302-.301v-7.949a2.787 2.787 0 012.784-2.784h3.5a2.787 2.787 0 012.784 2.784.467.467 0 10.934 0 3.722 3.722 0 00-3.718-3.718h-3.501a3.722 3.722 0 00-3.718 3.718v7.95c0 .682.555 1.236 1.236 1.236h1.14v10.621c0 .682.555 1.236 1.236 1.236h1.086c.291 0 .558-.102.769-.27.211.169.478.27.769.27h1.086c.682 0 1.236-.555 1.236-1.236V20.047h1.14c.682 0 1.236-.555 1.236-1.237v-6.395a.467.467 0 00-.467-.467zM4.859 9.608c1.861 0 3.376-1.514 3.376-3.376S6.721 2.856 4.859 2.856c-1.861 0-3.375 1.514-3.375 3.376s1.514 3.376 3.375 3.376zm0-5.816c1.346 0 2.441 1.095 2.441 2.441S6.205 8.674 4.859 8.674c-1.346 0-2.441-1.095-2.441-2.441s1.095-2.441 2.441-2.441zm1.537 6.255H3.322A3.325 3.325 0 000 13.369v6.98c0 .63.513 1.142 1.143 1.142h.014l-.324 2.944a.465.465 0 00.464.518h.789v5.806c0 .63.513 1.143 1.143 1.143h.954c.253 0 .486-.084.675-.223.189.14.423.223.675.223h.954c.63 0 1.143-.513 1.143-1.143v-2.581a.467.467 0 10-.934 0v2.581a.208.208 0 01-.208.208h-.954a.208.208 0 01-.208-.208v-4.992a.467.467 0 10-.934 0v4.992a.208.208 0 01-.208.208H3.23a.208.208 0 01-.208-.208v-5.806h3.674v1.73a.467.467 0 10.934 0v-1.73h.789a.467.467 0 00.465-.518l-.323-2.944h.014c.63 0 1.143-.512 1.143-1.143v-6.98a3.325 3.325 0 00-3.322-3.322zm2.387 10.301a.208.208 0 01-.208.208h-.117l-.856-7.786a.468.468 0 00-.929.103L7.898 24.02H1.819l1.225-11.147a.468.468 0 00-.929-.102l-.856 7.786h-.117a.208.208 0 01-.208-.208v-6.98a2.39 2.39 0 012.387-2.387h3.074a2.39 2.39 0 012.387 2.387v6.98z"/><path fill="var(--color1, #7bb83e)" d="M18.177 20.236a1.248 1.248 0 00-.874.395l-1.743 1.856h-1.804l-1.743-1.856c-.473-.503-1.267-.528-1.771-.056s-.528 1.267-.056 1.771l2.021 2.152v6.184c0 .673.548 1.221 1.221 1.221h2.459c.673 0 1.221-.548 1.221-1.221v-2.565a.467.467 0 10-.934 0v2.565a.288.288 0 01-.287.287h-.784v-3.898a.467.467 0 10-.934 0v3.898h-.74a.288.288 0 01-.287-.287v-6.369a.465.465 0 00-.127-.32l-2.147-2.287a.319.319 0 01.464-.436l1.881 2.003a.467.467 0 00.341.147h2.209a.47.47 0 00.341-.147l1.881-2.003a.318.318 0 11.463.436L16.3 23.993a.47.47 0 00-.127.32v2.247a.467.467 0 10.934 0v-2.062l2.021-2.152a1.254 1.254 0 00-.953-2.11z"/></symbol><symbol id="icon-logo-header" viewBox="0 0 60 32"><path fill="var(--color3, #e7a24f)" d="M35.454 6.385a.884.884 0 111.73-.363.884.884 0 01-1.73.363zm-1.365 3.697l3.364-1.647c.216-.106.884-.639 1.108-1.356s.287-2.008-.793-2.779c-1.08-.77-2.5-.409-3.067.18s-.956 1.372-.823 2.941c.132 1.569.21 2.66.21 2.66zm2.182-7.585a.69.69 0 00.361.667.688.688 0 00.976-.401.685.685 0 10-1.338-.266zm1.677.647a.495.495 0 00-.026.552.5.5 0 00.909-.129.496.496 0 00-.737-.553.495.495 0 00-.146.131zm.983 1.047a.378.378 0 10.632.229.376.376 0 00-.088-.198.383.383 0 00-.544-.029zm.572 1.021a.331.331 0 00-.351.368c.008.064.035.125.077.175s.099.085.161.102a.327.327 0 00.416-.292.333.333 0 00-.304-.353zm-.08 1.063a.218.218 0 00-.242 0 .214.214 0 00-.089.225.214.214 0 00.177.166.215.215 0 00.22-.102.21.21 0 00-.064-.289zm-10.307-.526c.249-1.554-.079-2.365-.601-2.994s-1.911-1.095-3.045-.409-1.168 1.979-.998 2.71c.17.731.796 1.314 1.005 1.435l3.231 1.896s.159-1.083.408-2.637v-.001zm-1.493-1.152a.883.883 0 01-1.264.52.894.894 0 01-.464-.866.88.88 0 01.621-.76.886.886 0 011.106 1.107zM26.439 1.39a.696.696 0 00.658-.731.684.684 0 00-.45-.617.687.687 0 00-.923.671.692.692 0 00.714.675zm-1.202.488a.509.509 0 00-.455-.903.506.506 0 00-.239.75.503.503 0 00.695.152zm-.907.815a.392.392 0 00-.04-.611.398.398 0 00-.44-.009.396.396 0 00-.172.405.395.395 0 00.108.203.384.384 0 00.544.011zm-.328.761a.33.33 0 00-.203-.304.33.33 0 10.204.303zm-.052.839a.205.205 0 00-.2-.1c-.039.005-.076.021-.107.046s-.053.059-.064.097a.2.2 0 00.064.213.2.2 0 00.323-.097.21.21 0 00-.016-.159h.001z"/><path fill="var(--color4, #565f64)" d="M27.579.823c2.348-.354 3.278.515 3.278.515 1.321 1.151 1.134 2.699 1.134 2.699-.641.221-2.109.681-2.109.681.011.069.011.261.011.261l2.087-.675c-.051 1.611-.75 3.43-.75 3.43-.05-.017-.225-.019-.225-.019-.522-.003-.632.446-.635.627 0 .114.024.227.071.332-1.038.768-2.444 1.242-2.903 1.429s-.607.454-.607.72.323 1.228 2.765 2.243 3.864 1.137 3.864 1.235.171.549.655.549c.483 0 .641-.368.641-.635s-.162-.647-.638-.649-.641.434-.641.434c-.59-.091-1.055-.137-3.38-1.009s-3-1.887-3.011-2.195c-.012-.309.539-.482.539-.482 1.599-.567 2.869-1.463 2.869-1.463s.069.13.412.13c.343 0 .581-.351.581-.351l.031.01c.539.181 1.996.607 1.996.607l-.005-.261a27.909 27.909 0 01-1.957-.578c.034-.318-.227-.564-.227-.564.771-1.871.794-3.629.794-3.629 1.497-.533 3.232-1.157 3.232-1.157l-.103-.249c-1.225.51-3.102 1.1-3.102 1.1-.011-.743-.153-1.803-1.219-2.767S27.585.541 27.585.541l-.006.283zm3.029 7.516c.001-.078.025-.154.07-.219s.107-.114.179-.144a.398.398 0 01.538.293.395.395 0 01-.672.352.404.404 0 01-.115-.283zm3.192 5.872a.413.413 0 01.246-.393.412.412 0 01.552.533.418.418 0 01-.673.145.406.406 0 01-.124-.285zm5.313-4.303c-1.179.057-3.327-.394-3.327-.394l-.323.159c1.049.337 3.326.515 3.487.485 1.974-.125 2.761-.493 2.807-1.741S40.43 5.451 40.43 5.451l-.215.181c.465.556 1.213 1.678 1.293 2.835s-1.213 1.383-2.393 1.441h-.001zM21.489 5.087c.006-.471.523-1.701 1.055-2.109l-.193-.187s-1.179 1.326-1.088 2.404 1.269 1.269 3.317 1.1l-.176-.238s-1.201.159-1.894.006-1.027-.505-1.021-.976zm.106 11.831v2.964h.587v-1.948l1.271 1.948h.635v-2.964h-.587v1.986l-1.291-1.986h-.615z"/><path fill="var(--color3, #e7a24f)" d="M19.884 18.404c0-.483-.139-.861-.416-1.133s-.648-.407-1.111-.407a1.82 1.82 0 00-.677.118 1.234 1.234 0 00-.405.268 1.4 1.4 0 00-.292.407c-.096.206-.144.46-.144.761 0 .472.138.843.413 1.113s.647.405 1.114.404c.461 0 .829-.135 1.105-.406s.413-.646.413-1.125v-.001zm-.89-.775c.157.167.236.42.236.761 0 .344-.081.602-.243.775a.88.88 0 01-.963.19.894.894 0 01-.286-.192c-.164-.174-.246-.429-.247-.764 0-.341.08-.597.24-.767s.371-.255.632-.254c.262 0 .472.084.63.251h.001zm-3.281 2.253v-2.463h.925v-.501h-2.489v.501h.929v2.463h.635zm-2.028-.385a.882.882 0 00.025-.949.86.86 0 00-.346-.301c-.147-.073-.374-.145-.681-.213s-.501-.135-.58-.2a.22.22 0 01-.094-.18c-.001-.037.008-.073.026-.106s.043-.06.074-.079c.102-.07.244-.105.427-.105.177 0 .309.034.398.101s.146.177.173.33l.635-.021c-.01-.275-.114-.495-.312-.66s-.493-.247-.885-.249c-.21-.005-.42.031-.617.105a.848.848 0 00-.391.301.754.754 0 00.154 1.021c.137.116.374.215.712.294.263.062.431.105.505.13a.52.52 0 01.227.128c.043.05.066.114.065.179 0 .109-.052.204-.155.286s-.257.122-.461.122c-.192 0-.345-.046-.458-.137s-.188-.236-.225-.43l-.616.058c.042.33.169.582.381.755s.516.259.913.259c.272 0 .5-.036.683-.108a.88.88 0 00.423-.331zm-4.522-.116v-.803h1.569v-.501H9.163v-.658h1.687v-.501H8.528v2.964h2.383v-.501H9.163zm-1.306.501v-2.964H7.27v1.986l-1.291-1.986h-.615v2.964h.587v-1.948l1.271 1.948h.634zm-3.098-1.833v-.447h-.291l.169-.787h-.5l-.164.787h-.46l.17-.787H3.2l-.17.787h-.614v.447h.518l-.129.596h-.389v.447h.293l-.17.787h.483l.17-.787h.472l-.164.787h.482l.169-.787h.611v-.447h-.516l.128-.596h.387zm-1.343 0h.464l-.124.596h-.468l.127-.596h.002zm16.94-1.131v2.964h.635v-2.964h-.635z"/><path fill="var(--color4, #565f64)" d="M25.657 16.918l-1.22 2.964h.672l.261-.675h1.259l.271.675h.684l-1.257-2.964h-.67zm-.093 1.788l.423-1.097.436 1.097h-.859z"/><path fill="var(--color5, #43a2d9)" d="M29.984 16.918l-.556 2.021-.562-2.021h-.952v2.964h.587l.002-2.333.616 2.333h.61l.618-2.333.002 2.333h.587v-2.964h-.953zm1.589 0v2.964h2.384v-.501h-1.748v-.803h1.568v-.501h-1.568v-.658h1.687v-.501h-2.322zm3.162 1.373c.137.116.374.215.712.294.263.062.431.105.505.13a.52.52 0 01.227.128c.043.05.066.114.065.179 0 .109-.052.204-.155.286s-.256.122-.459.122c-.192 0-.345-.046-.458-.137s-.188-.236-.225-.43l-.618.058c.042.33.169.582.381.755s.516.259.913.259c.272 0 .5-.036.683-.108a.88.88 0 00.448-1.28.86.86 0 00-.346-.301c-.147-.073-.374-.145-.681-.213s-.501-.135-.58-.2a.22.22 0 01-.094-.181c-.001-.037.008-.073.026-.106s.043-.06.074-.079c.103-.072.246-.107.429-.107.177 0 .309.034.398.101s.146.177.173.33l.635-.021c-.01-.275-.114-.495-.313-.66s-.493-.247-.886-.247c-.21-.005-.419.03-.615.104a.843.843 0 00-.391.301.754.754 0 00.153 1.023v.001zm3.388-.872v2.463h.635v-2.463h.924v-.501h-2.489v.501h.929zm1.971-.501v2.964h2.384v-.501H40.73v-.803h1.569v-.501H40.73v-.658h1.687v-.501h-2.322z"/><path fill="var(--color4, #565f64)" d="M44.465 19.927v-3.025h.611v1.191h1.197v-1.191h.611v3.025h-.611v-1.323h-1.197v1.323h-.611zm2.928-1.494c0-.308.046-.567.138-.776.069-.154.162-.292.281-.415.12-.122.25-.213.392-.272.188-.08.406-.12.652-.12.446 0 .802.138 1.069.415.268.277.402.661.402 1.154 0 .488-.133.871-.398 1.147-.266.275-.62.413-1.065.413-.45 0-.808-.137-1.073-.411-.265-.275-.398-.653-.398-1.135zm.629-.02c0 .343.079.603.237.78.158.176.359.264.603.264s.443-.087.598-.262c.157-.176.235-.44.235-.79 0-.347-.076-.605-.229-.776-.151-.171-.353-.256-.605-.256s-.455.087-.609.26c-.154.172-.231.432-.231.78zm2.78-1.511h.611v1.639c0 .26.008.429.023.506a.491.491 0 00.186.299.661.661 0 00.404.111c.173 0 .304-.035.392-.105.088-.072.141-.159.159-.262s.027-.274.027-.514v-1.674h.611v1.589c0 .363-.017.62-.05.77a.84.84 0 01-.539.628 1.558 1.558 0 01-.582.091c-.289 0-.508-.033-.658-.099a.95.95 0 01-.353-.26.827.827 0 01-.171-.336c-.04-.173-.06-.429-.06-.768v-1.614zm2.904 2.041l.594-.058c.036.2.108.346.217.44.11.094.258.14.444.14.197 0 .345-.041.444-.124a.376.376 0 00.151-.293.268.268 0 00-.064-.182.483.483 0 00-.219-.132 7.36 7.36 0 00-.489-.132c-.327-.081-.557-.181-.689-.299a.786.786 0 01-.279-.609c0-.154.043-.298.13-.431a.83.83 0 01.378-.308c.165-.07.364-.105.596-.105.38 0 .665.083.856.25a.878.878 0 01.303.667l-.611.027c-.026-.155-.083-.267-.169-.334-.085-.069-.214-.103-.386-.103-.177 0-.316.036-.417.109a.22.22 0 00-.097.188c0 .072.03.133.091.184.077.065.264.132.561.202s.517.143.658.219a.823.823 0 01.334.308.89.89 0 01.122.481.893.893 0 01-.553.825 1.728 1.728 0 01-.658.109c-.383 0-.676-.088-.881-.264-.205-.177-.327-.435-.367-.774zm2.973.984v-3.025h2.243v.512H57.29v.671h1.519v.51H57.29v.823h1.69v.51h-2.301z"/></symbol><symbol id="icon-lounge" viewBox="0 0 38 32"><path fill="var(--color1, #7bb83e)" d="M24.509.002c-.316 0-.625.097-.888.28s-.468.442-.589.746c-.121.304-.153.638-.091.96s.214.619.438.851c.224.232.508.391.819.455s.631.031.924-.095.542-.339.717-.612c.176-.273.269-.595.269-.923 0-.441-.168-.864-.468-1.175s-.706-.487-1.13-.487zm0 2.216c-.105 0-.208-.032-.296-.093s-.156-.147-.196-.248a.573.573 0 01.116-.604c.074-.077.169-.13.273-.152s.21-.01.308.032c.097.042.18.113.239.204a.566.566 0 01.05.52.533.533 0 01-.492.342v-.001zm-4.796.554c-.527 0-1.042.163-1.48.467s-.78.737-.981 1.243-.254 1.063-.151 1.601c.103.537.357 1.031.729 1.418s.848.651 1.365.758c.517.107 1.053.052 1.54-.158s.903-.565 1.196-1.021a2.862 2.862 0 00.246-2.599 2.784 2.784 0 00-.578-.899c-.247-.257-.541-.461-.864-.6s-.67-.211-1.02-.211zm0 4.433c-.316 0-.625-.098-.888-.28s-.468-.442-.589-.746c-.121-.304-.153-.638-.091-.96s.214-.619.438-.851c.224-.232.508-.391.819-.455s.631-.031.924.095.542.339.717.612c.176.273.269.595.269.923 0 .441-.169.863-.469 1.174s-.706.486-1.13.486v.002zm2.279 10.593l1.009-.357 3.446 10.538-1.009.357-3.446-10.538zm-2.727.964l1.009-.357 3.446 10.532-1.009.357-3.446-10.532zm5.453-1.928l1.009-.357 3.446 10.532-1.007.357-3.447-10.532z"/><path fill="var(--color1, #7bb83e)" d="M34.861 20.477l-2.518-7.698c-.127-.388-.326-.746-.586-1.054s-.576-.56-.929-.741-.738-.288-1.131-.315a2.904 2.904 0 00-1.161.159l-1.446.512-.093-.286c-.222-.683-.619-1.291-1.148-1.757s-1.17-.775-1.855-.891c-.685-.117-1.387-.037-2.031.23s-1.207.711-1.627 1.285c-.46-.036-.921.041-1.348.224s-.806.467-1.108.829a1.276 1.276 0 00-.1-.031l-.346.02-.104.043c-.045.019-1.085.74-1.554 1.121-.159.127-.352.458-.456.632a2.584 2.584 0 00-.3.724l-.018.166a2.341 2.341 0 000 .488c.098.974.454 2.273.454 2.273l3.618 11.072c.166.439.244.684.366.993.227.574.31.978.176 1.573-.146.648.038 1.607.716 1.821h.007c.238.056.486.042.716-.041l10.907-3.859c.298-.102.553-.309.721-.585a1.446 1.446 0 00-.217-1.776 1.332 1.332 0 00-.839-.38l-.089-.273 1.443-.511c.374-.132.72-.339 1.016-.61s.54-.6.714-.968c.175-.368.278-.769.303-1.179s-.027-.821-.154-1.21zm-8.7-8.539l.187.572-3.667 1.297-.189-.572 3.668-1.297zm-8.867.422c.224-.079.461-.114.698-.104.095.005.19-.018.274-.064s.154-.116.204-.201c.204-.351.507-.629.868-.796s.762-.214 1.15-.136a.518.518 0 00.552-.248 2.744 2.744 0 011.442-1.188c.605-.213 1.263-.202 1.861.033s1.099.677 1.418 1.253l-4.12 1.458c-.134.048-.243.148-.305.28s-.071.284-.026.423l.796 2.43c.056.182.041.38-.041.551s-.227.301-.401.363c-.174.062-.365.049-.53-.034s-.293-.23-.356-.41l-.267-.81c-.041-.141-.134-.258-.259-.328s-.271-.084-.406-.041c-.135.043-.249.14-.315.269s-.081.282-.04.422c0 .012.007.023.011.035a.75.75 0 01-.202.783.677.677 0 01-.989-.068.744.744 0 01-.137-.246l-.533-1.621c-.046-.139-.142-.253-.269-.318s-.273-.075-.407-.028l-.974.344c-.021-.435.095-.866.33-1.227s.577-.633.974-.774zm-1.035 3.082l.549-.194.187.571-.55.195-.186-.572zm15.544 11.092c.025.076.02.158-.014.23s-.093.127-.166.152l-10.907 3.859a.285.285 0 01-.222-.014.301.301 0 01-.162-.291.3.3 0 01.196-.267.527.527 0 00.306-.28.577.577 0 00.027-.423l-4.073-12.441.637-.224c.154.219.353.4.583.529a1.709 1.709 0 002.142-.379c.276.308.645.508 1.045.567s.809-.026 1.156-.242.613-.549.752-.944a1.9 1.9 0 00.014-1.226l-.094-.286 3.667-1.298 4.069 12.436c.046.139.142.254.269.319s.273.075.407.028c.036-.013.075-.018.113-.015s.075.014.11.031.065.043.09.073c.025.03.044.065.056.103v.003zM27.964 14.01l1.054-.373a.694.694 0 01.752.209c.06.072.107.156.137.246l2.254 6.886c.059.183.047.384-.035.557s-.227.306-.403.368l-1.054.372-2.705-8.266zm4.679 9.377l-1.443.511-.189-.572 1.056-.372c.443-.158.808-.492 1.015-.929s.239-.942.088-1.403l-2.254-6.886c-.151-.462-.472-.843-.893-1.059s-.907-.25-1.352-.093l-1.054.372-.186-.571 1.45-.504c.486-.172 1.018-.136 1.479.1s.813.652.978 1.158l2.517 7.698c.164.506.128 1.058-.099 1.537s-.628.843-1.114 1.015zM12.478 7.847c.071 0 .141.014.206.043a.555.555 0 01.333.517v.828c.199.048.402.073.606.073h.654c.204 0 .407-.025.606-.073v-.828a.576.576 0 01.15-.41.54.54 0 01.388-.172.516.516 0 01.388.172c.05.054.09.119.115.189s.038.146.035.221v.281c.312-.261.564-.592.738-.967s.263-.787.263-1.204V5.168h-1.078v1.349c0 .443-.17.867-.471 1.181s-.71.489-1.136.49h-.654c-.426 0-.834-.177-1.136-.49s-.471-.738-.471-1.181V5.168h-1.076v1.349c0 .417.09.828.263 1.204s.425.706.738.967v-.281c0-.148.057-.291.158-.396s.238-.164.381-.164z"/><path fill="var(--color1, #7bb83e)" d="M14.812 11.965c.066-.096.16-.168.268-.205s.224-.038.333-.002c.11.037.219.08.325.129l.22-.228V8.408a.576.576 0 00-.15-.41.54.54 0 00-.388-.172.516.516 0 00-.388.172.573.573 0 00-.15.41v3.19c.001.126-.023.251-.068.368zm-2.358-.146c.132-.045.275-.036.4.026s.223.171.273.306c.05.135.047.284-.006.417s-.154.239-.281.297a1.936 1.936 0 00-.341.177 1.951 1.951 0 002.562.297c.048-.156.111-.307.187-.451-.053-.022-.106-.044-.159-.062-.136-.045-.249-.145-.315-.277s-.078-.285-.035-.427l.006-.015c-.107.179-.267.318-.456.394s-.397.086-.592.029c-.195-.058-.367-.18-.489-.348s-.188-.373-.189-.584V8.409a.576.576 0 00-.15-.41.54.54 0 00-.388-.172.516.516 0 00-.388.172.573.573 0 00-.15.41v2.897l.498.517.014-.003zm2.764-6.651l-2.462-.014c-.265-.002-.523-.089-.739-.248s-.381-.383-.471-.642l-.075-.217H7.62a.529.529 0 00-.381.164.573.573 0 000 .792.529.529 0 00.381.164h7.598zm1.209-.855c-.075.247-.223.463-.423.616s-.442.237-.691.239h1.762c.052-.399.188-.782.398-1.121h-.963l-.082.266z"/><path fill="var(--color1, #7bb83e)" d="M11.545 4.264c.09.259.255.483.471.642s.474.245.739.248l2.556.014c.249-.002.491-.085.691-.239s.349-.369.423-.616l.08-.266.637-2.075a1.244 1.244 0 00-.168-1.07 1.167 1.167 0 00-.408-.361 1.117 1.117 0 00-.521-.13h-4.196c-.185 0-.367.046-.531.135s-.305.217-.411.374c-.106.157-.175.339-.199.529s-.005.384.057.565l.702 2.034.076.217zm.246-2.7c.007-.01.016-.019.026-.025s.023-.009.035-.008h4.196c.012 0 .023.003.034.009s.019.014.026.023c.007.01.012.021.013.033s.001.024-.002.036l-.716 2.341c-.006.021-.018.039-.035.052s-.036.021-.057.022h-.228l-2.318-.013a.217.217 0 01-.203-.149l-.78-2.251c-.004-.012-.006-.024-.004-.036s.006-.024.014-.034zm.708 11.478c.108-.07.222-.13.341-.177.127-.058.228-.164.281-.297s.056-.282.006-.417-.147-.244-.272-.306-.269-.071-.4-.026l-.017.007.248.257a.574.574 0 01-.011.781.528.528 0 01-.751.012l-.426-.443c-.25.236-.462.513-.627.819l.566.588a.57.57 0 01.109.627h.036c.048-.292.154-.569.312-.815s.364-.454.605-.612zm-1.844 1.57l-.159-.166c-.013.12-.02.24-.02.36v.22a.57.57 0 01.179-.415zm4.795-2.425l.289-.3a3.138 3.138 0 00-.325-.129c-.133-.044-.278-.033-.404.032s-.221.179-.267.316l-.006.015c-.043.142-.031.295.035.427s.179.231.315.277c.055.018.108.04.159.062l.071-.128a.574.574 0 01.133-.571z"/><path fill="var(--color1, #7bb83e)" d="M11.015 14.467h.529c.045-.104.059-.219.04-.331s-.071-.215-.149-.296l-2.527-2.627A.035.035 0 018.9 11.2a.04.04 0 010-.03l.008-.013.653-.679.012-.009a.04.04 0 01.03 0 .027.027 0 01.012.009l2.306 2.398a.523.523 0 00.751-.012c.099-.103.156-.242.158-.388s-.05-.287-.147-.393l-2.306-2.397a1.104 1.104 0 00-.789-.34 1.08 1.08 0 00-.789.34l-.653.679a1.166 1.166 0 00-.327.82c0 .152.029.303.085.444.056.141.138.269.242.376l2.509 2.609a.521.521 0 01.358-.147zm7.466-4.94l.174-.181c-.148-.002-.296.028-.433.086s-.262.145-.367.254l-2.407 2.502a.566.566 0 00-.13.571c.105-.175.299-.505.455-.632a26.989 26.989 0 011.554-1.121l.104-.043.346-.02c.034.009.067.02.1.031.194-.232.42-.433.67-.595a.56.56 0 01-.226-.409.57.57 0 01.157-.442l.002-.002zm1.104.437l.1-.017-.042-.044-.058.061z"/><path fill="var(--color1, #7bb83e)" d="M19.713 8.312h-.061l-1.17 1.217a.556.556 0 00-.157.442c.007.081.03.16.069.231s.093.132.157.178a2.887 2.887 0 011.035-.414l3.892-4.047.012-.009a.04.04 0 01.03 0 .027.027 0 01.012.009l.175.179a.035.035 0 01.008.013.04.04 0 010 .03l-.008.013-3.616 3.759c.08 0 .163 0 .245.007.329-.448.746-.818 1.222-1.086s1.003-.428 1.543-.469l1.322-1.377a.525.525 0 01-.751-.013c-.099-.103-.155-.242-.157-.388s.051-.287.147-.392l.829-.862-.026-.03-.174-.18c-.009-.01-.019-.018-.029-.027l-.826.863a.529.529 0 01-.764.001.579.579 0 01-.001-.794l-.298.31v.064c0 .734-.28 1.438-.779 1.958s-1.176.812-1.882.813z"/><path fill="var(--color1, #7bb83e)" d="M26.936 4.381c.028-.029.055-.06.08-.092l-.061.049a.524.524 0 01-.697-.026.575.575 0 01-.088-.719l-2.505 2.605a.573.573 0 00.022.767.527.527 0 00.738.026l2.512-2.61zm-.761-.849a.041.041 0 01.009.041.55.55 0 01.108-.118c.255-.207.509-.398.762-.57a1.25 1.25 0 00-.116-.145l-.036-.037c-.25.172-.501.359-.752.563a.568.568 0 01-.148.083l.174.184zm-3.503 2.43a.529.529 0 00.762 0l2.491-2.589c-.115.025-.234.01-.34-.042s-.192-.139-.246-.248c-.25.159-.537.243-.83.243h-.06l-1.777 1.842a.563.563 0 00-.158.397.583.583 0 00.158.397zm-5.248 10.873l-.22.078c.127.035.251.072.374.111a1.65 1.65 0 01-.154-.189zM5.341 23.041c0-2.731 2.335-5.204 5.812-6.142.115-.031.217-.102.29-.2s.112-.218.112-.343v-.769h3.695c-.08-.338-.159-.739-.212-1.12h-4.023c-.143 0-.28.059-.381.164s-.158.247-.158.396v.904c-3.734 1.152-6.21 3.968-6.21 7.109 0 1.685.699 3.293 1.99 4.613l1.225-.353c-1.383-1.189-2.142-2.693-2.142-4.259zm14.031 5.256c-1.471.805-3.283 1.278-5.22 1.278a11.396 11.396 0 01-3.618-.579l-1.716.497c1.592.788 3.429 1.204 5.334 1.204 1.979 0 3.901-.459 5.524-1.302a2.926 2.926 0 00-.239-.921l-.065-.176z"/><path fill="var(--color1, #7bb83e)" d="M37.19 6.176c-.462-2.286-1.532-4.061-3.016-4.996-2.443-1.541-5.292-1.271-8.087.742-.036.238-.122.465-.251.665s-.299.369-.497.494a.562.562 0 00.151.187.526.526 0 00.659-.004c.25-.204.501-.391.752-.563 2.36-1.617 4.719-1.821 6.715-.565 1.226.773 2.122 2.289 2.521 4.268.533 2.642.091 5.604-1.101 7.367a22.658 22.658 0 01-1.661 2.159l.398 1.207a24.229 24.229 0 002.15-2.723c1.347-1.996 1.859-5.307 1.268-8.238zM15.766 27.49a53.387 53.387 0 002.997-.958l-.347-1.06c-.952.335-1.931.649-2.938.939-4.508 1.3-7.763 2.236-9.683 2.784l-1.07.305.094.422c.055.25.023.512-.092.738l1.353-.386 2.74-.785 1.716-.497 5.23-1.504zm14.329-6.966a31.869 31.869 0 001.509-1.249l-.374-1.146c-.478.435-.978.86-1.5 1.275l.365 1.12z"/><path fill="var(--color1, #7bb83e)" d="M35.91 6.458c-.386-1.914-1.243-3.374-2.415-4.112-1.938-1.225-4.151-1.034-6.445.538-.253.174-.507.364-.762.57a.579.579 0 00-.108.118l-.013.021a.575.575 0 00.088.719.526.526 0 00.697.026l.061-.049c1.518-1.218 3.758-2.352 5.921-.987.913.579 1.592 1.778 1.919 3.385.456 2.261.09 4.855-.892 6.309-.314.466-.671.953-1.076 1.454l.402 1.229a22.915 22.915 0 001.556-2.04c1.141-1.688 1.579-4.641 1.066-7.18zM4.621 29.017l.056.248c1.03-.293 3.742-1.07 10.74-3.087a52.65 52.65 0 002.926-.934l-.347-1.06c-.91.32-1.866.625-2.866.915A7646.92 7646.92 0 017.487 27.3l-1.231.353c-1.365.392-1.966.562-2.229.637l.076.034c.13.069.244.167.334.287s.153.259.185.407zm25.035-9.838a28.117 28.117 0 001.497-1.285l-.377-1.153c-.457.436-.952.876-1.486 1.318l.367 1.121z"/><path fill="var(--color1, #7bb83e)" d="M4.822 29.922l-.094-.422-.049-.234-.056-.248a1.065 1.065 0 00-.187-.407 1.004 1.004 0 00-.412-.32.953.953 0 00-.77.009l-1.413.637-.51-.122a1.057 1.057 0 00-.984.27 1.085 1.085 0 00-.282.434 1.15 1.15 0 00-.038.624l.2.898a1.083 1.083 0 00.348.597 1.032 1.032 0 00.691.259c.246 0 .485-.085.679-.243l.378-.31 1.56-.108a1.025 1.025 0 00.76-.432 1.104 1.104 0 00.178-.881h.001zm-2.737.315a.527.527 0 00-.299.119l-.51.414-.193-.871h.006l.683.166c.112.027.23.016.336-.032l1.488-.671.168.756-1.679.12zM25.338 3.083c.328-.207.574-.53.692-.909s.101-.791-.048-1.158c-.149-.368-.421-.667-.765-.844s-.738-.219-1.109-.118c-.371.1-.696.336-.914.664s-.315.727-.274 1.124.219.765.5 1.036c.281.272.646.43 1.03.445h.06c.292.001.579-.082.83-.24zm-1.362-1.419c0-.11.031-.217.09-.308s.142-.162.239-.204a.516.516 0 01.581.12.562.562 0 01.146.284c.02.107.01.219-.03.32s-.109.188-.196.249a.519.519 0 01-.673-.069.566.566 0 01-.156-.392zm-6.927 3.878c0 .723.272 1.418.759 1.936s1.148.816 1.844.833h.061c.706 0 1.384-.292 1.884-.811s.781-1.223.781-1.958v-.064c-.017-.728-.309-1.42-.814-1.926s-1.18-.785-1.88-.776c-.701.008-1.37.303-1.862.821s-.77 1.216-.771 1.945h-.002zm2.665-1.662c.278 0 .55.076.791.219.035.021.069.041.103.065.316.222.545.555.645.937s.065.79-.1 1.148c-.164.358-.447.642-.796.802s-.742.184-1.106.068-.677-.364-.881-.699a1.706 1.706 0 01.305-2.137 1.56 1.56 0 011.038-.403zm4.933 18.597L23 17.444l-1.009.357.281.858 3.166 9.674 1.008-.357-1.376-4.206-.352-1.073-.072-.22zm-2.195 2.581l-.349-1.064-.072-.223-.348-1.064-1.408-4.302-1.009.357 3.446 10.531 1.009-.357-1.269-3.879zm4.741-4.097l-.357-1.089-1.111-3.394-1.009.357 1.189 3.634.354 1.082.072.22 1.831 5.596 1.008-.357-1.978-6.048z"/><path fill="var(--color1, #7bb83e)" d="M33.29 15.678l-.948-2.898c-.127-.388-.326-.746-.586-1.054s-.576-.56-.929-.741-.738-.288-1.131-.315a2.887 2.887 0 00-1.161.16l-1.445.511-.093-.286c-.222-.683-.619-1.291-1.148-1.757s-1.17-.775-1.855-.891c-.685-.117-1.387-.037-2.031.23s-1.207.711-1.627 1.285a2.85 2.85 0 00-.649.024l-.1.017a2.929 2.929 0 00-1.705 1.011 1.276 1.276 0 00-.1-.031l-.346.02-.104.043c-.045.019-1.085.74-1.554 1.121-.159.127-.351.456-.455.632a2.614 2.614 0 00-.258.579c-.014.047-.029.094-.042.146l-.018.166a2.341 2.341 0 000 .488c.011.108.025.22.041.331.055.382.136.782.212 1.12.106.471.201.819.201.819l2.548 7.78.338 1.06.074.227.347 1.06.31.948c.134.354.211.579.299.818l.067.175c.129.291.209.602.239.921.011.219-.009.438-.061.651-.146.648.038 1.607.716 1.821h.007c.238.056.486.042.716-.041l10.907-3.859c.298-.102.553-.309.721-.585a1.446 1.446 0 00-.217-1.775 1.337 1.337 0 00-.839-.38l-.089-.273 1.443-.511c.753-.267 1.374-.835 1.725-1.577s.406-1.6.15-2.384l-1.091-3.335-.398-1.207-.08-.262zm-7.128-3.74l.187.572-3.667 1.297-.189-.572 3.668-1.297zm-5.653-.876c.102.017.207.003.302-.041s.175-.116.231-.207a2.744 2.744 0 011.442-1.188c.605-.213 1.263-.202 1.861.033s1.099.677 1.418 1.253l-4.12 1.458c-.134.048-.243.148-.305.28s-.071.284-.026.423l.796 2.43c.056.182.041.38-.041.551s-.227.301-.401.363c-.174.062-.364.049-.53-.034s-.293-.23-.356-.41l-.267-.81c-.041-.141-.134-.258-.259-.328s-.271-.084-.406-.041c-.135.043-.249.14-.315.269s-.081.282-.04.422c0 .012.007.023.011.035a.756.756 0 01-.031.528.715.715 0 01-.423.389c-.174.058-.362.043-.525-.041s-.289-.23-.351-.408l-.488-1.484-.045-.137c-.046-.139-.142-.253-.269-.318s-.273-.075-.407-.028l-.975.344c-.021-.435.095-.865.33-1.226s.576-.633.972-.775c.224-.079.461-.114.698-.104.095.005.19-.018.274-.064s.154-.116.204-.201c.203-.349.503-.625.861-.792l.03-.013a1.859 1.859 0 011.127-.127h.023zm-4.206 4.525l-.047-.145.549-.194.187.571-.55.194-.139-.426zm15.501 10.944c.025.076.02.158-.014.23s-.093.127-.166.152l-10.907 3.859a.285.285 0 01-.222-.014.284.284 0 01-.09-.072.32.32 0 01-.072-.219.3.3 0 01.196-.267.527.527 0 00.306-.28.577.577 0 00.027-.423l-.221-.674-.362-1.093-.511-1.563-.347-1.06-.074-.225-.347-1.06-2.211-6.762.635-.224c.179.25.415.45.688.58s.572.187.871.165a1.725 1.725 0 001.166-.593c.276.308.645.508 1.045.567s.809-.026 1.156-.242c.347-.216.613-.549.752-.944s.145-.828.014-1.226l-.094-.286 3.667-1.298 2.501 7.644 1.569 4.789c.046.139.142.254.269.319s.273.075.407.028c.036-.013.075-.018.113-.015s.075.014.11.031.065.043.09.073c.025.03.044.065.056.103zm-.652-8.636l.08.238.374 1.143.557 1.705c.059.183.047.384-.035.557s-.227.306-.403.368l-1.054.372-2.705-8.269 1.054-.372a.694.694 0 01.752.209.744.744 0 01.137.246l.866 2.649.377 1.154zm1.491 5.493l-1.443.511-.189-.572 1.056-.373c.443-.158.808-.492 1.015-.929s.239-.942.088-1.403l-.705-2.143-.381-1.164-.08-.248-.383-1.173-.706-2.159c-.151-.462-.472-.842-.892-1.058s-.906-.25-1.351-.094l-1.054.372-.186-.571 1.45-.504c.486-.172 1.018-.136 1.479.1s.813.652.978 1.158l.74 2.263.385 1.195.08.248.385 1.178.919 2.814c.164.505.129 1.056-.097 1.534s-.625.844-1.109 1.017v.001z"/></symbol><symbol id="icon-menu" viewBox="0 0 37 32"><path fill="var(--color2, #fff)" d="M0 0h36.571v4.571H0V0zm0 13.714h36.571v4.571H0v-4.571zm0 13.715h36.571V32H0v-4.571z"/></symbol><symbol id="icon-phone" viewBox="0 0 32 32"><path fill="none" stroke="var(--color2, #fff)" stroke-width="1.143" d="M31.429 16c0 8.521-6.908 15.429-15.429 15.429S.571 24.521.571 16 7.479.571 16 .571 31.429 7.479 31.429 16z"/><path fill="var(--color2, #fff)" d="M15.712 9.136h.037a6.74 6.74 0 014.801 1.982 6.752 6.752 0 011.986 4.839.747.747 0 00.742.75h.004c.41 0 .744-.332.746-.743a8.228 8.228 0 00-2.423-5.901 8.22 8.22 0 00-5.856-2.419h-.041a.746.746 0 00.004 1.493zm9.101 13.112a2.826 2.826 0 00-.867-1.942c-1.042-1.005-1.915-1.585-2.747-1.825-1.147-.332-2.209-.03-3.158.896l-.004.004-1.01 1.002c-.627-.352-1.846-1.128-3.18-2.461l-.098-.098c-1.325-1.325-2.105-2.551-2.46-3.18l1.001-1.009.004-.004c.926-.948 1.227-2.011.896-3.158-.241-.832-.821-1.705-1.825-2.747-.513-.532-1.203-.84-1.941-.867s-1.449.231-1.999.724l-.021.019-.029.028c-1.095 1.095-1.669 2.629-1.66 4.434.015 3.067 1.701 6.575 4.51 9.383l.007.007a18.204 18.204 0 001.782 1.551.746.746 0 10.908-1.184 16.6 16.6 0 01-1.642-1.429l-.007-.007c-2.533-2.535-4.052-5.648-4.066-8.329-.007-1.391.411-2.551 1.21-3.358l.006-.005a1.342 1.342 0 011.869.067c1.932 2.003 1.792 2.949.938 3.824l-1.383 1.393a.746.746 0 00-.152.829c.035.079.884 1.956 3 4.071l.098.098c2.115 2.115 3.992 2.965 4.071 3a.746.746 0 00.829-.152l1.393-1.383c.875-.854 1.821-.994 3.825.938.525.506.554 1.327.067 1.869l-.005.006c-.8.792-1.948 1.21-3.324 1.21h-.034c-1.099-.006-2.373-.307-3.682-.872a.746.746 0 10-.591 1.371c1.513.653 2.948.987 4.265.994h.042c1.788 0 3.306-.574 4.392-1.66l.028-.029.019-.021c.494-.55.751-1.26.724-1.999z"/><path fill="var(--color2, #fff)" d="M19.497 12.175a4.1 4.1 0 00-1.938-1.115.746.746 0 00-.398 1.438c.302.083.758.21 1.28.732.503.503.636.956.725 1.257l.011.036a.747.747 0 001.431-.423l-.01-.034c-.115-.391-.329-1.119-1.101-1.89z"/></symbol><symbol id="icon-rent" viewBox="0 0 32 32"><path fill="var(--color2, #fff)" d="M26.097 23.797l-1.277-1.931v-9.652l1.004-1.504a.407.407 0 00-.113-.565l-1.747-1.166V5.754a.407.407 0 00-.407-.407h-1.806a.407.407 0 00-.407.407v1.475l-5.383-3.594a.41.41 0 00-.453 0l-3.052 2.037a.408.408 0 00.452.678l2.826-1.886 9.187 6.132-.634.949-8.327-5.559a.41.41 0 00-.453 0L7.18 11.545l-.633-.949 3.311-2.21a.408.408 0 00-.452-.678l-3.65 2.436a.408.408 0 00-.113.565l1.004 1.504v11.4H5.71a.407.407 0 100 .814h20.048a.406.406 0 00.34-.633zm-3.94-17.636h.992v2.274l-.992-.662V6.161zm-2.163 8.409l.466-.705a.408.408 0 10-.68-.45l-.275.416-.275-.416a.408.408 0 10-.68.45l.466.705-.228.345C15.524 17.725 10.6 17.62 7.46 14.6v-1.967c.388.1.78.182 1.175.248a1.223 1.223 0 102.287.598c0-.143-.025-.281-.071-.409l.073.001c.378 0 .757-.015 1.134-.046a1.223 1.223 0 102.415.265c0-.231-.064-.447-.176-.632.416-.103.826-.226 1.23-.366a1.223 1.223 0 102.05-.906c.32-.173.633-.359.939-.556a1.223 1.223 0 002.378-.565L24 12.339v8.296l-4.01-6.064zm1.862 8.097l-1.592-2.408h1.592v2.408zm-1.943-3.222v-3.52l2.328 3.52h-2.328zm-5.878-1.271a.407.407 0 11-.815 0 .407.407 0 01.815 0zm-3.502-.527a.407.407 0 11-.815 0 .407.407 0 01.815 0zm-.423-4.167a.408.408 0 01-.815 0 .407.407 0 01.815 0zm3.552-.19a.408.408 0 11-.815-.001.408.408 0 01.815.001zm3.498-1.007a.407.407 0 11-.815 0 .407.407 0 01.815 0zm2.546-2.159a.408.408 0 11-.001.815.408.408 0 01.001-.815zm-3.973-3.308l3.602 2.404a13.21 13.21 0 01-11.277 2.719l7.675-5.123zM7.461 15.69a9.26 9.26 0 001.762 1.134 1.223 1.223 0 102.121.736c.375.08.757.137 1.144.171a1.223 1.223 0 102.361.443c0-.185-.042-.361-.116-.518a9.158 9.158 0 002.871-.95l-4.57 6.91H7.459v-7.925zm11.637.235v3.805l-2.569 3.885h-2.516l5.086-7.69zm-1.592 7.69l2-3.024 2 3.024h-3.999zm5.165 0v-3.52l2.328 3.52h-2.328z"/><path fill="var(--color2, #fff)" d="M11.156 7.437a.41.41 0 00.407-.407.408.408 0 10-.695.288.41.41 0 00.288.119z"/><path fill="none" stroke="var(--color2, #fff)" stroke-width=".561" d="M31.356 15.965c0 8.581-6.956 15.538-15.538 15.538S.28 24.547.28 15.965C.28 7.384 7.236.427 15.818.427s15.538 6.956 15.538 15.538z"/></symbol><symbol id="icon-rent-2" viewBox="0 0 32 32"><path fill="var(--color1, #7bb83e)" d="M31.799 30.936l-1.953-2.953V13.224l1.535-2.3a.623.623 0 00-.172-.864l-2.672-1.783V3.345a.623.623 0 00-.623-.623h-2.762a.623.623 0 00-.623.623v2.256L16.297.106a.623.623 0 00-.692 0l-4.667 3.116a.623.623 0 00.692 1.036l4.322-2.885L30 10.751l-.969 1.451-12.734-8.5a.623.623 0 00-.692 0l-12.734 8.5-.969-1.451 5.063-3.379a.623.623 0 00-.692-1.036L.692 10.061a.623.623 0 00-.172.864l1.535 2.3v17.433H.622a.623.623 0 000 1.246h30.657a.624.624 0 00.52-.967zM25.776 3.967h1.516v3.477l-1.516-1.012V3.967zm-3.308 12.858l.713-1.078a.622.622 0 10-1.039-.687l-.421.636-.421-.636a.622.622 0 10-1.039.687l.713 1.078-.349.528c-4.991 4.298-12.521 4.137-17.322-.481v-3.008a21.25 21.25 0 001.797.38 1.871 1.871 0 001.63 2.783 1.872 1.872 0 001.761-2.495l.112.001c.578 0 1.157-.024 1.735-.071a1.871 1.871 0 001.824 2.274c1.03 0 1.869-.839 1.869-1.869 0-.353-.099-.684-.27-.966a21.27 21.27 0 001.88-.56 1.871 1.871 0 001.869 1.856 1.871 1.871 0 001.869-1.869c0-.542-.232-1.031-.602-1.373a21.14 21.14 0 001.435-.851 1.873 1.873 0 001.813 1.414 1.871 1.871 0 001.823-2.278l4.75 3.171v12.687l-6.133-9.273zm2.847 12.383l-2.435-3.681h2.435v3.681zm-2.971-4.928v-5.383l3.56 5.383h-3.56zm-8.989-1.944a.624.624 0 11-1.247-.001.624.624 0 011.247.001zM8 21.531a.623.623 0 11-1.246 0 .623.623 0 011.246 0zm-.647-6.373a.624.624 0 11-1.247-.001.624.624 0 011.247.001zm5.432-.29a.624.624 0 11-1.247-.001.624.624 0 011.247.001zm5.349-1.539a.623.623 0 11-1.246 0 .623.623 0 011.246 0zm3.893-3.302a.624.624 0 11-.001 1.247.624.624 0 01.001-1.247zm-6.076-5.059l5.508 3.677c-4.769 3.968-11.203 5.509-17.244 4.158l11.736-7.834zM3.302 18.538c.836.684 1.74 1.264 2.694 1.734a1.86 1.86 0 00-.489 1.259c0 1.031.839 1.869 1.869 1.869a1.872 1.872 0 001.864-2.002c.574.123 1.158.21 1.75.261a1.871 1.871 0 001.742 2.546 1.872 1.872 0 001.692-2.662 14.002 14.002 0 004.39-1.453l-6.988 10.567H3.301V18.539zm17.796.359v5.819l-3.929 5.941h-3.848l7.777-11.759zm-2.435 11.76l3.058-4.624 3.058 4.624h-6.115zm7.898 0v-5.383l3.56 5.383h-3.56z"/><path fill="var(--color1, #7bb83e)" d="M8.952 5.918a.625.625 0 00.441-1.063.627.627 0 00-1.065.44.623.623 0 00.624.623z"/></symbol><symbol id="icon-sport" viewBox="0 0 32 32"><path fill="var(--color2, #fff)" d="M8.847 5.411l-.008.611a.983.983 0 01.966.979h.611c0-.865-.704-1.579-1.568-1.591zm-1.139.458l.429.435a.99.99 0 01.395-.238l-.182-.583c-.24.075-.462.208-.642.386zm-.474 1.132h.611c0-.158.036-.309.108-.448l-.543-.28a1.599 1.599 0 00-.176.728z"/><path fill="var(--color2, #fff)" d="M10.042 11.199l2.184 2.184-1.918 1.918 2.33 2.33.432-.432-1.898-1.898 4.035-4.035.171.171h3.709v-.611h-3.456L13.565 8.76h2.888v1.079h-.213v-.57h-.611v1.181h1.436v-.862l1.942-1.5h3.907v-.611h-3.906l-1.942-1.5v-.961H15.63v1.181h.611v-.57h.213v1.079h-4.822l-.425.423a2.378 2.378 0 00-.694-1.815c-.93-.93-2.443-.93-3.373 0s-.93 2.443 0 3.373a2.378 2.378 0 001.816.693l-1.421 1.423H5.303v2.053h3.082l1.659-1.659zm7.022-4.449l1.338 1.033-1.338 1.033V6.75zm-4.406 6.201L9.455 9.748l.842-.842.465.465-.372.372.967.967.372-.372.404.404-.372.372.967.967.372-.372.4.4-.842.842zm-1.404-3.209l.31-.31.103.103-.31.31-.103-.103zm1.371 1.371l.31-.31.103.103-.31.31-.103-.103zm3.827-3.795v.831h-3.499l-.831-.831h4.33zm-4.881.313l3.203 3.203-.842.842-.4-.4.371-.371-.967-.967-.371.371-.404-.404.371-.371-.967-.967-.371.371-.465-.465.842-.842zM8.825 8.775a1.776 1.776 0 010-3.548 1.776 1.776 0 010 3.548zm-2.913 3.472v-.831h1.874l1.236-1.236.587.587-1.48 1.48H5.911z"/><path fill="var(--color2, #fff)" d="M15.663 12.879h1.653v-.611h-1.903l-1.952 1.919-1.115 1.115 1.311 1.31.432-.432-.878-.878.681-.681 1.772-1.741zm6.53-2.775l-.605-.545-9.533 9.531.451.466 1.078.016 8.594-8.384.016-1.084zm-.624.823l-8.231 8.031-.282-.004 8.521-8.52-.007.493zm4.289 10.249c-.953 0-1.418-.187-1.911-.385-.525-.211-1.067-.43-2.139-.43s-1.614.218-2.139.43c-.492.198-.958.385-1.911.385s-1.419-.187-1.911-.385c-.525-.211-1.067-.43-2.139-.43s-1.614.218-2.139.43c-.492.198-.958.385-1.911.385s-1.419-.187-1.911-.385c-.525-.211-1.067-.43-2.139-.43h-.306v5.118h20.863v-4.303h-.306zm-.305 3.691H5.913v-3.888c.753.036 1.169.203 1.606.378.525.211 1.068.43 2.139.43s1.614-.218 2.139-.43c.493-.198.958-.385 1.911-.385s1.419.187 1.911.385c.525.211 1.067.43 2.139.43s1.614-.218 2.139-.43c.492-.198.958-.385 1.911-.385s1.419.187 1.911.385c.472.19.959.386 1.834.423v3.087z"/><path fill="var(--color2, #fff)" d="M22.268 22.206c.658.05 1.043.205 1.451.369.282.114.574.231.955.314l.131-.597a5.137 5.137 0 01-.858-.284c-.433-.174-.881-.355-1.633-.411l-.046.609zm-15.629-.003c.179.038.352.089.545.159l.209-.574a4.553 4.553 0 00-.627-.182l-.127.598zm4.929-.278c-.493.198-.958.385-1.911.385-.361 0-.676-.027-.962-.082l-.116.6c.325.063.678.093 1.078.093 1.072 0 1.614-.218 2.139-.43.194-.078.378-.152.589-.215l-.174-.586c-.239.071-.444.154-.643.234zm-4.014.582c.193.078.384.152.6.217l.175-.585a6.268 6.268 0 01-.547-.199l-.228.567zm18.61-15.03h-2.64v.611h2.64v-.611zm-15.755 8.799H8.724v.611h1.685v-.611zm-3.111 0h-.611v.611h.611v-.611zm1.018 0h-.611v.611h.611v-.611zm.059-1.98H5.93v.611h2.445v-.611zm1.327 0h-.716v.611h.716v-.611zm14.893 4.714h-.601v.611h.601v-.611zm-1.008 0h-.611v.611h.611v-.611zm-1.019 0h-.611v.611h.611v-.611zm1.135-3.088h-.611v.611h.611v-.611zm-3.056 0h-.611v.611h.611v-.611zm2.037 0h-.611v.611h.611v-.611zm-1.019 0h-.611v.611h.611v-.611z"/><path fill="none" stroke="var(--color2, #fff)" stroke-width=".561" d="M31.355 15.818c0 8.581-6.956 15.537-15.537 15.537S.281 24.399.281 15.818 7.237.281 15.818.281s15.537 6.956 15.537 15.537z"/></symbol><symbol id="icon-sport-2" viewBox="0 0 32 32"><path fill="var(--color1, #7bb83e)" d="M30.256 18.295a12.111 12.111 0 001.562-4.678l.002-.016a12.14 12.14 0 00-3.115-9.637.627.627 0 00-.111-.119A12.219 12.219 0 0023.801.703a12.135 12.135 0 00-4.082-.704 12.112 12.112 0 00-4.63.915 12.245 12.245 0 00-4.462 3.167.627.627 0 00-.105.119 12.132 12.132 0 00-2.911 9.337l.002.016c.09.807.26 1.589.501 2.341l-6.545 6.545a.623.623 0 00.882.881l6.153-6.152c.171.38.362.751.57 1.109a.602.602 0 00.071.12 12.24 12.24 0 006.971 5.455l-4.389 4.389a.623.623 0 00.882.881l4.934-4.934a12.19 12.19 0 002.08.178c4.438 0 8.33-2.386 10.46-5.942a.597.597 0 00.078-.131zm-5.391.025l-2.217-3.412 1.179-3.628 3.531-.793 3.185 3.271a10.883 10.883 0 01-1.262 3.732l-4.415.829zm-8.076-3.412l-2.216 3.41-4.429-.85a10.884 10.884 0 01-1.258-3.764l3.19-3.217 3.534.794 1.179 3.628zm-6.14-8.832l.562 3.513-2.429 2.45a10.875 10.875 0 011.867-5.963zm7.277 8.299l-1.101-3.387 2.881-2.093 2.881 2.094-1.101 3.387h-3.561zm12.729-2.287l-2.441-2.507.432-3.71a10.874 10.874 0 012.01 6.217zm-3.11-7.537l-.552 4.741-3.511.788-3.129-2.273V4.434l3.382-2.424a10.985 10.985 0 013.81 2.541zm-5.297-3.009l-2.556 1.832-2.85-1.743a10.92 10.92 0 015.406-.089zm-6.918.624l3.754 2.297v3.344l-3.129 2.273-3.53-.793-.725-4.534a10.994 10.994 0 013.631-2.588zm-4.222 16.756l3.362.645 1.712 2.968a10.976 10.976 0 01-5.074-3.614zm6.761 4.043l-2.271-3.937 2.214-3.407h3.814l2.214 3.407-2.271 3.936a10.962 10.962 0 01-3.7 0zm5.386-.43l1.711-2.967 3.349-.629a10.984 10.984 0 01-5.061 3.596z"/><path fill="var(--color1, #7bb83e)" d="M8.582 22.44L.183 30.839a.623.623 0 10.882.88l8.399-8.399a.623.623 0 00-.881-.881zm1.771 7.532a.627.627 0 00-.623.624.627.627 0 00.623.623.625.625 0 000-1.247z"/></symbol><symbol id="icon-telegram" viewBox="0 0 32 32"><path fill="none" stroke="var(--color2, #fff)" stroke-width="1.143" d="M31.429 16c0 8.521-6.908 15.429-15.429 15.429S.571 24.521.571 16 7.479.571 16 .571 31.429 7.479 31.429 16z"/><path fill="var(--color2, #fff)" d="M7.667 14.333l15.427-6.256c.716-.272 1.341.184 1.109 1.322l.001-.001-2.627 13.015c-.195.923-.716 1.147-1.445.712l-4-3.101-1.929 1.955c-.213.224-.393.414-.807.414l.284-4.282 7.413-7.044c.323-.299-.072-.467-.497-.17l-9.161 6.067-3.949-1.296c-.857-.286-.876-.902.181-1.336z"/></symbol><symbol id="icon-person" viewBox="0 0 18 18"><path d="M9 9a3 3 0 100-6 3 3 0 100 6zm0 1.5c-2.003 0-6 1.005-6 3v.75c0 .412.337.75.75.75h10.5c.412 0 .75-.338.75-.75v-.75c0-1.995-3.998-3-6-3z"/></symbol><symbol id="icon-phone-modal" viewBox="0 0 18 18"><path d="M13.996 11.123l-1.838-.21a1.44 1.44 0 00-1.187.412l-1.332 1.332a10.888 10.888 0 01-4.769-4.77L6.21 6.55a1.44 1.44 0 00.412-1.187l-.21-1.824a1.448 1.448 0 00-1.44-1.28H3.72c-.818 0-1.498.68-1.448 1.497.384 6.18 5.327 11.116 11.5 11.5.817.05 1.498-.63 1.498-1.448v-1.252a1.434 1.434 0 00-1.274-1.432z"/></symbol><symbol id="icon-email" viewBox="0 0 18 18"><path d="M15 3H3c-.825 0-1.492.675-1.492 1.5l-.008 9c0 .825.675 1.5 1.5 1.5h12c.825 0 1.5-.675 1.5-1.5v-9c0-.825-.675-1.5-1.5-1.5zm-.3 3.188L9.398 9.502a.759.759 0 01-.796 0L3.3 6.188a.637.637 0 11.675-1.08L9 8.25l5.025-3.143a.637.637 0 11.675 1.08z"/></symbol><symbol id="icon-logo-footer" viewBox="0 0 170 104" fill="none"><path fill-rule="evenodd" clip-rule="evenodd" d="M81.388 91.272v12.499h2.491v-8.217l5.394 8.217h2.694V91.272h-2.492v8.376l-5.479-8.376h-2.608z" fill="#565F64"/><path fill-rule="evenodd" clip-rule="evenodd" d="M74.126 97.54c0-2.04-.59-3.632-1.767-4.777-1.178-1.145-2.749-1.717-4.713-1.716a7.763 7.763 0 00-2.872.498 5.255 5.255 0 00-1.72 1.128 5.85 5.85 0 00-1.239 1.716c-.406.868-.61 1.938-.611 3.212 0 1.991.584 3.556 1.753 4.695 1.17 1.138 2.744 1.706 4.726 1.704 1.955 0 3.517-.571 4.688-1.713 1.17-1.141 1.754-2.723 1.753-4.744l.002-.004zm-3.778-3.27c.668.704 1.002 1.773 1.002 3.208 0 1.452-.344 2.541-1.032 3.268a3.758 3.758 0 01-5.302-.009c-.697-.733-1.046-1.808-1.047-3.223 0-1.438.34-2.515 1.019-3.233.679-.716 1.573-1.073 2.683-1.07 1.114 0 2.004.353 2.672 1.059h.005zm-13.92 9.501V93.385h3.924v-2.113h-10.56v2.113h3.94v10.386h2.696zm-8.604-1.624a3.737 3.737 0 00.106-4.003 3.658 3.658 0 00-1.47-1.27c-.623-.31-1.586-.611-2.89-.9-1.305-.289-2.126-.571-2.464-.842a.943.943 0 01-.399-.76.902.902 0 01.424-.78c.432-.296 1.036-.444 1.812-.444.75 0 1.313.141 1.689.424.375.284.62.747.734 1.391l2.696-.088c-.044-1.16-.486-2.088-1.326-2.781-.84-.694-2.092-1.044-3.754-1.05a6.977 6.977 0 00-2.617.444 3.569 3.569 0 00-1.658 1.268 3.115 3.115 0 00-.568 1.786c0 .995.407 1.836 1.22 2.522.58.491 1.588.905 3.021 1.242 1.116.262 1.829.441 2.141.547.362.095.694.28.964.538.184.21.282.479.275.757 0 .459-.218.86-.656 1.205-.437.344-1.09.515-1.955.514-.815 0-1.463-.193-1.943-.579-.48-.387-.796-.996-.955-1.813l-2.613.246c.177 1.393.715 2.454 1.615 3.183.9.729 2.191 1.094 3.876 1.094 1.155 0 2.12-.152 2.897-.457a3.747 3.747 0 001.797-1.394h.001zm-19.19-.489v-3.386h6.656V96.16h-6.656v-2.775h7.157v-2.113h-9.852v12.499H36.05v-2.113h-7.417zm-5.544 2.113V91.272H20.6v8.376l-5.479-8.376h-2.608v12.499h2.491v-8.217l5.394 8.217h2.692zM9.948 96.04v-1.885H8.712l.718-3.32H7.308l-.699 3.32H4.657l.72-3.32H3.328l-.721 3.32H0v1.885h2.198l-.546 2.514H0v1.886h1.242l-.721 3.319H2.57l.721-3.319h2.004l-.696 3.319h2.046l.716-3.319h2.593v-1.886h-2.19l.542-2.514h1.642zm-5.701 0h1.967l-.526 2.514H3.7l.539-2.514h.007zm71.883-4.768v12.499h2.695V91.272h-2.696z" fill="#E7A24F"/><path fill-rule="evenodd" clip-rule="evenodd" d="M98.625 91.272l-5.177 12.499h2.85l1.106-2.845h5.344l1.149 2.845h2.904l-5.332-12.499h-2.844zm-.394 7.541l1.796-4.625 1.851 4.626h-3.647z" fill="#565F64"/><path fill-rule="evenodd" clip-rule="evenodd" d="M116.985 91.272l-2.357 8.524-2.387-8.524h-4.038v12.499h2.492l.008-9.84 2.614 9.84h2.59l2.623-9.84.01 9.84h2.492V91.272h-4.047zm6.742 0v12.499h10.114v-2.113h-7.417v-3.386h6.654V96.16h-6.654v-2.775h7.157v-2.113h-9.854zm13.417 5.792c.58.492 1.587.905 3.021 1.242 1.116.262 1.829.441 2.141.547.362.096.693.28.963.538.184.21.282.48.276.757 0 .459-.219.861-.656 1.205-.438.344-1.087.515-1.949.514-.815 0-1.462-.193-1.942-.579-.481-.387-.797-.996-.955-1.812l-2.622.244c.177 1.393.715 2.454 1.615 3.183.899.729 2.191 1.093 3.876 1.093 1.155 0 2.121-.152 2.897-.456a3.762 3.762 0 001.797-1.394 3.73 3.73 0 00.105-4.003 3.658 3.658 0 00-1.47-1.271c-.623-.309-1.586-.61-2.89-.9-1.304-.288-2.126-.57-2.463-.841a.933.933 0 01-.399-.76.898.898 0 01.424-.78c.436-.302 1.042-.453 1.818-.453.751 0 1.313.141 1.688.425.376.283.621.746.735 1.39l2.695-.088c-.043-1.16-.485-2.087-1.325-2.781-.841-.694-2.094-1.041-3.759-1.042a6.977 6.977 0 00-2.612.436 3.567 3.567 0 00-1.658 1.268 3.108 3.108 0 00-.573 1.793c0 .995.407 1.836 1.221 2.522l.001.003zm14.378-3.679v10.386h2.696V93.385h3.922v-2.113h-10.56v2.113h3.942zm8.363-2.113v12.499H170v-2.113h-7.419v-3.386h6.656V96.16h-6.656v-2.775h7.159v-2.113h-9.855z" fill="#43A2D9"/><path fill-rule="evenodd" clip-rule="evenodd" d="M104.647 30.888a4.26 4.26 0 01.219-2.472 4.286 4.286 0 011.563-1.936 4.328 4.328 0 014.78-.062 4.266 4.266 0 01.757 6.57 4.318 4.318 0 01-2.181 1.21 4.353 4.353 0 01-3.259-.598 4.304 4.304 0 01-1.879-2.712zm-6.645 17.887l16.378-7.966c1.054-.512 4.302-3.091 5.394-6.558 1.092-3.467 1.396-9.717-3.859-13.443-5.255-3.726-12.169-1.978-14.931.87-2.762 2.848-4.652 6.638-4.007 14.227A1130.4 1130.4 0 0198 48.774l.002.001zm10.624-36.696a3.323 3.323 0 001.758 3.226 3.357 3.357 0 003.675-.354 3.323 3.323 0 001.081-1.586 3.3 3.3 0 00-1.03-3.524 3.348 3.348 0 00-1.769-.763 3.398 3.398 0 00-2.482.736 3.36 3.36 0 00-1.233 2.265zm8.164 3.133a2.392 2.392 0 00-.127 2.667c.245.407.606.733 1.037.938a2.44 2.44 0 002.66-.377 2.398 2.398 0 00-1.002-4.125 2.469 2.469 0 00-1.856.263 2.441 2.441 0 00-.712.634zm4.784 5.063a1.815 1.815 0 00-.471 1.957c.123.337.342.63.632.843a1.843 1.843 0 002.742-.66 1.811 1.811 0 00-.256-1.997 1.882 1.882 0 00-2.647-.143zm2.784 4.939a1.61 1.61 0 00-.908.2 1.595 1.595 0 00-.803 1.58 1.59 1.59 0 001.161 1.34 1.61 1.61 0 001.69-.552 1.583 1.583 0 00-.047-2.019 1.603 1.603 0 00-1.093-.549zm-.388 5.143a1.051 1.051 0 00-1.616 1.088c.045.204.151.39.304.534a1.055 1.055 0 001.623-.223 1.01 1.01 0 00-.311-1.399zm-50.177-2.542c1.214-7.516-.386-11.44-2.926-14.485s-9.303-5.296-14.823-1.976c-5.521 3.319-5.686 9.574-4.858 13.11.828 3.537 3.872 6.355 4.891 6.944l15.729 9.17s.773-5.239 1.987-12.757v-.006zm-7.269-5.575a4.282 4.282 0 01-1.395 2.06 4.325 4.325 0 01-4.759.456 4.297 4.297 0 01-1.765-1.755 4.26 4.26 0 01.46-4.73 4.311 4.311 0 012.073-1.385 4.336 4.336 0 012.497-.011 4.325 4.325 0 012.563 2.088 4.28 4.28 0 01.326 3.277zm-5.76-15.517a3.395 3.395 0 002.339-1.108 3.36 3.36 0 00.866-2.427A3.314 3.314 0 0062.896.88a3.346 3.346 0 00-2.401-.877 3.351 3.351 0 00-2.322 1.066 3.31 3.31 0 00-.884 2.386 3.357 3.357 0 001.058 2.348c.651.613 1.52.944 2.417.92zm-5.856 2.361a2.444 2.444 0 00.474-3.782 2.477 2.477 0 00-2.693-.588 2.47 2.47 0 00-1.129.891 2.447 2.447 0 00-.035 2.74 2.462 2.462 0 003.383.739zm-4.413 3.946a1.9 1.9 0 00.49-2.073 1.904 1.904 0 00-.688-.88 1.922 1.922 0 00-2.863.813 1.891 1.891 0 00.41 2.09 1.88 1.88 0 002.65.05zm-1.598 3.68a1.6 1.6 0 00-1.914-1.56 1.589 1.589 0 00-1.167 2.17 1.608 1.608 0 002.959 0c.08-.193.122-.4.122-.61zm-.251 4.06a.986.986 0 00-.97-.484.99.99 0 00-.832.691.977.977 0 00.308 1.035.991.991 0 001.077.13 1.008 1.008 0 00.414-1.37l.003-.002z" fill="#E7A24F"/><path fill-rule="evenodd" clip-rule="evenodd" d="M66.312 3.982c11.43-1.711 15.958 2.49 15.958 2.49 6.432 5.569 5.52 13.057 5.52 13.057-3.119 1.067-10.268 3.292-10.268 3.292.055.332.055 1.262.055 1.262l10.158-3.265c-.248 7.792-3.65 16.596-3.65 16.596-.242-.083-1.097-.09-1.097-.09-2.54-.013-3.078 2.158-3.091 3.032 0 .554.117 1.1.346 1.605-5.052 3.716-11.897 6.008-14.133 6.914-2.236.906-2.954 2.194-2.954 3.485s1.571 5.943 13.461 10.854c11.89 4.91 18.812 5.5 18.812 5.974 0 .475.835 2.656 3.188 2.656 2.352 0 3.119-1.783 3.119-3.072 0-1.29-.787-3.129-3.106-3.142-2.32-.013-3.12 2.1-3.12 2.1-2.87-.439-5.135-.664-16.452-4.883C67.742 58.63 64.457 53.72 64.4 52.226c-.057-1.494 2.622-2.332 2.622-2.332 7.785-2.743 13.969-7.078 13.969-7.078s.334.63 2.004.63 2.83-1.697 2.83-1.697l.149.048c2.621.878 9.717 2.936 9.717 2.936l-.027-1.261c-4.302-1.043-9.528-2.799-9.528-2.799.167-1.536-1.104-2.73-1.104-2.73 3.754-9.052 3.864-17.556 3.864-17.556a6724.29 6724.29 0 0015.734-5.596l-.501-1.207c-5.963 2.47-15.1 5.323-15.1 5.323-.055-3.594-.744-8.725-5.934-13.388C77.905.855 66.34 2.61 66.34 2.61s-.029 1.207-.029 1.37zm14.744 36.365c.005-.379.123-.747.34-1.06a1.93 1.93 0 011.986-.792c.373.077.714.262.982.532a1.916 1.916 0 01.406 2.089 1.92 1.92 0 01-.712.857 1.94 1.94 0 01-1.07.322 1.954 1.954 0 01-1.373-.576 1.935 1.935 0 01-.56-1.372zm15.542 28.407a1.994 1.994 0 01.305-1.132 2.027 2.027 0 013.11-.38 1.994 1.994 0 01-.273 3.102 2.025 2.025 0 01-1.127.343 1.99 1.99 0 01-1.41-.552 1.964 1.964 0 01-.605-1.382zm25.862-20.822c-5.742.274-16.198-1.907-16.198-1.907l-1.574.769c5.105 1.631 16.19 2.489 16.977 2.345 9.607-.605 13.443-2.387 13.663-8.423.22-6.036-6.459-14.347-6.459-14.347l-1.049.878c2.263 2.689 5.906 8.12 6.294 13.717.387 5.596-5.907 6.693-11.649 6.97l-.005-.002zM36.666 24.611c.027-2.277 2.545-8.23 5.134-10.204l-.939-.905s-5.741 6.418-5.299 11.63c.443 5.213 6.18 6.141 16.148 5.323l-.855-1.152s-5.844.768-9.22.028c-3.374-.74-4.997-2.443-4.969-4.72z" fill="#565F64"/></symbol><symbol id="footer-instagram" viewBox="0 0 34 34" fill="none"><path d="M17.004 13a4 4 0 10-.008 8.001A4 4 0 0017.004 13z" fill="#7BB83E"/><path d="M21.425 8h-8.85A4.582 4.582 0 008 12.575v8.85A4.578 4.578 0 0012.575 26h8.85A4.583 4.583 0 0026 21.425v-8.85A4.578 4.578 0 0021.425 8zm-4.329 14.458a5.465 5.465 0 01-5.047-3.37 5.457 5.457 0 013.981-7.445 5.465 5.465 0 016.53 5.355 5.462 5.462 0 01-5.464 5.46zm5.781-9.985a1.304 1.304 0 01-1.28-1.556 1.302 1.302 0 111.28 1.556z" fill="#7BB83E"/><path d="M17 0a17 17 0 100 34 17 17 0 000-34zm11.318 21.497a6.773 6.773 0 01-6.773 6.767h-8.989a6.773 6.773 0 01-6.766-6.767v-8.991a6.773 6.773 0 016.766-6.766h8.989a6.773 6.773 0 016.766 6.766l.007 8.991z" fill="#7BB83E"/></symbol><symbol id="footer-facebook" viewBox="0 0 43 43"><path fill="#039be5" d="M24 5a19 19 0 100 38 19 19 0 100-38z"/><path fill="#fff" d="M26.572 29.036h4.917l.772-4.995h-5.69v-2.73c0-2.075.678-3.915 2.619-3.915h3.119v-4.359c-.548-.074-1.707-.236-3.897-.236-4.573 0-7.254 2.415-7.254 7.917v3.323h-4.701v4.995h4.701v13.729c.931.14 1.874.235 2.842.235.875 0 1.729-.08 2.572-.194v-13.77z"/></symbol><symbol id="footer-telegram" viewBox="0 0 34 34" fill="none"><path d="M17 34c9.389 0 17-7.611 17-17S26.389 0 17 0 0 7.611 0 17s7.611 17 17 17z" fill="#039BE5"/><path d="M7.779 16.631l16.39-6.32c.761-.274 1.426.186 1.18 1.337v-.002l-2.79 13.148c-.207.933-.76 1.16-1.536.72l-4.25-3.132-2.05 1.975c-.226.226-.418.418-.857.418l.302-4.326 7.877-7.116c.342-.301-.077-.471-.529-.17l-9.734 6.128-4.196-1.31c-.91-.288-.93-.91.193-1.35z" fill="#fff"/></symbol></defs></svg>