<svg width="28" height="28" viewBox="0 0 28 28" fill="none" xmlns="http://www.w3.org/2000/svg"><path d="M27.5 14c0 7.456-6.044 13.5-13.5 13.5S.5 21.456.5 14 6.544.5 14 .5 27.5 6.544 27.5 14z" stroke="#fff"/><path d="M6.709 12.541l13.498-5.474c.627-.238 1.174.16.97 1.157l.002-.001L18.88 19.61c-.17.808-.627 1.004-1.265.624l-3.5-2.713-1.688 1.71c-.187.197-.345.362-.706.362l.248-3.746 6.487-6.164c.282-.261-.063-.408-.435-.148l-8.016 5.308L6.55 13.71c-.75-.25-.766-.789.159-1.169z" fill="#fff"/></svg>