<svg width="25" height="24" viewBox="0 0 25 24" fill="none" xmlns="http://www.w3.org/2000/svg"><path d="M12.5 23.951c6.904 0 12.5-5.361 12.5-11.975S19.404 0 12.5 0 0 5.362 0 11.976C0 18.59 5.596 23.95 12.5 23.95z" fill="#039BE5"/><path d="M5.633 11.376l12.052-4.452c.56-.193 1.048.131.867.941L16.5 17.126c-.152.656-.559.816-1.129.507l-3.125-2.207-1.507 1.391c-.167.16-.307.294-.63.294l.222-3.046 5.791-5.013c.252-.213-.056-.332-.388-.12l-7.157 4.316-3.086-.922c-.67-.203-.684-.641.142-.95z" fill="#fff"/></svg>