<svg width="58" height="57" viewBox="0 0 58 57" fill="none" xmlns="http://www.w3.org/2000/svg"><path d="M27.8 21.65h.734a.544.544 0 100-1.09h-.53v-1.523a.544.544 0 10-1.09 0v1.729c0 .487.398.883.886.883zm-2.529-1.87v-1.228a.544.544 0 10-1.089 0v1.227a.545.545 0 001.09 0zm.488-2.179a.543.543 0 00.77-.002.544.544 0 00-.003-.77 2.558 2.558 0 00-3.598 0 .544.544 0 10.767.772 1.467 1.467 0 012.064 0zm5.467.407a.544.544 0 00-.545.544v1.227a.545.545 0 001.089 0v-1.227c0-.3-.244-.544-.544-.544zm-1.032-.407a1.467 1.467 0 012.064 0 .543.543 0 10.767-.772 2.559 2.559 0 00-3.598 0 .545.545 0 00.767.772zm-.191 4.417H25.99c-.56 0-1.015.454-1.015 1.012a3.018 3.018 0 003.022 3.007 3.018 3.018 0 003.022-3.007c0-.558-.455-1.012-1.015-1.012zm-2.007 2.93c-1.04 0-1.89-.819-1.931-1.841h3.863a1.929 1.929 0 01-1.932 1.841z" fill="#fff"/><path d="M47.318 27.586v-4.853a.972.972 0 00-.973-.97H42.32a.972.972 0 00-.973.97v4.853a2.979 2.979 0 002.44 2.92v2.622h-.5c-.415 0-.788.178-1.049.461l-2.132-2.943a3.852 3.852 0 00-3.817-3.316h-2.227l-.725-1.52a6.48 6.48 0 001.804-3.21h.567a1.79 1.79 0 001.791-1.786v-1.502c0-.723-.434-1.346-1.055-1.627v-1.723a.544.544 0 00-1.089 0v1.565h-.07c-.113-1.728-.855-3.195-2.164-4.263a6.502 6.502 0 00-.823-.57v-.829c0-.44-.068-.865-.193-1.264.202-.06.416-.093.637-.093h.359a2.25 2.25 0 012.255 2.24v.601a.544.544 0 001.088 0v-.6a3.34 3.34 0 00-3.343-3.33h-.359c-.385 0-.755.067-1.1.187a4.272 4.272 0 00-3.612-1.99h-4.213c-2.354 0-4.268 1.906-4.268 4.249v5.82a1.787 1.787 0 00-1.055 1.627v1.502a1.79 1.79 0 001.791 1.786h.566c.28 1.242.92 2.35 1.804 3.21l-.725 1.52h-2.702c-2.124 0-3.853 1.72-3.853 3.834v12.699c0 .504.41.913.914.913h22.94c.503 0 .913-.41.913-.913v-4.011l1.068 1.474a2.702 2.702 0 003.752.608 2.658 2.658 0 001.118-2.294c.51-.217.867-.721.867-1.308v-.668a.544.544 0 00-1.088 0v.668a.336.336 0 01-.337.333h-2.235a.336.336 0 01-.337-.333v-.36c0-.1.044-.193.12-.256a.544.544 0 000-.84.331.331 0 01-.12-.255v-.36c0-.1.044-.192.12-.256a.544.544 0 000-.839.332.332 0 01-.12-.255v-.361c0-.184.15-.333.337-.333h2.234c.186 0 .338.149.338.333v.573a.544.544 0 001.088 0v-.573c0-.784-.64-1.422-1.426-1.422h-.644v-2.622a2.979 2.979 0 002.44-2.92zM34.78 31.369l-1.453 1.02a.988.988 0 00-.255 1.348l1.635 2.451a.294.294 0 01.01.182.578.578 0 00-.03.068l-2.597 7.25h-.476V27.017c.299-.144.584-.31.855-.496l2.311 4.848zm-4.254 4.178l-.526.756-.505-2.598.615-.902.416.285v2.459zm-5.061-2.502l.399-.267.632.927-.505 2.598-.526-.756v-2.502zm2.058.234l-.755-1.108 1.224-.82 1.22.836-.745 1.092a.546.546 0 00-.084.41l.75 3.863-1.138 1.64-1.138-1.64.75-3.862a.543.543 0 00-.084-.41zm3.003-1.511l-2.15-1.474a.51.51 0 00.057-.065l2.069-2.797.023-.006v4.342zm-2.53-2.778l-.986-1.331.198.003h1.575c.066 0 .132-.002.197-.003l-.985 1.331zm-2.507-1.558l2.069 2.797a.48.48 0 00.056.064l-2.149 1.441v-4.308a.953.953 0 00.024.006zm-.024 10.024l2.083 3a.545.545 0 00.895 0l2.082-3v6.232h-5.06v-6.232zM36.41 20.814a.7.7 0 01-.702.697h-.416a6.61 6.61 0 00.008-.337v-2.558h.408a.7.7 0 01.702.696v1.502zM23.817 8.704h4.213c1.753 0 3.179 1.418 3.179 3.161v.309a9.013 9.013 0 00-3.213-.568c-1.995 0-3.815.589-5.124 1.658-1.31 1.069-2.051 2.535-2.164 4.263h-.07v-5.662a3.173 3.173 0 013.178-3.161zM20.285 21.51a.7.7 0 01-.703-.697v-1.502a.7.7 0 01.703-.696h.407v2.558c0 .113.003.225.009.337h-.416zm1.496-.337v-3.178c0-2.639 1.922-5.301 6.215-5.301 4.294 0 6.216 2.662 6.216 5.3v3.179c0 2.977-2.435 5.4-5.428 5.4h-1.575c-2.993 0-5.428-2.423-5.428-5.4zm-5.317 9.99c0-1.514 1.24-2.745 2.764-2.745h2.183l-1.195 2.507a1.067 1.067 0 00.34 1.313l1.399.982-1.577 2.365a1.342 1.342 0 00-.09 1.247l.676 1.885a.544.544 0 101.025-.367l-.685-1.913a.533.533 0 00-.029-.066.296.296 0 01.009-.182l1.635-2.453a.988.988 0 00-.254-1.348l-1.454-1.02 2.312-4.848c.27.186.556.352.854.496v16.67h-.476l-1.028-2.868a.545.545 0 00-1.025.367l.897 2.502h-4.292v-8.472a.544.544 0 10-1.089 0v8.472h-.9V31.164zm22.59 12.524h-5.806l2.456-6.855a1.342 1.342 0 00-.09-1.247l-1.576-2.365 1.398-.982c.41-.287.559-.864.342-1.308l-1.197-2.512h1.707c1.525 0 2.765 1.231 2.765 2.745v12.524zm4.233-3.934h1.706a1.575 1.575 0 01-.664 1.295 1.61 1.61 0 01-2.237-.361l-1.95-2.692v-5.444l1.72 2.373c.002.234.06.46.17.66a1.416 1.416 0 00-.171.675v.361c0 .24.06.47.17.675-.11.205-.17.436-.17.675v.361c0 .784.64 1.422 1.426 1.422zm-.852-16.902h3.794v1.337h-3.794v-1.337zm1.897 6.615a1.892 1.892 0 01-1.897-1.881v-2.308h3.794v2.308a1.89 1.89 0 01-1.897 1.881z" fill="#fff"/><circle cx="28.93" cy="28.176" r="27.676" stroke="#fff"/></svg>